<?xml version="1.0" standalone="no"?>
<!DOCTYPE svg PUBLIC "-//W3C//DTD SVG 1.1//EN" "http://www.w3.org/Graphics/SVG/1.1/DTD/svg11.dtd" >
<svg xmlns="http://www.w3.org/2000/svg">
<metadata>
This is a custom SVG webfont generated by Font Squirrel.
Copyright   : Abdul Makes Fonts  abdulmakesfontsinuaecom
</metadata>
<defs>
<font id="KroftsmannRegular" horiz-adv-x="939" >
<font-face units-per-em="2048" ascent="1638" descent="-410" />
<missing-glyph horiz-adv-x="716" />
<glyph unicode=" "  horiz-adv-x="716" />
<glyph unicode="&#x09;" horiz-adv-x="716" />
<glyph unicode="&#xa0;" horiz-adv-x="716" />
<glyph unicode="!" horiz-adv-x="385" d="M34 0v317h317v-317h-317zM34 412v952h317v-952h-317z" />
<glyph unicode="&#x22;" horiz-adv-x="811" d="M34 1049v315h317v-317l-158 -203zM446 1050v315h317v-316l-158 -205z" />
<glyph unicode="#" horiz-adv-x="970" d="M34 623h96v-205h289v205h96v-205h289v205h96v289h-96v96h96v289h-96v205h-289v-205h-96v205h-289v-205h-96v-289h96v-96h-96v-289zM419 912v96h96v-96h-96z" />
<glyph unicode="$" horiz-adv-x="1024" d="M34 483l96 -346h331v-274h96v274h232l201 464l-433 228v52h433l-96 346h-337v275h-96v-275h-226l-201 -464l427 -226v-54h-427z" />
<glyph unicode="%" horiz-adv-x="1523" d="M-344 978v277l175 259h404l175 -233v-277l-175 -260h-404zM-187 -231l248 -147l1120 1909l-248 147zM-27 1061h86v136h-86v-136zM694 233v278l174 259h404l175 -233v-278l-175 -259h-404zM1010 317h86v136h-86v-136z" />
<glyph unicode="&#x26;" horiz-adv-x="1097" d="M34 233l176 -233h713v264l135 135l-194 194l-125 -126l-354 352v230h203v-122l317 85v94l-176 258h-519l-176 -258v-425l63 -83l-63 -93v-272zM385 291v157l149 -157h-149z" />
<glyph unicode="'" horiz-adv-x="385" d="M34 730v634h317v-317z" />
<glyph unicode="(" horiz-adv-x="573" d="M34 -57v1478l175 234h298v-291h-96v-1364h96v-317h-298z" />
<glyph unicode=")" horiz-adv-x="573" d="M34 0v-317h298l175 260v1478l-175 234h-298v-291h96v-1364h-96z" />
<glyph unicode="+" horiz-adv-x="793" d="M34 580l48 290h169v217l290 -48v-169h218l-48 -290h-170v-218l-290 48v170h-217z" />
<glyph unicode="," horiz-adv-x="385" d="M34 0h317l-317 -317v317z" />
<glyph unicode="-" horiz-adv-x="793" d="M34 580l48 290h677l-48 -290h-677z" />
<glyph unicode="." horiz-adv-x="385" d="M34 0v317h317v-317h-317z" />
<glyph unicode="/" horiz-adv-x="1024" d="M-187 -231l248 -147l1120 1909l-248 147z" />
<glyph unicode="0" d="M34 233v872l175 259h521l175 -234v-871l-175 -259h-521zM330 317h279v730h-279v-730z" />
<glyph unicode="1" horiz-adv-x="537" d="M34 1072h153v-1072h317v1364h-403z" />
<glyph unicode="2" horiz-adv-x="969" d="M34 0l47 404l488 501l-60 168h-428l-47 291h755l146 -534l-458 -483h458v-347h-901z" />
<glyph unicode="3" d="M34 291l96 -291h693l82 436l-95 290l95 246l-123 392h-652l-96 -291h541l34 -101l-48 -101h-240v-289h195l45 -146l-27 -145h-500z" />
<glyph unicode="4" d="M34 700l96 -290h355v-410h321v410h99v290h-99v664h-321zM390 700l95 144v-144h-95z" />
<glyph unicode="5" horiz-adv-x="1024" d="M34 347l96 -347h659l201 464l-201 432h-374l8 121h366l146 347h-805l-96 -782h516l67 -118l-53 -117h-530z" />
<glyph unicode="6" d="M34 233l176 -233h519l176 233v340l-176 234h-348l348 557h-326l-369 -545v-586zM332 291v276h256v-276h-256z" />
<glyph unicode="7" d="M34 1073h550l-396 -1073h321l396 1073l-109 291h-762v-291z" />
<glyph unicode="8" d="M34 233l176 -233h519l176 233v340l-63 93l63 84v356l-176 258h-519l-176 -258v-356l63 -84l-63 -93v-340zM385 291v225h203v-225h-203zM385 833v216h203v-216h-203z" />
<glyph unicode="9" d="M34 791l176 -234h348l-348 -557h327l368 545v585l-176 234h-519l-176 -234v-339zM351 797v276h257v-276h-257z" />
<glyph unicode=":" horiz-adv-x="385" d="M34 0v317h317v-317h-317zM34 634v316h317v-316h-317z" />
<glyph unicode=";" horiz-adv-x="385" d="M34 0h317l-317 -317v317zM34 317v317h317v-317h-317z" />
<glyph unicode="&#x3c;" d="M34 422v521l836 175v-321l-545 -114l545 -115v-321z" />
<glyph unicode="=" horiz-adv-x="793" d="M34 188l48 290h677l-48 -290h-677zM34 580l48 290h677l-48 -290h-677z" />
<glyph unicode="&#x3e;" d="M34 247l836 175v521l-836 175v-321l545 -114l-545 -115v-321z" />
<glyph unicode="?" horiz-adv-x="1024" d="M34 1017l96 347h659l201 -464l-201 -432h-206v-58h-317v185l144 187h140l67 118l-53 117h-530zM266 0v317h317v-317h-317z" />
<glyph unicode="@" horiz-adv-x="1684" d="M34 -83l175 -234h1255l174 260v98h-350v-41h-937v1364h937v-916h-106v642h-599l-176 -234v-435l176 -260h1055v1286l-174 234h-1255l-175 -260v-1504zM717 478v321h149v-321h-149z" />
<glyph unicode="A" d="M34 0h321v404h229v-404h321v1130l-146 234h-550l-175 -234v-1130zM355 695v378h229v-378h-229z" />
<glyph unicode="B" d="M34 -1v1365h695l176 -259v-357l-63 -83l63 -93v-340l-176 -233h-695zM351 289h203v226h-203v-226zM351 831h203v216h-203v-216z" />
<glyph unicode="C" horiz-adv-x="880" d="M34 259v871l175 234h638v-291h-436v-756h436v-317h-638z" />
<glyph unicode="D" d="M34 0h696l175 259v871l-175 234h-696v-1364zM351 317v756h203v-756h-203z" />
<glyph unicode="E" horiz-adv-x="793" d="M34 -1v1364h725v-291h-408v-202h408v-290h-408v-291h408v-290h-725z" />
<glyph unicode="F" horiz-adv-x="793" d="M34 0h317v493h408v289h-408v291h408v291h-725v-1364z" />
<glyph unicode="G" d="M34 259v871l175 234h638l-96 -291h-400v-756h203v304h351v-621h-696z" />
<glyph unicode="H" d="M34 0h317v580h203v-580h351v1364h-351v-494h-203v494h-317v-1364z" />
<glyph unicode="I" horiz-adv-x="385" d="M34 0h317v1364h-317v-1364z" />
<glyph unicode="J" d="M34 291h550v1073h321v-1131l-146 -233h-550z" />
<glyph unicode="K" d="M34 0h317v580l203 -580h351l-280 725l280 639h-351l-203 -494v494h-317v-1364z" />
<glyph unicode="L" d="M34 0h696l175 291h-550v1073h-321v-1364z" />
<glyph unicode="M" horiz-adv-x="1258" d="M34 0h321v668l232 -523h115l202 523v-668h321v1364h-378l-203 -493l-232 493h-378v-1364z" />
<glyph unicode="N" horiz-adv-x="1028" d="M34 0v1364h318l290 -550v550h352v-1364h-352l-290 580v-580h-318z" />
<glyph unicode="O" d="M34 233v872l175 259h521l175 -234v-871l-175 -259h-521zM351 317h203v730h-203v-730z" />
<glyph unicode="P" d="M34 0h317v436h378l176 259v435l-176 234h-695v-1364zM351 752v321h203v-321h-203z" />
<glyph unicode="Q" d="M34 233v872l175 259h521l175 -234v-871l-175 -259l123 -137h-336l-113 137h-198zM351 317h203v730h-203v-730z" />
<glyph unicode="R" horiz-adv-x="1054" d="M34 0h317v436h59l232 -436h378l-291 523l176 172v435l-176 234h-695v-1364zM351 752v321h203v-321h-203z" />
<glyph unicode="S" horiz-adv-x="969" d="M34 0h787l114 404l-435 669h348l87 291h-755l-89 -318l497 -699h-435z" />
<glyph unicode="T" horiz-adv-x="969" d="M34 1073l89 291h812l-87 -291h-230v-1073h-320v1073h-264z" />
<glyph unicode="U" d="M34 233v1131h321v-1073h229v1073h321v-1131l-146 -233h-550z" />
<glyph unicode="V" d="M34 1364h321l115 -1073l114 1073h321l-175 -1364h-521z" />
<glyph unicode="W" horiz-adv-x="1182" d="M34 1364h320l43 -567l-22 -286l91 520h251l90 -520l-21 286l43 567h319l-136 -1364h-336l-85 479l-86 -479h-334z" />
<glyph unicode="X" d="M34 0h351l85 242l84 -242h351l-280 725l280 639h-351l-84 -206l-85 206h-351l280 -639z" />
<glyph unicode="Y" d="M34 1364h351l85 -296l84 296h351l-274 -725v-639h-324v639z" />
<glyph unicode="Z" horiz-adv-x="925" d="M34 0v404l436 669h-436v291h844v-318l-497 -699h511v-347h-858z" />
<glyph unicode="[" horiz-adv-x="573" d="M34 -317v1972h473v-291h-96v-1364h96v-317h-473z" />
<glyph unicode="\" horiz-adv-x="1024" d="M-187 1531l248 147l1120 -1909l-248 -147z" />
<glyph unicode="]" horiz-adv-x="573" d="M34 0v-317h473v1972h-473v-291h96v-1364h-96z" />
<glyph unicode="^" d="M34 528h321l115 155l114 -155h321l-435 836z" />
<glyph unicode="_" horiz-adv-x="1030" d="M0 -273v-273h1031v273h-1031z" />
<glyph unicode="`" horiz-adv-x="385" d="M34 1047l317 -317v634h-317v-317z" />
<glyph unicode="a" d="M34 0h321v404h229v-404h321v1130l-146 234h-550l-175 -234v-1130zM355 695v378h229v-378h-229z" />
<glyph unicode="b" d="M34 -1v1365h695l176 -259v-357l-63 -83l63 -93v-340l-176 -233h-695zM351 289h203v226h-203v-226zM351 831h203v216h-203v-216z" />
<glyph unicode="c" horiz-adv-x="880" d="M34 259v871l175 234h638l-48 -291h-388v-756h436l-48 -317h-590z" />
<glyph unicode="d" d="M34 0h696l175 259v871l-175 234h-696v-1364zM351 317v756h203v-756h-203z" />
<glyph unicode="e" horiz-adv-x="793" d="M34 -1v1364h725l-48 -291h-360v-202h408l-48 -290h-360v-291h408l-48 -290h-677z" />
<glyph unicode="f" horiz-adv-x="793" d="M34 0h317v493h408v289h-408v291h408v291h-725v-1364z" />
<glyph unicode="g" d="M34 259v871l175 234h638v-291h-496v-756h203v304h351v-621h-696z" />
<glyph unicode="h" d="M34 0h317v580h203v-580h351v1364h-351v-494h-203v494h-317v-1364z" />
<glyph unicode="i" horiz-adv-x="617" d="M34 0h549v317h-116v730h116v317h-549v-317h116v-730h-116v-317z" />
<glyph unicode="j" d="M34 0v291h550v1073h321v-1131l-146 -233h-725z" />
<glyph unicode="k" d="M34 0h317v580l203 -580h351l-280 725l280 639h-351l-203 -494v494h-317v-1364z" />
<glyph unicode="l" d="M34 0h871v291h-550v1073h-321v-1364z" />
<glyph unicode="m" horiz-adv-x="1258" d="M34 0h321v668l232 -523h115l202 523v-668h321v1364h-378l-203 -493l-232 493h-378v-1364z" />
<glyph unicode="n" horiz-adv-x="1028" d="M34 0v1364h318l290 -550v550h352v-1364h-352l-290 580v-580h-318z" />
<glyph unicode="o" d="M34 233v872l175 259h521l175 -234v-871l-175 -259h-521zM351 317h203v730h-203v-730z" />
<glyph unicode="p" d="M34 0h317v436h378l176 259v435l-176 234h-695v-1364zM351 752v321h203v-321h-203z" />
<glyph unicode="q" d="M34 233v872l175 259h521l175 -234v-871l-175 -259l123 -137h-336l-113 137h-198zM351 317h203v730h-203v-730z" />
<glyph unicode="r" horiz-adv-x="1054" d="M34 0h317v436h59l232 -436h378l-291 523l176 172v435l-176 234h-695v-1364zM351 752v321h203v-321h-203z" />
<glyph unicode="s" horiz-adv-x="1024" d="M34 347l96 -347h659l201 464l-201 318l-382 118l53 117h530l-96 347h-659l-201 -464l201 -318l382 -118l-53 -117h-530z" />
<glyph unicode="t" horiz-adv-x="887" d="M34 1073v291h819v-291h-235v-1073h-320v1073h-264z" />
<glyph unicode="u" d="M34 232v1131h321v-1074h229v1074h321v-1364h-696z" />
<glyph unicode="v" d="M34 1364h321l115 -1073l114 1073h321l-175 -1364h-521z" />
<glyph unicode="w" horiz-adv-x="1182" d="M34 1364h320l43 -567l-22 -286l91 520h251l90 -520l-21 286l43 567h319l-136 -1364h-336l-85 479l-86 -479h-334z" />
<glyph unicode="x" d="M34 0h351l85 242l84 -242h351l-280 725l280 639h-351l-84 -206l-85 206h-351l280 -639z" />
<glyph unicode="y" d="M34 1364h351l85 -296l84 296h351l-274 -725v-639h-324v639z" />
<glyph unicode="z" horiz-adv-x="925" d="M34 0v404l436 669h-436v291h844v-318l-497 -699h511v-347h-858z" />
<glyph unicode="{" horiz-adv-x="694" d="M34 683l137 204v534l174 234h298v-291h-96v-1364h96v-317h-298l-174 260v535z" />
<glyph unicode="|" horiz-adv-x="1024" d="M34 -225l290 -48v1864l-290 47v-1863z" />
<glyph unicode="}" horiz-adv-x="694" d="M34 0v-317h298l175 260v535l136 205l-136 204v534l-175 234h-298v-291h96v-1364h-96z" />
<glyph unicode="~" horiz-adv-x="1272" d="M34 683q26 176 109 289q101 137 264 137q85 0 229 -67t205 -67q85 0 143 123h208q-23 -152 -104 -262q-98 -139 -233 -140q-87 0 -235.5 60t-219.5 60q-68 0 -104 -35q-23 -23 -49 -98h-213z" />
<glyph unicode="&#xa1;" horiz-adv-x="385" d="M34 -1h317v951h-317v-951zM34 1046h317v317h-317v-317z" />
<glyph unicode="&#xa2;" horiz-adv-x="880" d="M34 582l175 -260h289v-240h96v240h253v317h-253v194h253v291h-253v240h-96v-240h-289l-175 -234v-308zM411 639v194h87v-194h-87z" />
<glyph unicode="&#xa5;" d="M34 1364l273 -725v-173h-136v-96h136v-128h-136v-96h136v-146h324v146h136v96h-136v128h136v96h-136v173l274 725h-351l-84 -296l-85 296h-351z" />
<glyph unicode="&#xa9;" horiz-adv-x="1684" d="M34 -83l175 -234h1255l174 260v1504l-174 234h-1255l-175 -260v-1504zM351 0v1364h937v-1364h-937zM412 422v546l175 233h638v-290h-436v-432h436v-317h-638z" />
<glyph unicode="&#xaa;" d="M34 0h321v404h229v-404h321v1130l-146 234h-550l-175 -234v-1130zM355 695v378h229v-378h-229z" />
<glyph unicode="&#xab;" horiz-adv-x="1698" d="M34 683l836 -436v321l-155 115l155 114v321zM812 683l836 -436v321l-154 115l154 114v321z" />
<glyph unicode="&#xac;" horiz-adv-x="1290" d="M34 580h918v-300l273 34v556h-1143z" />
<glyph unicode="&#xad;" horiz-adv-x="793" d="M34 580l48 290h677l-48 -290h-677z" />
<glyph unicode="&#xae;" horiz-adv-x="1684" d="M34 -83l175 -234h1255l174 260v1504l-174 234h-1255l-175 -260v-1504zM351 0v1364h937v-1364h-937zM412 81h317v435h59l117 -435h310l-176 522l176 173v286l-176 234h-627v-1215zM729 833v172h135v-172h-135z" />
<glyph unicode="&#xb0;" horiz-adv-x="608" d="M34 1092q0 -56 20.5 -104.5t56 -84.5t82.5 -58.5t102 -23.5h22q55 1 102 23.5t82.5 58.5t56 84.5t20.5 104.5t-21.5 106t-58.5 87t-86.5 58t-105.5 21t-106 -21t-87 -58t-58 -87t-21 -106zM198 1092q0 45 32 76.5t76 31.5t75 -31.5t31 -76.5t-31 -75.5t-75 -30.5 t-76 30.5t-32 75.5z" />
<glyph unicode="&#xb1;" horiz-adv-x="793" d="M34 0l48 289h677l-48 -289h-677zM34 580l48 290h169v217l290 -48v-169h218l-48 -290h-170v-218l-290 48v170h-217z" />
<glyph unicode="&#xb2;" horiz-adv-x="969" d="M34 0l47 404l488 501l-60 168h-428l-47 291h755l146 -534l-458 -483h458v-347h-901z" />
<glyph unicode="&#xb3;" d="M34 291l96 -291h693l82 436l-95 290l95 246l-123 392h-652l-96 -291h541l34 -101l-48 -101h-240v-289h195l45 -146l-27 -145h-500z" />
<glyph unicode="&#xb7;" horiz-adv-x="371" d="M34 683q0 -31 11.5 -58.5t32 -48t48 -32.5t58.5 -12t58.5 12t48 32.5t32.5 47.5t12 59q0 31 -12 58.5t-32.5 48t-47.5 32t-59 11.5q-31 0 -58.5 -11.5t-48 -32t-32 -48t-11.5 -58.5z" />
<glyph unicode="&#xb9;" horiz-adv-x="537" d="M34 1072h153v-1072h317v1364h-403z" />
<glyph unicode="&#xba;" d="M34 233v872l175 259h521l175 -234v-871l-175 -259h-521zM351 317h203v730h-203v-730z" />
<glyph unicode="&#xbb;" horiz-adv-x="1698" d="M34 247v321l154 115l-154 114v321l836 -435zM812 247v321l155 115l-155 114v321l836 -435z" />
<glyph unicode="&#xbf;" horiz-adv-x="1024" d="M34 464l201 432h206v58h317v-185l-144 -187h-140l-67 -118l53 -117h530l-96 -347h-659zM441 1047v317h317v-317h-317z" />
<glyph unicode="&#xc0;" d="M34 0h321v404h229v-404h321v1130l-146 234h-550l-175 -234v-1130zM209 1501h546l-479 268zM355 695v378h229v-378h-229z" />
<glyph unicode="&#xc1;" d="M34 0h321v404h229v-404h321v1130l-146 234h-550l-175 -234v-1130zM209 1501h550l-74 266zM355 695v378h229v-378h-229z" />
<glyph unicode="&#xc2;" d="M34 0h321v404h229v-404h321v1130l-146 234h-550l-175 -234v-1130zM270 1501l207 273l206 -273l-206 106zM355 695v378h229v-378h-229z" />
<glyph unicode="&#xc3;" d="M34 0h321v404h229v-404h321v1130l-146 234h-550l-175 -234v-1130zM236 1501q11 74 47 121q42 57 110 57q35 0 96 -28t87 -28q35 0 60 52h88q-10 -64 -44 -110q-41 -59 -98 -59q-37 0 -99 25t-93 25q-29 0 -43 -15q-10 -10 -21 -40h-90zM355 695v378h229v-378h-229z" />
<glyph unicode="&#xc4;" d="M34 0h321v404h229v-404h321v1130l-146 234h-550l-175 -234v-1130zM59 1651q0 -31 11.5 -58.5t32 -48t47.5 -32t59 -11.5q31 0 58.5 11.5t48 32t32 47.5t11.5 59q0 31 -11.5 58.5t-32 48t-48 32t-58.5 11.5t-58.5 -11.5t-48 -32t-32 -48t-11.5 -58.5zM355 695v378h229 v-378h-229zM609 1651q0 -31 11.5 -58.5t32 -48t48 -32t58.5 -11.5t58.5 11.5t48 32t32 47.5t11.5 59q0 31 -11.5 58.5t-32 48t-47.5 32t-59 11.5q-31 0 -58.5 -11.5t-48 -32t-32 -48t-11.5 -58.5z" />
<glyph unicode="&#xc5;" d="M34 0h321v404h229v-404h321v1130l-146 234h-278q55 1 101.5 23.5t82 59t56 85t20.5 104.5t-21 105.5t-58 86.5t-86.5 58t-105.5 21t-106 -21t-87 -58t-58 -86.5t-21 -105.5t20.5 -104.5t56 -85t82.5 -59t102 -23.5h-250l-175 -234v-1130zM355 695v378h229v-378h-229z M362 1636q0 45 32 76.5t76 31.5t75 -31.5t31 -76.5t-31.5 -76t-74.5 -31q-44 0 -76 31t-32 76z" />
<glyph unicode="&#xc6;" horiz-adv-x="1361" d="M34 0v1130l175 234h1100v-291h-404v-202h404v-289h-404v-291h404v-291h-725v404h-229v-404h-321zM355 695h229v378h-229v-378z" />
<glyph unicode="&#xc7;" horiz-adv-x="880" d="M34 259l175 -259h228l-48 -83l21 -17q27 7 50 7q79 0 79 -69q0 -59 -94 -59q-53 0 -102 24l-21 -38q90 -37 171 -37q67 0 109 29q48 33 48 96q0 51 -42 75q-35 22 -89 21q-30 0 -67 -6l33 57h362v317h-436v756h436v291h-638l-175 -234v-871z" />
<glyph unicode="&#xc8;" horiz-adv-x="793" d="M34 -1v1364h725v-291h-408v-202h408v-290h-408v-291h408v-290h-725zM130 1501h546l-479 268z" />
<glyph unicode="&#xc9;" horiz-adv-x="793" d="M34 -1v1364h725v-291h-408v-202h408v-290h-408v-291h408v-290h-725zM132 1501h551l-74 267z" />
<glyph unicode="&#xca;" horiz-adv-x="793" d="M34 -1v1364h725v-291h-408v-202h408v-290h-408v-291h408v-290h-725zM214 1501l207 273l206 -273l-206 106z" />
<glyph unicode="&#xcb;" horiz-adv-x="793" d="M-14 1651q0 -31 12 -58.5t32.5 -48t47.5 -32t59 -11.5q31 0 58.5 11.5t48 32t32 47.5t11.5 59q0 31 -11.5 58.5t-32 48t-48 32t-58.5 11.5t-58.5 -11.5t-48 -32t-32.5 -48t-12 -58.5zM34 -1v1364h725v-291h-408v-202h408v-290h-408v-291h408v-290h-725zM537 1651 q0 -31 11.5 -58.5t32 -48t47.5 -32t59 -11.5q31 0 58.5 11.5t48 32t32 47.5t11.5 59q0 31 -11.5 58.5t-32 48t-48 32t-58.5 11.5t-58.5 -11.5t-48 -32t-32 -48t-11.5 -58.5z" />
<glyph unicode="&#xcc;" horiz-adv-x="385" d="M-81 1501h547l-480 268zM34 0h317v1364h-317v-1364z" />
<glyph unicode="&#xcd;" horiz-adv-x="385" d="M-78 1501h550l-73 266zM34 0h317v1364h-317v-1364z" />
<glyph unicode="&#xce;" horiz-adv-x="385" d="M-12 1501l206 273l206 -273l-206 106zM34 0h317v1364h-317v-1364z" />
<glyph unicode="&#xcf;" horiz-adv-x="385" d="M-229 1651q0 -31 11.5 -58.5t32 -48t47.5 -32t59 -11.5q31 0 58.5 11.5t48 32t32 47.5t11.5 59q0 31 -11.5 58.5t-32 48t-48 32t-58.5 11.5t-58.5 -11.5t-48 -32t-32 -48t-11.5 -58.5zM34 0h317v1364h-317v-1364zM321 1651q0 -31 11.5 -58.5t32 -48t48 -32t58.5 -11.5 t58.5 11.5t48 32t32 47.5t11.5 59q0 31 -11.5 58.5t-32 48t-48 32t-58.5 11.5t-58.5 -11.5t-48 -32t-32 -48t-11.5 -58.5z" />
<glyph unicode="&#xd0;" d="M-67 587h101v-587h696l175 259v871l-175 234h-696v-545h-101v-232zM351 317v270h101v232h-101v254h203v-756h-203z" />
<glyph unicode="&#xd1;" horiz-adv-x="1028" d="M34 0v1364h318l290 -550v550h352v-1364h-352l-290 580v-580h-318zM276 1501q11 74 46 121q42 57 111 57q35 0 96 -28t87 -28q35 0 60 52h87q-10 -64 -43 -110q-41 -59 -99 -59q-37 0 -99 25t-92 25q-29 0 -44 -15q-10 -10 -20 -40h-90z" />
<glyph unicode="&#xd2;" d="M34 233v872l175 259h521l175 -234v-871l-175 -259h-521zM197 1501h546l-479 268zM351 317h203v730h-203v-730z" />
<glyph unicode="&#xd3;" d="M34 233v872l175 259h521l175 -234v-871l-175 -259h-521zM198 1501h550l-74 266zM351 317h203v730h-203v-730z" />
<glyph unicode="&#xd4;" d="M34 233v872l175 259h521l175 -234v-871l-175 -259h-521zM266 1501l206 273l207 -273l-207 106zM351 317h203v730h-203v-730z" />
<glyph unicode="&#xd5;" d="M34 233v872l175 259h521l175 -234v-871l-175 -259h-521zM242 1501q11 74 46 121q42 57 111 57q35 0 96 -28t87 -28q35 0 60 52h87q-10 -64 -44 -110q-41 -59 -98 -59q-37 0 -99 25t-92 25q-29 0 -44 -15q-10 -10 -20 -40h-90zM351 317h203v730h-203v-730z" />
<glyph unicode="&#xd6;" d="M34 233v872l175 259h521l175 -234v-871l-175 -259h-521zM48 1651q0 -31 11.5 -58.5t32 -48t48 -32t58.5 -11.5t58.5 11.5t48 32t32 47.5t11.5 59q0 31 -11.5 58.5t-32 48t-48 32t-58.5 11.5t-58.5 -11.5t-48 -32t-32 -48t-11.5 -58.5zM351 317h203v730h-203v-730z M598 1651q0 -31 11.5 -58.5t32 -48t48 -32t58.5 -11.5t58.5 11.5t48 32t32 47.5t11.5 59q0 31 -11.5 58.5t-32 48t-47.5 32t-59 11.5q-31 0 -58.5 -11.5t-48 -32t-32 -48t-11.5 -58.5z" />
<glyph unicode="&#xd8;" d="M-86 -154l82 -49l1008 1654l-82 50zM34 233l175 -233h521l175 259v871l-175 234h-521l-175 -259v-872zM351 317v730h203v-730h-203z" />
<glyph unicode="&#xd9;" d="M34 233v1131h321v-1073h229v1073h321v-1131l-146 -233h-550zM202 1501h546l-479 268z" />
<glyph unicode="&#xda;" d="M34 233v1131h321v-1073h229v1073h321v-1131l-146 -233h-550zM218 1501h551l-74 266z" />
<glyph unicode="&#xdb;" d="M34 233v1131h321v-1073h229v1073h321v-1131l-146 -233h-550zM264 1501l206 273l206 -273l-206 106z" />
<glyph unicode="&#xdc;" d="M34 233v1131h321v-1073h229v1073h321v-1131l-146 -233h-550zM44 1651q0 -31 11.5 -58.5t32 -48t47.5 -32t59 -11.5q31 0 58.5 11.5t48 32t32 47.5t11.5 59q0 31 -11.5 58.5t-32 48t-48 32t-58.5 11.5t-58.5 -11.5t-48 -32t-32 -48t-11.5 -58.5zM594 1651 q0 -31 11.5 -58.5t32 -48t48 -32t58.5 -11.5t58.5 11.5t48 32t32 47.5t11.5 59q0 31 -11.5 58.5t-32 48t-47.5 32t-59 11.5q-31 0 -58.5 -11.5t-48 -32t-32 -48t-11.5 -58.5z" />
<glyph unicode="&#xdd;" d="M34 1364h351l85 -296l84 296h351l-274 -725v-639h-324v639zM208 1501h550l-74 266z" />
<glyph unicode="&#xde;" d="M34 0h317v218h378l176 260v435l-176 234h-378v217h-317v-1364zM351 535v321h203v-321h-203z" />
<glyph unicode="&#xdf;" d="M34 0h283v1049h271v-216h-176v-317h176v-225h-176v-291h317l176 233v340l-63 93l63 84v356l-176 258h-519l-176 -258v-1106z" />
<glyph unicode="&#xe0;" d="M34 0h321v404h229v-404h321v1130l-146 234h-550l-175 -234v-1130zM209 1501h546l-479 268zM355 695v378h229v-378h-229z" />
<glyph unicode="&#xe1;" d="M34 0h321v404h229v-404h321v1130l-146 234h-550l-175 -234v-1130zM209 1501h550l-74 266zM355 695v378h229v-378h-229z" />
<glyph unicode="&#xe2;" d="M34 0h321v404h229v-404h321v1130l-146 234h-550l-175 -234v-1130zM270 1491l207 283l206 -283l-206 116zM355 695v378h229v-378h-229z" />
<glyph unicode="&#xe3;" d="M34 0h321v404h229v-404h321v1130l-146 234h-550l-175 -234v-1130zM236 1501q11 74 47 121q42 57 110 57q35 0 96 -28t87 -28q35 0 60 52h88q-10 -64 -44 -110q-41 -59 -98 -59q-37 0 -99 25t-93 25q-29 0 -43 -15q-10 -10 -21 -40h-90zM355 695v378h229v-378h-229z" />
<glyph unicode="&#xe4;" d="M34 0h321v404h229v-404h321v1130l-146 234h-550l-175 -234v-1130zM59 1651q0 -31 11.5 -58.5t32 -48t47.5 -32t59 -11.5q31 0 58.5 11.5t48 32t32 47.5t11.5 59q0 31 -11.5 58.5t-32 48t-48 32t-58.5 11.5t-58.5 -11.5t-48 -32t-32 -48t-11.5 -58.5zM355 695v378h229 v-378h-229zM609 1651q0 -31 11.5 -58.5t32 -48t48 -32t58.5 -11.5t58.5 11.5t48 32t32 47.5t11.5 59q0 31 -11.5 58.5t-32 48t-47.5 32t-59 11.5q-31 0 -58.5 -11.5t-48 -32t-32 -48t-11.5 -58.5z" />
<glyph unicode="&#xe5;" d="M34 0h321v404h229v-404h321v1130l-146 234h-278q55 1 101.5 23.5t82 59t56 85t20.5 104.5t-21 105.5t-58 86.5t-86.5 58t-105.5 21t-106 -21t-87 -58t-58 -86.5t-21 -105.5t20.5 -104.5t56 -85t82.5 -59t102 -23.5h-250l-175 -234v-1130zM355 695v378h229v-378h-229z M362 1636q0 45 32 76.5t76 31.5t75 -31.5t31 -76.5t-31.5 -76t-74.5 -31q-44 0 -76 31t-32 76z" />
<glyph unicode="&#xe6;" horiz-adv-x="1361" d="M34 0v1130l175 234h1100v-291h-404v-202h404v-289h-404v-291h404v-291h-725v404h-229v-404h-321zM355 695h229v378h-229v-378z" />
<glyph unicode="&#xe7;" horiz-adv-x="880" d="M34 259l175 -259h228l-48 -83l21 -17q27 7 50 7q79 0 79 -69q0 -59 -94 -59q-53 0 -102 24l-21 -38q90 -37 171 -37q67 0 109 29q48 33 48 96q0 51 -42 75q-35 22 -89 21q-30 0 -67 -6l33 57h362v317h-436v756h388l48 291h-638l-175 -234v-871z" />
<glyph unicode="&#xe8;" horiz-adv-x="793" d="M34 -1v1364h725l-48 -291h-360v-202h408l-48 -290h-360v-291h408l-48 -290h-677zM130 1501h546l-479 268z" />
<glyph unicode="&#xe9;" horiz-adv-x="793" d="M34 -1v1364h725l-48 -291h-360v-202h408l-48 -290h-360v-291h408l-48 -290h-677zM132 1501h551l-74 267z" />
<glyph unicode="&#xea;" horiz-adv-x="793" d="M34 -1v1364h725l-48 -291h-360v-202h408l-48 -290h-360v-291h408l-48 -290h-677zM214 1501l207 273l206 -273l-206 106z" />
<glyph unicode="&#xeb;" horiz-adv-x="793" d="M-14 1651q0 -31 12 -58.5t32.5 -48t47.5 -32t59 -11.5q31 0 58.5 11.5t48 32t32 47.5t11.5 59q0 31 -11.5 58.5t-32 48t-48 32t-58.5 11.5t-58.5 -11.5t-48 -32t-32.5 -48t-12 -58.5zM34 -1v1364h725l-48 -291h-360v-202h408l-48 -290h-360v-291h408l-48 -290h-677z M537 1651q0 -31 11.5 -58.5t32 -48t47.5 -32t59 -11.5q31 0 58.5 11.5t48 32t32 47.5t11.5 59q0 31 -11.5 58.5t-32 48t-48 32t-58.5 11.5t-58.5 -11.5t-48 -32t-32 -48t-11.5 -58.5z" />
<glyph unicode="&#xec;" horiz-adv-x="617" d="M34 0h549v317h-116v730h116v317h-549v-317h116v-730h-116v-317zM35 1501h547l-480 268z" />
<glyph unicode="&#xed;" horiz-adv-x="617" d="M34 0h549v317h-116v730h116v317h-549v-317h116v-730h-116v-317zM34 1501h550l-73 266z" />
<glyph unicode="&#xee;" horiz-adv-x="617" d="M34 0h549v317h-116v730h116v317h-549v-317h116v-730h-116v-317zM105 1501l206 282l206 -282l-206 116z" />
<glyph unicode="&#xef;" horiz-adv-x="617" d="M-116 1651q0 -31 11.5 -58.5t32 -48t48 -32t58.5 -11.5t58.5 11.5t48 32t32 47.5t11.5 59q0 31 -11.5 58.5t-32 48t-47.5 32t-59 11.5q-31 0 -58.5 -11.5t-48 -32t-32 -48t-11.5 -58.5zM34 0h549v317h-116v730h116v317h-549v-317h116v-730h-116v-317zM434 1651 q0 -31 11.5 -58.5t32 -48t48 -32t58.5 -11.5t58.5 11.5t48 32t32.5 47.5t12 59q0 31 -12 58.5t-32.5 48t-47.5 32t-59 11.5q-31 0 -58.5 -11.5t-48 -32t-32 -48t-11.5 -58.5z" />
<glyph unicode="&#xf0;" d="M34 232l176 -233h519l176 233v586l-206 303l229 112l-41 85l-241 -118l-109 163h-327l179 -288l-243 -119l41 -85l253 123l118 -188h-348l-176 -234v-340zM351 289v226h203v-226h-203z" />
<glyph unicode="&#xf1;" horiz-adv-x="1028" d="M34 0v1364h318l290 -550v550h352v-1364h-352l-290 580v-580h-318zM276 1501q11 74 46 121q42 57 111 57q35 0 96 -28t87 -28q35 0 60 52h87q-10 -64 -43 -110q-41 -59 -99 -59q-37 0 -99 25t-92 25q-29 0 -44 -15q-10 -10 -20 -40h-90z" />
<glyph unicode="&#xf2;" d="M34 233v872l175 259h521l175 -234v-871l-175 -259h-521zM197 1501h546l-479 268zM351 317h203v730h-203v-730z" />
<glyph unicode="&#xf3;" d="M34 233v872l175 259h521l175 -234v-871l-175 -259h-521zM198 1501h550l-74 266zM351 317h203v730h-203v-730z" />
<glyph unicode="&#xf4;" d="M34 233v872l175 259h521l175 -234v-871l-175 -259h-521zM266 1501l206 273l207 -273l-207 106zM351 317h203v730h-203v-730z" />
<glyph unicode="&#xf5;" d="M34 233v872l175 259h521l175 -234v-871l-175 -259h-521zM242 1501q11 74 46 121q42 57 111 57q35 0 96 -28t87 -28q35 0 60 52h87q-10 -64 -44 -110q-41 -59 -98 -59q-37 0 -99 25t-92 25q-29 0 -44 -15q-10 -10 -20 -40h-90zM351 317h203v730h-203v-730z" />
<glyph unicode="&#xf6;" d="M34 233v872l175 259h521l175 -234v-871l-175 -259h-521zM48 1651q0 -31 11.5 -58.5t32 -48t48 -32t58.5 -11.5t58.5 11.5t48 32t32 47.5t11.5 59q0 31 -11.5 58.5t-32 48t-48 32t-58.5 11.5t-58.5 -11.5t-48 -32t-32 -48t-11.5 -58.5zM351 317h203v730h-203v-730z M598 1651q0 -31 11.5 -58.5t32 -48t48 -32t58.5 -11.5t58.5 11.5t48 32t32 47.5t11.5 59q0 31 -11.5 58.5t-32 48t-47.5 32t-59 11.5q-31 0 -58.5 -11.5t-48 -32t-32 -48t-11.5 -58.5z" />
<glyph unicode="&#xf8;" d="M-86 -154l82 -49l1008 1654l-82 50zM34 233l175 -233h521l175 259v871l-175 234h-521l-175 -259v-872zM351 317v730h203v-730h-203z" />
<glyph unicode="&#xf9;" d="M34 233v1131h321v-1073h229v1073h321v-1364h-696zM202 1501h546l-479 268z" />
<glyph unicode="&#xfa;" d="M34 233v1131h321v-1073h229v1073h321v-1364h-696zM218 1501h551l-74 266z" />
<glyph unicode="&#xfb;" d="M34 233v1131h321v-1073h229v1073h321v-1364h-696zM264 1501l206 273l206 -273l-206 106z" />
<glyph unicode="&#xfc;" d="M34 233v1131h321v-1073h229v1073h321v-1364h-696zM44 1651q0 -31 11.5 -58.5t32 -48t47.5 -32t59 -11.5q31 0 58.5 11.5t48 32t32 47.5t11.5 59q0 31 -11.5 58.5t-32 48t-48 32t-58.5 11.5t-58.5 -11.5t-48 -32t-32 -48t-11.5 -58.5zM594 1651q0 -31 11.5 -58.5t32 -48 t48 -32t58.5 -11.5t58.5 11.5t48 32t32 47.5t11.5 59q0 31 -11.5 58.5t-32 48t-47.5 32t-59 11.5q-31 0 -58.5 -11.5t-48 -32t-32 -48t-11.5 -58.5z" />
<glyph unicode="&#xfd;" d="M34 1364h351l85 -296l84 296h351l-274 -725v-639h-324v639zM208 1501h550l-74 266z" />
<glyph unicode="&#xfe;" d="M34 0h317v218h378l176 260v435l-176 234h-378v217h-317v-1364zM351 535v321h203v-321h-203z" />
<glyph unicode="&#xff;" d="M34 1364h351l85 -296l84 296h351l-274 -725v-639h-324v639zM42 1651q0 -31 12 -58.5t32 -48t47.5 -32t59.5 -11.5q31 0 58.5 11.5t47.5 32t32 47.5t12 59q0 31 -12 58.5t-32 48t-47.5 32t-58.5 11.5t-59 -11.5t-48 -32t-32 -48t-12 -58.5zM593 1651q0 -31 11.5 -58.5 t32 -48t47.5 -32t59 -11.5q31 0 58.5 11.5t48 32t32 47.5t11.5 59q0 31 -11.5 58.5t-32 48t-48 32t-58.5 11.5t-58.5 -11.5t-48 -32t-32 -48t-11.5 -58.5z" />
<glyph unicode="&#x152;" horiz-adv-x="1361" d="M34 233v872l175 259h1104v-291h-408v-202h408v-289h-408v-291h408v-291h-1104zM351 317h203v730h-203v-730z" />
<glyph unicode="&#x153;" horiz-adv-x="1361" d="M34 233v872l175 259h1104v-291h-408v-202h408v-289h-408v-291h408v-291h-1104zM351 317h203v730h-203v-730z" />
<glyph unicode="&#x178;" d="M34 1364h351l85 -296l84 296h351l-274 -725v-639h-324v639zM42 1651q0 -31 12 -58.5t32 -48t47.5 -32t59.5 -11.5q31 0 58.5 11.5t47.5 32t32 47.5t12 59q0 31 -12 58.5t-32 48t-47.5 32t-58.5 11.5t-59 -11.5t-48 -32t-32 -48t-12 -58.5zM593 1651q0 -31 11.5 -58.5 t32 -48t47.5 -32t59 -11.5q31 0 58.5 11.5t48 32t32 47.5t11.5 59q0 31 -11.5 58.5t-32 48t-48 32t-58.5 11.5t-58.5 -11.5t-48 -32t-32 -48t-11.5 -58.5z" />
<glyph unicode="&#x2c6;" d="M34 528h321l115 155l114 -155h321l-435 836z" />
<glyph unicode="&#x2da;" horiz-adv-x="716" d="M-272 394q0 -56 20.5 -104.5t56 -84.5t82.5 -58.5t102 -23.5h22q55 1 102 23.5t82.5 58.5t56 84.5t20.5 104.5t-21.5 106t-58.5 87t-86.5 58t-105.5 21t-106 -21t-87 -58t-58 -87t-21 -106zM-108 394q0 45 32 76.5t76 31.5t75 -31.5t31 -76.5t-31 -75.5t-75 -30.5 t-76 30.5t-32 75.5z" />
<glyph unicode="&#x2dc;" d="M242 1501q11 74 46 121q42 57 111 57q35 0 96 -28t87 -28q35 0 60 52h87q-10 -64 -44 -110q-41 -59 -98 -59q-37 0 -99 25t-92 25q-29 0 -44 -15q-10 -10 -20 -40h-90z" />
<glyph unicode="&#x400;" horiz-adv-x="793" d="M80 1803l317 -317v634h-317v-317zM34 -1v1364h725v-291h-408v-202h408v-290h-408v-291h408v-290h-725z" />
<glyph unicode="&#x401;" horiz-adv-x="793" d="M-14 1651q0 -31 12 -58.5t32.5 -48t47.5 -32t59 -11.5q31 0 58.5 11.5t48 32t32 47.5t11.5 59q0 31 -11.5 58.5t-32 48t-48 32t-58.5 11.5t-58.5 -11.5t-48 -32t-32.5 -48t-12 -58.5zM34 -1v1364h725v-291h-408v-202h408v-290h-408v-291h408v-290h-725zM537 1651 q0 -31 11.5 -58.5t32 -48t47.5 -32t59 -11.5q31 0 58.5 11.5t48 32t32 47.5t11.5 59q0 31 -11.5 58.5t-32 48t-48 32t-58.5 11.5t-58.5 -11.5t-48 -32t-32 -48t-11.5 -58.5z" />
<glyph unicode="&#x402;" horiz-adv-x="1182" d="M34 1073l89 291h812l-87 -291h-230v-336h317l175 -259v-639l-175 -234h-535l-102 291h435v525h-115v-421h-320v1073h-264z" />
<glyph unicode="&#x403;" d="M34 0v1364h871v-291h-550v-1073h-321zM202 1501h550l-73 266z" />
<glyph unicode="&#x404;" horiz-adv-x="880" d="M34 259v871l175 234h638l-48 -291h-388v-237h436l-48 -290h-388v-229h436l-48 -317h-590z" />
<glyph unicode="&#x405;" horiz-adv-x="969" d="M34 0h787l114 404l-435 669h348l87 291h-755l-89 -318l497 -699h-435z" />
<glyph unicode="&#x406;" horiz-adv-x="385" d="M34 0h317v1364h-317v-1364z" />
<glyph unicode="&#x407;" horiz-adv-x="385" d="M-229 1651q0 -31 11.5 -58.5t32 -48t47.5 -32t59 -11.5q31 0 58.5 11.5t48 32t32 47.5t11.5 59q0 31 -11.5 58.5t-32 48t-48 32t-58.5 11.5t-58.5 -11.5t-48 -32t-32 -48t-11.5 -58.5zM34 0h317v1364h-317v-1364zM321 1651q0 -31 11.5 -58.5t32 -48t48 -32t58.5 -11.5 t58.5 11.5t48 32t32 47.5t11.5 59q0 31 -11.5 58.5t-32 48t-48 32t-58.5 11.5t-58.5 -11.5t-48 -32t-32 -48t-11.5 -58.5z" />
<glyph unicode="&#x408;" d="M34 291h550v1073h321v-1131l-146 -233h-550z" />
<glyph unicode="&#x409;" horiz-adv-x="1433" d="M34 0h321l142 1073h87v-1073h604l176 233v436l-176 259h-283v436h-700zM905 291v321h149v-321h-149z" />
<glyph unicode="&#x40a;" horiz-adv-x="1307" d="M34 0v1364h317v-436h95v436h351v-436h271l176 -259v-436l-176 -233h-622v612h-95v-612h-317zM797 291h96v321h-96v-321z" />
<glyph unicode="&#x40b;" horiz-adv-x="1182" d="M34 1073l89 291h812l-87 -291h-230v-336h317l175 -259v-478h-377v421h-115v-421h-320v1073h-264z" />
<glyph unicode="&#x40c;" d="M34 0h317v580l203 -580h351l-280 725l280 639h-351l-203 -494v494h-317v-1364zM206 1501h550l-73 266z" />
<glyph unicode="&#x40d;" horiz-adv-x="1028" d="M195 1803l317 -317v634h-317v-317zM33 0h352l289 580v-580h319v1364h-319l-289 -550v550h-352v-1364z" />
<glyph unicode="&#x40e;" d="M34 0h351l520 1364h-351l-84 -206l-85 206h-351l280 -639zM85 1510q49 -70 176 -111q106 -35 209 -35q106 0 210 34q126 40 173 112v94q-131 -98 -382 -98q-254 0 -386 98v-94z" />
<glyph unicode="&#x40f;" d="M34 0h321v-273h229v273h321v1364h-321v-1073h-229v1073h-321v-1364z" />
<glyph unicode="&#x410;" d="M34 0h321v404h229v-404h321v1130l-146 234h-550l-175 -234v-1130zM355 695v378h229v-378h-229z" />
<glyph unicode="&#x411;" d="M34 0h695l176 233v436l-176 259h-378v147h554v289h-871v-1364zM351 291v321h203v-321h-203z" />
<glyph unicode="&#x412;" d="M34 -1v1365h695l176 -259v-357l-63 -83l63 -93v-340l-176 -233h-695zM351 289h203v226h-203v-226zM351 831h203v216h-203v-216z" />
<glyph unicode="&#x413;" d="M34 0v1364h871v-291h-550v-1073h-321z" />
<glyph unicode="&#x414;" d="M34 0v-273h343v273h207v-273h321v1637h-775l-48 -291h154zM434 289l149 784h1v-784h-150z" />
<glyph unicode="&#x415;" horiz-adv-x="793" d="M34 -1v1364h725v-291h-408v-202h408v-290h-408v-291h408v-290h-725z" />
<glyph unicode="&#x416;" horiz-adv-x="1541" d="M34 0h351l203 580v-580h317v580l204 -580h351l-280 725l280 639h-351l-204 -494v494h-317v-494l-203 494h-351l280 -639z" />
<glyph unicode="&#x417;" d="M34 291l96 -291h693l82 436l-95 290l95 246l-123 392h-652l-96 -291h541l34 -101l-48 -101h-240v-289h195l45 -146l-27 -145h-500z" />
<glyph unicode="&#x418;" horiz-adv-x="1028" d="M33 0h352l289 580v-580h319v1364h-319l-289 -550v550h-352v-1364z" />
<glyph unicode="&#x419;" horiz-adv-x="1028" d="M33 0h352l289 580v-580h319v1364h-319l-289 -550v550h-352v-1364zM132 1510q49 -70 177 -111q106 -35 208 -35q106 0 211 34q126 40 173 112v94q-131 -98 -382 -98q-254 0 -387 98v-94z" />
<glyph unicode="&#x41a;" d="M34 0h317v580l203 -580h351l-280 725l280 639h-351l-203 -494v494h-317v-1364z" />
<glyph unicode="&#x41b;" d="M34 0h321l142 1073h87v-1073h321v1364h-700z" />
<glyph unicode="&#x41c;" horiz-adv-x="1258" d="M34 0h321v668l232 -523h115l202 523v-668h321v1364h-378l-203 -493l-232 493h-378v-1364z" />
<glyph unicode="&#x41d;" d="M34 0h317v580h203v-580h351v1364h-351v-494h-203v494h-317v-1364z" />
<glyph unicode="&#x41e;" d="M34 233v872l175 259h521l175 -234v-871l-175 -259h-521zM351 317h203v730h-203v-730z" />
<glyph unicode="&#x41f;" d="M34 0h321v1073h229v-1073h321v1364h-871v-1364z" />
<glyph unicode="&#x420;" d="M34 0h317v436h378l176 259v435l-176 234h-695v-1364zM351 752v321h203v-321h-203z" />
<glyph unicode="&#x421;" horiz-adv-x="880" d="M34 259v871l175 234h638v-291h-436v-756h436v-317h-638z" />
<glyph unicode="&#x422;" horiz-adv-x="969" d="M34 1073l89 291h812l-87 -291h-230v-1073h-320v1073h-264z" />
<glyph unicode="&#x423;" d="M34 0h351l520 1364h-351l-84 -206l-85 206h-351l280 -639z" />
<glyph unicode="&#x424;" horiz-adv-x="1307" d="M34 478l176 -260h271v-218h316v220h271l176 259v436l-176 233h-271v216h-316v-217h-271l-176 -234v-435zM385 535v321h96v-321h-96zM797 537v320h96v-320h-96z" />
<glyph unicode="&#x425;" d="M34 0h351l85 242l84 -242h351l-280 725l280 639h-351l-84 -206l-85 206h-351l280 -639z" />
<glyph unicode="&#x426;" d="M34 0h582v-273h289v1637h-321v-1073h-229v1073h-321v-1364z" />
<glyph unicode="&#x427;" d="M34 580h520v-580h351v1364h-351v-494h-203v494h-317v-784z" />
<glyph unicode="&#x428;" horiz-adv-x="1227" d="M34 0h1154v1364h-321v-1073h-96v1073h-320v-1073h-96v1073h-321v-1364z" />
<glyph unicode="&#x429;" horiz-adv-x="1227" d="M34 0h864v-273h290v1637h-321v-1073h-96v1073h-320v-1073h-96v1073h-321v-1364z" />
<glyph unicode="&#x42a;" horiz-adv-x="1216" d="M34 1075h183v-1075h599l177 233v436l-177 259h-282v436h-500v-289zM534 291v321h149v-321h-149z" />
<glyph unicode="&#x42b;" d="M34 0v1364h317v-436h378l176 -259v-436l-176 -233h-695zM351 291h203v321h-203v-321z" />
<glyph unicode="&#x42c;" horiz-adv-x="1353" d="M34 0v1364h317v-436h378l176 -259v-436l-176 -233h-695zM351 291h203v321h-203v-321zM973 0h317v1364h-317v-1364z" />
<glyph unicode="&#x42d;" horiz-adv-x="880" d="M33 0h637l175 259v871l-175 234h-589l-48 -291h435v-237h-387l-48 -290h435v-229h-387z" />
<glyph unicode="&#x42e;" horiz-adv-x="1299" d="M34 0v1364h317v-494h95v235l175 259h440l175 -234v-871l-175 -259h-440l-175 233v347h-95v-580h-317zM763 317h122v730h-122v-730z" />
<glyph unicode="&#x42f;" horiz-adv-x="1054" d="M34 0l291 523l-176 172v435l176 234h695v-1364h-317v436h-59l-232 -436h-378zM500 752h203v321h-203v-321z" />
<glyph unicode="&#x430;" d="M34 0h321v404h229v-404h321v1130l-146 234h-550l-175 -234v-1130zM355 695v378h229v-378h-229z" />
<glyph unicode="&#x431;" d="M34 0h695l176 233v436l-176 259h-378v147h506l48 289h-871v-1364zM351 291v321h203v-321h-203z" />
<glyph unicode="&#x432;" d="M34 -1v1365h695l176 -259v-357l-63 -83l63 -93v-340l-176 -233h-695zM351 289h203v226h-203v-226zM351 831h203v216h-203v-216z" />
<glyph unicode="&#x433;" d="M34 0v1364h871l-48 -291h-502v-1073h-321z" />
<glyph unicode="&#x434;" d="M34 0v-273h343v273h207v-273h321v1637h-775l-48 -291h154zM434 289l149 784h1v-784h-150z" />
<glyph unicode="&#x435;" horiz-adv-x="793" d="M34 -1v1364h725l-48 -291h-360v-202h408l-48 -290h-360v-291h408l-48 -290h-677z" />
<glyph unicode="&#x436;" horiz-adv-x="1541" d="M34 0h351l203 580v-580h317v580l204 -580h351l-280 725l280 639h-351l-204 -494v494h-317v-494l-203 494h-351l280 -639z" />
<glyph unicode="&#x437;" d="M34 291l96 -291h693l82 436l-95 290l95 246l-123 392h-652l-96 -291h541l34 -101l-48 -101h-240v-289h195l45 -146l-27 -145h-500z" />
<glyph unicode="&#x438;" horiz-adv-x="1028" d="M33 0h352l289 580v-580h319v1364h-319l-289 -550v550h-352v-1364z" />
<glyph unicode="&#x439;" horiz-adv-x="1028" d="M33 0h352l289 580v-580h319v1364h-319l-289 -550v550h-352v-1364zM132 1510q49 -70 177 -111q106 -35 208 -35q106 0 211 34q126 40 173 112v94q-131 -98 -382 -98q-254 0 -387 98v-94z" />
<glyph unicode="&#x43a;" d="M34 0h317v580l203 -580h351l-280 725l280 639h-351l-203 -494v494h-317v-1364z" />
<glyph unicode="&#x43b;" d="M34 0h321l142 1073h87v-1073h321v1364h-700z" />
<glyph unicode="&#x43c;" horiz-adv-x="1258" d="M34 0h321v668l232 -523h115l202 523v-668h321v1364h-378l-203 -493l-232 493h-378v-1364z" />
<glyph unicode="&#x43d;" d="M34 0h317v580h203v-580h351v1364h-351v-494h-203v494h-317v-1364z" />
<glyph unicode="&#x43e;" d="M34 233v872l175 259h521l175 -234v-871l-175 -259h-521zM351 317h203v730h-203v-730z" />
<glyph unicode="&#x43f;" d="M34 0h321v1073h229v-1073h321v1364h-871v-1364z" />
<glyph unicode="&#x440;" d="M34 0h317v436h378l176 259v435l-176 234h-695v-1364zM351 752v321h203v-321h-203z" />
<glyph unicode="&#x441;" horiz-adv-x="880" d="M34 259v871l175 234h638l-48 -291h-388v-756h436l-48 -317h-590z" />
<glyph unicode="&#x442;" horiz-adv-x="969" d="M34 1073v291h901v-291h-317v-1073h-320v1073h-264z" />
<glyph unicode="&#x443;" d="M34 0h351l520 1364h-351l-84 -206l-85 206h-351l280 -639z" />
<glyph unicode="&#x444;" horiz-adv-x="1307" d="M34 478l176 -260h271v-218h316v220h271l176 259v436l-176 233h-271v216h-316v-217h-271l-176 -234v-435zM385 535v321h96v-321h-96zM797 537v320h96v-320h-96z" />
<glyph unicode="&#x445;" d="M34 0h351l85 242l84 -242h351l-280 725l280 639h-351l-84 -206l-85 206h-351l280 -639z" />
<glyph unicode="&#x446;" d="M34 0h582v-273h289v1637h-321v-1073h-229v1073h-321v-1364z" />
<glyph unicode="&#x447;" d="M34 580h520v-580h351v1364h-351v-494h-203v494h-317v-784z" />
<glyph unicode="&#x448;" horiz-adv-x="1227" d="M34 0h1154v1364h-321v-1073h-96v1073h-320v-1073h-96v1073h-321v-1364z" />
<glyph unicode="&#x449;" horiz-adv-x="1227" d="M34 0h864v-273h290v1637h-321v-1073h-96v1073h-320v-1073h-96v1073h-321v-1364z" />
<glyph unicode="&#x44a;" horiz-adv-x="1216" d="M34 1075h183v-1075h599l177 233v436l-177 259h-282v436h-452zM534 291v321h149v-321h-149z" />
<glyph unicode="&#x44b;" d="M34 0v1364h317v-436h378l176 -259v-436l-176 -233h-695zM351 291h203v321h-203v-321z" />
<glyph unicode="&#x44c;" horiz-adv-x="1353" d="M34 0v1364h317v-436h378l176 -259v-436l-176 -233h-695zM351 291h203v321h-203v-321zM973 0h317v1364h-317v-1364z" />
<glyph unicode="&#x44d;" horiz-adv-x="880" d="M33 0h637l175 259v871l-175 234h-589l-48 -291h435v-237h-387l-48 -290h435v-229h-387z" />
<glyph unicode="&#x44e;" horiz-adv-x="1299" d="M34 0v1364h317v-494h95v235l175 259h440l175 -234v-871l-175 -259h-440l-175 233v347h-95v-580h-317zM763 317h122v730h-122v-730z" />
<glyph unicode="&#x44f;" horiz-adv-x="1054" d="M34 0l291 523l-176 172v435l176 234h695v-1364h-317v436h-59l-232 -436h-378zM500 752h203v321h-203v-321z" />
<glyph unicode="&#x450;" horiz-adv-x="793" d="M80 1803l317 -317v634h-317v-317zM34 -1v1364h725l-48 -291h-360v-202h408l-48 -290h-360v-291h408l-48 -290h-677z" />
<glyph unicode="&#x451;" horiz-adv-x="793" d="M-14 1651q0 -31 12 -58.5t32.5 -48t47.5 -32t59 -11.5q31 0 58.5 11.5t48 32t32 47.5t11.5 59q0 31 -11.5 58.5t-32 48t-48 32t-58.5 11.5t-58.5 -11.5t-48 -32t-32.5 -48t-12 -58.5zM34 -1v1364h725v-291h-408v-202h408v-290h-408v-291h408v-290h-725zM537 1651 q0 -31 11.5 -58.5t32 -48t47.5 -32t59 -11.5q31 0 58.5 11.5t48 32t32 47.5t11.5 59q0 31 -11.5 58.5t-32 48t-48 32t-58.5 11.5t-58.5 -11.5t-48 -32t-32 -48t-11.5 -58.5z" />
<glyph unicode="&#x452;" horiz-adv-x="1182" d="M34 1073v291h901l-13 -291h-304v-336h317l175 -259v-639l-175 -234h-535l-102 291h435v525h-115v-421h-320v1073h-264z" />
<glyph unicode="&#x453;" d="M34 0v1364h871l-48 -291h-502v-1073h-321zM202 1501h550l-73 266z" />
<glyph unicode="&#x454;" horiz-adv-x="880" d="M34 259v871l175 234h638v-291h-436v-237h436v-290h-436v-229h436v-317h-638z" />
<glyph unicode="&#x455;" horiz-adv-x="1024" d="M34 347l96 -347h659l201 464l-201 318l-382 118l53 117h530l-96 347h-659l-201 -464l201 -318l382 -118l-53 -117h-530z" />
<glyph unicode="&#x456;" horiz-adv-x="617" d="M34 0h549v317h-116v730h116v317h-549v-317h116v-730h-116v-317z" />
<glyph unicode="&#x457;" horiz-adv-x="617" d="M-116 1651q0 -31 11.5 -58.5t32 -48t48 -32t58.5 -11.5t58.5 11.5t48 32t32 47.5t11.5 59q0 31 -11.5 58.5t-32 48t-47.5 32t-59 11.5q-31 0 -58.5 -11.5t-48 -32t-32 -48t-11.5 -58.5zM34 0h549v317h-116v730h116v317h-549v-317h116v-730h-116v-317zM434 1651 q0 -31 11.5 -58.5t32 -48t48 -32t58.5 -11.5t58.5 11.5t48 32t32.5 47.5t12 59q0 31 -12 58.5t-32.5 48t-47.5 32t-59 11.5q-31 0 -58.5 -11.5t-48 -32t-32 -48t-11.5 -58.5z" />
<glyph unicode="&#x458;" d="M34 0v291h550v1073h321v-1131l-146 -233h-725z" />
<glyph unicode="&#x459;" horiz-adv-x="1433" d="M34 0h321l142 1073h87v-1073h604l176 233v436l-176 259h-283v436h-700zM905 291v321h149v-321h-149z" />
<glyph unicode="&#x45a;" horiz-adv-x="1307" d="M34 0v1364h317v-436h95v436h351v-436h271l176 -259v-436l-176 -233h-622v612h-95v-612h-317zM797 291h96v321h-96v-321z" />
<glyph unicode="&#x45b;" horiz-adv-x="1182" d="M34 1073v291h901v-291h-317v-336h317l175 -259v-478h-377v421h-115v-421h-320v1073h-264z" />
<glyph unicode="&#x45c;" d="M34 0h317v580l203 -580h351l-280 725l280 639h-351l-203 -494v494h-317v-1364zM206 1501h550l-73 266z" />
<glyph unicode="&#x45d;" horiz-adv-x="1028" d="M195 1803l317 -317v634h-317v-317zM33 0h352l289 580v-580h319v1364h-319l-289 -550v550h-352v-1364z" />
<glyph unicode="&#x45e;" d="M34 0h351l520 1364h-351l-84 -206l-85 206h-351l280 -639zM85 1510q49 -70 176 -111q106 -35 209 -35q106 0 210 34q126 40 173 112v94q-131 -98 -382 -98q-254 0 -386 98v-94z" />
<glyph unicode="&#x45f;" d="M34 0h321v-273h229v273h321v1364h-321v-1073h-229v1073h-321v-1364z" />
<glyph unicode="&#x4ae;" d="M34 1364h351l85 -296l84 296h351l-274 -725v-639h-324v639z" />
<glyph unicode="&#x4c0;" horiz-adv-x="385" d="M34 0h317v1364h-317v-1364z" />
<glyph unicode="&#x4d4;" horiz-adv-x="1361" d="M34 0v1130l175 234h1100v-291h-404v-202h404v-289h-404v-291h404v-291h-725v404h-229v-404h-321zM355 695h229v378h-229v-378z" />
<glyph unicode="&#x4d5;" horiz-adv-x="1361" d="M34 0v1130l175 234h1100v-291h-404v-202h404v-289h-404v-291h404v-291h-725v404h-229v-404h-321zM355 695h229v378h-229v-378z" />
<glyph unicode="&#x2000;" horiz-adv-x="1059" />
<glyph unicode="&#x2001;" horiz-adv-x="2120" />
<glyph unicode="&#x2002;" horiz-adv-x="1059" />
<glyph unicode="&#x2003;" horiz-adv-x="2120" />
<glyph unicode="&#x2004;" horiz-adv-x="705" />
<glyph unicode="&#x2005;" horiz-adv-x="529" />
<glyph unicode="&#x2006;" horiz-adv-x="352" />
<glyph unicode="&#x2007;" horiz-adv-x="352" />
<glyph unicode="&#x2008;" horiz-adv-x="264" />
<glyph unicode="&#x2009;" horiz-adv-x="423" />
<glyph unicode="&#x200a;" horiz-adv-x="117" />
<glyph unicode="&#x2010;" horiz-adv-x="793" d="M34 580l48 290h677l-48 -290h-677z" />
<glyph unicode="&#x2011;" horiz-adv-x="793" d="M34 580l48 290h677l-48 -290h-677z" />
<glyph unicode="&#x2012;" horiz-adv-x="793" d="M34 580l48 290h677l-48 -290h-677z" />
<glyph unicode="&#x2013;" horiz-adv-x="1048" d="M34 580l48 290h912l-48 -290h-912z" />
<glyph unicode="&#x2014;" horiz-adv-x="1290" d="M34 580l48 290h1143l-48 -290h-1143z" />
<glyph unicode="&#x2018;" horiz-adv-x="385" d="M34 730v317l317 317v-634h-317z" />
<glyph unicode="&#x2019;" horiz-adv-x="385" d="M34 730v634h317v-317z" />
<glyph unicode="&#x201a;" horiz-adv-x="385" d="M34 0h317l-317 -317v317z" />
<glyph unicode="&#x201c;" horiz-adv-x="811" d="M34 730v317l317 317v-634h-317zM446 732v317l317 316v-633h-317z" />
<glyph unicode="&#x201d;" horiz-adv-x="811" d="M34 730v634h317v-317zM446 732v633h317v-316z" />
<glyph unicode="&#x201e;" horiz-adv-x="811" d="M34 -317v634h317v-317zM446 -315v633h317v-317z" />
<glyph unicode="&#x2020;" horiz-adv-x="1058" d="M34 859h331v-1132h289v1132h330v289h-330v216h-289v-216h-331v-289z" />
<glyph unicode="&#x2021;" horiz-adv-x="1058" d="M34 -57h331v-216h289v216h330v289h-330v627h330v289h-330v216h-289v-216h-331v-289h331v-627h-331v-289z" />
<glyph unicode="&#x2022;" horiz-adv-x="815" d="M34 683q0 -74 28 -139t76 -112.5t112.5 -75.5t138.5 -28t139.5 28t113 75.5t75.5 112.5t28 139t-28 139t-75.5 113t-113 76t-139.5 28t-138.5 -28t-112.5 -76t-76 -113t-28 -139z" />
<glyph unicode="&#x2026;" horiz-adv-x="1236" d="M34 0v317h317v-317h-317zM446 0v317h317v-317h-317zM859 0v317h317v-317h-317z" />
<glyph unicode="&#x202f;" horiz-adv-x="423" />
<glyph unicode="&#x2039;" d="M34 683l836 -436v321l-155 115l155 114v321z" />
<glyph unicode="&#x203a;" d="M34 247v321l154 115l-154 114v321l836 -435z" />
<glyph unicode="&#x205f;" horiz-adv-x="529" />
<glyph unicode="&#x20ac;" horiz-adv-x="880" d="M-137 487h171v-228l175 -259h638v317h-436v170h87l48 178h-135v63h87l48 177h-135v168h436v291h-638l-175 -234v-225h-123l-48 -177h171v-63h-123z" />
<glyph unicode="&#x2122;" horiz-adv-x="2228" d="M1003 0h321v668l232 -523h115l202 523v-668h321v1364h-378l-203 -493l-232 493h-378v-1364zM34 1073l89 291h812l-87 -291h-230v-1073h-320v1073h-264z" />
<glyph unicode="&#xe000;" horiz-adv-x="1365" d="M0 1365h1365v-1365h-1365v1365z" />
<glyph unicode="&#xfb01;" horiz-adv-x="1410" d="M827 0h549v317h-116v730h116v317h-549v-317h116v-730h-116v-317zM34 0h317v493h408v289h-408v291h408v291h-725v-1364z" />
<glyph unicode="&#xfb02;" horiz-adv-x="1732" d="M827 0h871v291h-550v1073h-321v-1364zM34 0h317v493h408v289h-408v291h408v291h-725v-1364z" />
<glyph unicode="&#xfb03;" horiz-adv-x="2203" d="M1621 0h549v317h-116v730h116v317h-549v-317h116v-730h-116v-317zM827 0h317v493h408v289h-408v291h408v291h-725v-1364zM34 0h317v493h408v289h-408v291h408v291h-725v-1364z" />
<glyph unicode="&#xfb04;" horiz-adv-x="2525" d="M1621 0h871v291h-550v1073h-321v-1364zM827 0h317v493h408v289h-408v291h408v291h-725v-1364zM34 0h317v493h408v289h-408v291h408v291h-725v-1364z" />
</font>
</defs>
</svg>
