<?xml version="1.0" standalone="no"?>
<!DOCTYPE svg PUBLIC "-//W3C//DTD SVG 1.1//EN" "http://www.w3.org/Graphics/SVG/1.1/DTD/svg11.dtd" >
<svg xmlns="http://www.w3.org/2000/svg">
<metadata>
This is a custom SVG webfont generated by Font Squirrel.
Copyright   : Copyright c 2009 by Peter Wiegel Licensed under Creative Commons Attribution 30 Germany This Font is EMailWare Please mail your comment or donate via PayPal to wiegelpeterwiegelde 
Foundry     : c CAT  Ing Peter Wiegel  for Rudolf Maass  Partner GmbH
</metadata>
<defs>
<font id="Maassslicer3DRegular" horiz-adv-x="1249" >
<font-face units-per-em="2048" ascent="1638" descent="-410" />
<missing-glyph horiz-adv-x="829" />
<glyph unicode=" "  horiz-adv-x="829" />
<glyph unicode="&#x09;" horiz-adv-x="829" />
<glyph unicode="&#xa0;" horiz-adv-x="829" />
<glyph unicode="!" horiz-adv-x="575" d="M-500 -31l92 344h322l-2 -12l96 -96l-86 -332h-311l-96 96h-15zM-459 0h258l74 283h-256zM-375 465l346 1339h359l-4 -12l98 -96l-342 -1327h-346l-96 96h-15zM-334 496h293l330 1278h-293z" />
<glyph unicode="&#x22;" horiz-adv-x="952" d="M-156 1313l136 495h321l-4 -12l98 -96l-131 -483h-309l-96 96h-15zM-115 1343h256l119 435h-256zM338 1309l135 495h322l-4 -12l98 -96l-131 -484h-309l-97 97h-14zM379 1339h256l119 435h-256z" />
<glyph unicode="#" horiz-adv-x="1910" d="M-365 379l86 305h115l-78 78h-14l86 305h428q16 68 36.5 142.5t41.5 146.5l12 45q6 23 12 43h359l-4 -12l96 -97l29 109h358l-4 -12l98 -97l-71 -268h297l-5 -12l99 -97l-82 -292h-119l90 -91l-82 -292h-405q-27 -100 -51.5 -206t-51.5 -204h-346l-96 96h-12l-25 -96 h-346l-96 96h-15l80 314h-309l-96 96h-15zM-324 410h445l-105 -410h293l369 1413h-293l-100 -377h-432l-68 -243h436l-37 -140h-440zM496 0h292l105 410h405l68 243h-410l37 140h416l68 243h-420l100 377h-293z" />
<glyph unicode="$" horiz-adv-x="1325" d="M-494 -31l91 346h391q16 66 31.5 128.5t31.5 123.5q14 51 28.5 108.5t31.5 117.5q-25 12 -46.5 26.5t-39.5 36.5l-60 59q-47 31 -80 76q-29 41 -45 88t-16 101q0 43 8 77q10 39 21.5 77t21.5 79q10 39 22.5 78t22.5 78q16 53 42 95t71 75q88 66 192 65h148q6 18 11 41 t9 45q4 16 6 31.5t7 28.5h360l-4 -13l98 -96l-10 -37h270l-4 -12l98 -96l-84 -332h-393q-23 -84 -42 -157.5t-40 -151.5q37 -16 70 -42t55 -55q4 -4 6 -8l5 -8l61 -59q8 -8 14 -15.5t13 -15.5q59 -82 59 -186q0 -18 -2 -37t-8 -39h2q-31 -123 -62.5 -243t-62.5 -243 q-29 -106 -111 -167q-86 -63 -190 -64h-150q-8 -31 -17 -65.5t-15 -63.5h-347l-96 96h-14l10 33h-258l-96 96h-15zM-453 0h392l-33 -129h293l32 129h170q98 0 177 59q76 59 100 154l125 485q8 31 8 70q0 94 -55 172q-53 72 -146 100l-104 33l108 418h394l71 283h-393l39 145 h-293l-37 -145h-170q-96 0 -174 -60q-39 -29 -62.5 -67.5t-37.5 -85.5l-88 -312q-8 -31 -8 -69q0 -96 55 -170q53 -74 143 -103l111 -35l-152 -587h-391zM152 1227q0 12 2 16l57 195q16 53 70 53h41l-89 -342l-30 10q-51 17 -51 68zM305 285l131 512l27 -9q49 -16 49 -65 q0 -14 -2 -18l-94 -367q-12 -53 -70 -53h-41z" />
<glyph unicode="%" horiz-adv-x="2052" d="M-193 1219q0 43 9 77l67 260q29 102 111 168q88 68 192 68h236q131 0 221 -90q12 -12 22.5 -25.5t20.5 -25.5l55 -56q41 -43 63.5 -90t26.5 -104l228 403h362l-6 -10l98 -98l-483 -852q12 2 24.5 3t24.5 1h234q133 0 223 -90q12 -12 22.5 -25.5t20.5 -25.5l55 -56 q90 -90 90 -221q0 -18 -2 -36.5t-8 -39.5h2q-14 -59 -29.5 -116.5t-29.5 -116.5q-31 -119 -123 -187l-2 3q-96 -74 -209 -74h-207q-129 0 -217 88l-59 57q-12 10 -24.5 19.5t-22.5 21.5q-90 90 -93 207l-223 -393h-348l-96 96h-17l482 854q-35 -6 -68 -6h-205 q-131 0 -219 88l-57 57q-12 10 -24.5 19.5t-24.5 21.5q-93 93 -93 226zM-162 1219q0 -123 82 -205q80 -80 203 -80h205q111 0 196 67q84 63 113 173l59 233q8 31 9 72q0 121 -82 202q-80 80 -201 80h-236q-96 0 -174 -59q-74 -59 -98 -154l-68 -260q-8 -30 -8 -69zM68 -10 h292l1010 1784h-293zM143 1288q0 12 2 19l29 118q12 53 68 54h133q37 0 37 -37q0 -6 -2 -8l-41 -162q-12 -53 -68 -53h-86q-72 -1 -72 69zM283 1249h18q14 0 23.5 9.5t13.5 21.5q4 16 8 33.5t8 38.5h-10q-33 0 -43 -35zM731 272q0 -121 82 -202q80 -80 201 -80h207 q111 0 196 67q86 66 113 172l59 234q8 31 8 69q0 123 -81 205q-80 80 -203 80h-234q-96 0 -174 -59q-76 -57 -100 -154l-66 -260q-8 -31 -8 -72zM1036 344v18l29 117q12 53 70 53h133q35 0 35 -34q0 -6 -3 -9l-38 -163q-12 -53 -70 -54h-86q-70 0 -70 72zM1174 303h18 q16 0 25.5 9.5t13.5 21.5q4 16 8 33.5t8 38.5h-10q-16 0 -28.5 -10.5t-16.5 -24.5q-4 -18 -9 -35t-9 -33z" />
<glyph unicode="&#x26;" horiz-adv-x="1628" d="M-401 285v13q0 9 2 15q2 8 3 18.5t3 20.5q2 6 2 11.5t2 11.5q4 35 16.5 68.5t30.5 68.5q41 78 90 121l375 297q-25 43 -48.5 83t-45.5 83v-2q-25 41 -48.5 85t-46.5 87q-16 31 -26 71.5t-10 81.5q0 45 8 80q2 12 4 22.5t6 20.5t5 22.5t5 22.5q0 4 2 8q0 6 4 9 q4 16 12.5 32.5t14.5 26.5q6 18 19.5 34.5t29.5 28.5l9 10q5 5 8 5q82 59 186 59h567q131 0 215 -90q10 -10 17.5 -20.5t13.5 -20.5l68 -65q82 -88 82 -215l-11 -78l-26 -111q-23 -96 -109 -164l-369 -293q10 -18 19.5 -34.5t19.5 -30.5q12 12 24.5 23.5t27.5 25.5 q20 18 39.5 37.5t37.5 36.5h418l-10 -10l98 -99l-391 -407q59 -94 127 -206t125 -204h-440l-47 47q-72 -47 -170 -47h-521q-131 0 -219 88l-57 57q-12 10 -24.5 19.5t-24.5 21.5q-92 93 -92 224zM-371 285q0 -121 82 -203q80 -80 203 -80h520q117 0 193 70l39 -70h383 l-240 389l365 379h-334l-168 -158l-146 240l385 305q78 61 99 152l26 112l11 72q0 115 -76 197q-78 80 -193 79h-567q-102 0 -172 -55q-18 -16 -31.5 -29.5t-19.5 -29.5q-10 -20 -17.5 -40l-13.5 -36l-20 -88q-4 -20 -6.5 -37.5t-2.5 -34.5q0 -78 35 -139l199 -356 l-393 -314q-41 -33 -82 -110q-35 -68 -45 -131q-4 -33 -7.5 -53.5t-5.5 -30.5zM-63 354q10 35 28 49l336 271l160 -285q14 -25 4 -51q-23 -55 -70 -55h-389q-69 -1 -69 71zM121 313h274q25 0 41 35q4 18 -4 29l-72 129zM213 1430q10 63 53 63h453q31 0 35 -43q2 -51 -37 -84 l-332 -262l-162 291q-10 17 -10 35zM340 1323q0 -10 6 -18l76 -136l246 197h-299q-10 0 -17.5 -12.5t-11.5 -30.5z" />
<glyph unicode="'" horiz-adv-x="507" d="M-160 1313l135 495h322l-4 -12l98 -96l-131 -483h-309l-96 96h-15zM-119 1343h256l119 435h-256z" />
<glyph unicode="(" horiz-adv-x="804" d="M-362 285q0 23 3 41t7 36l311 1207q14 53 41 94t72 76q88 66 192 65h330l-4 -12l98 -96l-86 -332h-180q-35 0 -45 -35l-262 -1014h94l-4 -12l98 -96l-88 -334h-160q-131 0 -219 88l-57 57q-12 10 -24.5 19.5t-24.5 21.5q-92 93 -92 226zM-332 285q0 -123 82 -205 q80 -80 203 -80h139l76 285h-125q-70 0 -70 69q0 12 2 19l275 1065q12 53 69 53h160l74 283h-289q-96 0 -174 -60q-76 -57 -100 -153l-312 -1207q-10 -36 -10 -69z" />
<glyph unicode=")" horiz-adv-x="737" d="M-496 -31l90 346h185q16 0 25.5 9.5t13.5 21.5q63 252 130.5 508t131.5 510h-80l-96 96h-15l91 344h165q131 0 224 -90q12 -12 22 -25.5t21 -25.5l55 -55q90 -90 90 -219q0 -37 -10 -78l-311 -1207q-29 -106 -111 -167q-86 -63 -188 -64h-322l-96 96h-15zM-455 0h289 q96 0 174 59q76 57 101 154l311 1206q10 37 10 72q0 121 -82 203q-84 80 -203 80h-141l-74 -283h123q72 0 72 -72q0 -12 -2 -18l-275 -1063q-12 -53 -69 -53h-160z" />
<glyph unicode="*" horiz-adv-x="1243" d="M-453 455l199 186l-78 78h-14l86 305h190q-4 8 -9 16.5t-9 16.5q-31 55 -64.5 117.5t-60.5 109.5h403l17 -29l82 -79l8 -15q14 12 27 25l24 24q20 18 40 38t38 36h418l-10 -10l98 -98l-168 -175l86 -86l-82 -292h-139q39 -61 84 -135t80 -130h-443l-98 97h-8l-2 2 q-25 -25 -50.5 -51.5t-48.5 -49.5l-479 2l-96 97h-21zM-377 485l408 -2l149 154l84 -152h383l-164 265h164l68 243h-193l250 260h-334l-168 -157l-96 157h-334l144 -260h-222l-67 -243h209z" />
<glyph unicode="+" horiz-adv-x="872" d="M-401 741l86 306h161q10 37 21.5 78.5t21.5 82.5q4 20 11.5 41t11.5 37h324l-5 -12l99 -96l-35 -131h76l-4 -13l98 -96l-82 -293h-186q-14 -55 -32 -120.5t-32 -118.5h-311l-96 96h-15l39 143h-41l-96 96h-14zM-360 772h178l-66 -240h258l64 240h188l68 244h-199l64 239 h-258l-64 -239h-166z" />
<glyph unicode="," horiz-adv-x="555" d="M-543 -182l135 495h322l-2 -12l96 -96l-131 -484h-309l-96 97h-15zM-502 -152h256l119 435h-256z" />
<glyph unicode="-" horiz-adv-x="974" d="M-238 979l86 305h795l-4 -12l98 -96l-82 -293h-782l-96 96h-15zM-197 1010h732l67 243h-731z" />
<glyph unicode="." horiz-adv-x="387" d="M-584 -31l92 344h322l-2 -12l96 -96l-88 -332h-309l-96 96h-15zM-543 0h256l76 283h-256z" />
<glyph unicode="/" horiz-adv-x="1077" d="M-514 -31l1042 1846h363l-6 -11l98 -98l-1036 -1833h-348l-97 96h-16zM-463 0h293l1010 1784h-293z" />
<glyph unicode="0" horiz-adv-x="1193" d="M-416 285q0 23 3 41t7 36l312 1207q14 53 40.5 94t71.5 76q88 66 193 65h451q131 0 221 -90q12 -12 22 -25.5t21 -25.5l55 -55q90 -90 90 -219q0 -18 -2 -38t-8 -40h2q-76 -297 -152.5 -590t-152.5 -590q-31 -119 -123 -186l-2 2q-96 -74 -209 -74h-422q-127 0 -219 86 l-62 61q-23 14 -45 37q-92 93 -92 228zM-385 285q0 -123 82 -205q82 -80 203 -80h422q111 0 196 68q86 66 113 172l305 1179q8 31 8 72q0 121 -82 203q-80 80 -200 80h-451q-96 0 -174 -60q-76 -57 -100 -153l-312 -1207q-10 -36 -10 -69zM-80 354q0 12 2 19l275 1065 q12 53 69 53h348q37 0 37 -37q0 -6 -2 -8l-287 -1108q-12 -53 -67 -53h-303q-72 -1 -72 69zM61 315h234q14 0 23.5 9.5t13.5 21.5q66 252 132 507t132 511h-227q-35 0 -45 -35z" />
<glyph unicode="1" horiz-adv-x="796" d="M-324 -31l365 1409h-41l-96 97h-15l86 329h535l-4 -12l98 -96l-471 -1823h-346l-96 96h-15zM-283 0h293l459 1774h-469l-70 -269h176z" />
<glyph unicode="2" d="M-502 -31l207 795q25 80 78 137t133 84l616 189q6 4 14.5 12t12.5 16l41 162h-606l-96 96h-15l90 344h754q102 0 197 -116q2 -6 10 -15l53 -53q10 -10 18.5 -19.5t16.5 -19.5q31 -43 48 -85t17 -83q0 -27 -8 -49h2q-25 -98 -50 -193.5t-50 -193.5q-41 -164 -209 -217 l-614 -189q-25 -10 -31 -34l-57 -222h618l-4 -12l98 -96l-84 -334h-1089l-96 96h-15zM-461 0h1036l72 285h-741l94 360q8 39 47 51l617 189q150 45 190 200l100 388q6 18 7 43q0 74 -62 153q-80 104 -172 105h-729l-74 -283h694q16 0 29 -18q10 -16 6 -33l-63 -246 q-8 -37 -47 -49l-617 -189q-150 -45 -190 -200z" />
<glyph unicode="3" horiz-adv-x="1204" d="M-504 -31l94 344h705q14 0 23.5 9.5t13.5 21.5q23 88 45 181t45 186h-350l-97 96h-14l86 342h455q14 4 29.5 19.5t23.5 29.5l41 162h-604l-96 96h-15l86 348l692 -4q61 0 118 -24.5t104 -65.5q10 -12 20 -23.5t19 -23.5l65 -64q84 -84 84 -215q0 -18 -2 -37.5t-8 -39.5h2 l-86 -332q-12 -47 -32.5 -84t-55.5 -66q14 -43 14 -96q0 -18 -2 -36.5t-8 -39.5h2q-35 -137 -72 -274t-71 -275q-14 -51 -42 -94t-69 -73q-86 -63 -188 -64h-844l-96 96h-15zM-463 0h811q96 0 174 59q76 57 101 154l143 549q8 31 8 69q0 55 -20 105q70 57 94 147l86 332 q8 31 8 72q0 121 -82 201q-82 82 -201 81l-665 5l-72 -287h692q35 0 35 -37v-8l-63 -252q-25 -59 -82 -72h-430l-72 -280h428q45 6 45 -37q0 -14 -6 -33l-107 -432q-12 -53 -67 -53h-680z" />
<glyph unicode="4" horiz-adv-x="1284" d="M-299 748l270 1056h359l-4 -12l98 -96l-148 -594h254q23 86 45.5 171t45.5 175t47 180t47 176h358l-4 -12l98 -96l-471 -1823h-346l-96 96h-14l178 682h-606l-97 97h-14zM-258 778h741l-202 -778h292l459 1774h-293l-182 -703h-440l172 703h-293z" />
<glyph unicode="5" horiz-adv-x="1167" d="M-494 -31l91 346h583q16 0 25.5 9.5t13.5 21.5q23 84 43.5 169t42.5 169q-113 35 -229.5 72t-225.5 69l-92 93l-18 6l278 876h936l-4 -12l99 -96l-84 -328h-617q-16 -57 -35.5 -118.5t-36.5 -123.5l177 -53q104 -33 161 -111q4 -4 7 -8l4 -8l61 -59q8 -8 14.5 -15.5 t12.5 -15.5q59 -82 59 -186q0 -18 -2 -37t-8 -39h2q-31 -123 -62.5 -243t-62.5 -243q-29 -106 -111 -167q-86 -63 -190 -64h-721l-96 96h-15zM-453 0h689q98 0 176 59q76 59 100 154l125 485q8 31 8 70q0 94 -55 172q-53 72 -146 100l-319 97l100 354h617l71 278h-874 l-260 -825l518 -156q49 -16 49 -65q0 -14 -2 -18l-94 -367q-12 -53 -70 -53h-559z" />
<glyph unicode="6" horiz-adv-x="1296" d="M-430 293l289 1139q29 102 49 143q61 111 148 171t194 60h735l-4 -12l98 -96l-88 -332h-641q-29 0 -35 -25q-14 -51 -27.5 -102t-25.5 -102q25 -10 50.5 -18.5t52.5 -18.5q55 -20 109 -40t110 -40q98 -39 143 -111l66 -65q74 -74 73 -203q0 -39 -10 -84l-84 -313 q-10 -12 -10 -16.5t-2 -12.5q-4 -10 -8 -24.5t-9 -30.5q-6 -16 -11 -30.5t-9 -27.5q-20 -53 -47 -94t-62 -69q-82 -66 -188 -66h-440q-129 0 -213 84l-64 61q-27 20 -47 43q-43 47 -67.5 106.5t-24.5 125.5zM-399 285q0 -121 82 -203q80 -82 200 -82h441q100 0 174 59 q63 51 100 154q10 25 14 41t9 25q10 33 15 51t9 26l84 310q10 41 10 77q0 186 -166 248l-460 168l75 291q12 43 60 43h620l76 283h-694q-201 0 -313 -215q-23 -41 -48 -138zM-106 319l135 519l379 -140q31 -12 20 -49l-82 -309l-78 -55h-338q-36 -1 -36 34zM47 315h211 q4 4 11 7.5t12 7.5q10 6 18 11t18 15l68 258q-59 23 -116.5 44.5t-118.5 43.5q-27 -98 -52.5 -193.5t-50.5 -193.5z" />
<glyph unicode="7" horiz-adv-x="1343" d="M-125 1460l92 344h1163l-4 -12l99 -96l-84 -318l-795 -1505h-350l-96 96h-17l735 1395h-632l-97 96h-14zM-84 1491h807l-789 -1491h293l789 1491l74 283h-1098z" />
<glyph unicode="8" horiz-adv-x="1419" d="M-401 285v13q0 9 2 15q2 8 3 18.5t3 20.5q2 6 2 11.5t2 11.5q4 35 16.5 68.5t30.5 68.5q41 78 90 121l375 297q-25 43 -48.5 83t-45.5 83v-2q-25 41 -48.5 85t-46.5 87q-16 31 -26 71.5t-10 81.5q0 45 8 80q2 12 4 22.5t6 20.5t5 22.5t5 22.5q0 4 2 8q0 6 4 9 q4 16 12.5 32.5t14.5 26.5q6 18 19.5 34.5t29.5 28.5l9 10q5 5 8 5q82 59 186 59h567q131 0 215 -90q10 -10 17.5 -20.5t13.5 -20.5l68 -65q82 -88 82 -215l-11 -78l-26 -111q-23 -96 -109 -164l-369 -293q45 -82 92.5 -165.5t92.5 -163.5q41 -72 41 -152q0 -31 -11 -76 q-86 -311 -339 -311l-519 -2q-129 0 -219 90l-55 55q-12 10 -25.5 20.5t-25.5 22.5q-92 93 -92 224zM-371 285q0 -121 82 -203t203 -82l518 2q236 0 316 293q10 41 10 70q0 74 -37 139l-195 348l385 305q78 61 99 152l26 112l11 72q0 115 -76 197q-78 80 -193 79h-567 q-102 0 -172 -55q-18 -16 -31.5 -29.5t-19.5 -29.5q-10 -20 -17.5 -40l-13.5 -36l-20 -88q-4 -20 -6.5 -37.5t-2.5 -34.5q0 -78 35 -139l199 -356l-393 -314q-41 -33 -82 -110q-35 -68 -45 -131q-4 -33 -7.5 -53.5t-5.5 -30.5zM-63 354q10 35 28 49l336 271l160 -285 q14 -25 4 -51q-23 -53 -70 -53l-389 -2q-69 -1 -69 71zM123 313l272 2q29 0 41 33q6 14 -4 29l-72 129zM213 1430q8 61 53 61l453 2q31 0 35 -43q2 -51 -37 -84l-332 -262l-162 291q-10 17 -10 35zM340 1323q0 -10 6 -18l76 -136l244 195h-297q-10 0 -17.5 -12.5 t-11.5 -28.5z" />
<glyph unicode="9" horiz-adv-x="1323" d="M-440 -31l90 344h647q8 0 15 7.5t12 15.5v-2q6 27 12 52.5t14 51.5q12 57 27 105q-80 29 -158 58.5t-156 57.5q-61 25 -102 66l-61 61q-59 39 -92 100.5t-33 143.5q0 23 3 43.5t7 42.5l84 305l9 28q7 22 18 56l6 17q2 2 2 6q0 6 2 10q4 8 6 16.5t6 18.5q47 121 109 164 q94 70 192 69h440q133 0 224 -90l20 -24q10 -12 19 -25l59 -57q90 -90 90 -228l-291 -1138q-14 -49 -25.5 -85t-21.5 -59q-61 -113 -131 -166q-80 -61 -205 -61h-727l-96 96h-14zM-399 0h694q115 0 190 57q63 49 123 158q10 20 21.5 55t23.5 82l291 1139q0 123 -82 205 q-80 80 -203 80h-440q-94 0 -174 -62q-55 -43 -98 -151q-6 -16 -11.5 -34t-11.5 -34q-25 -74 -24 -76l-84 -309q-10 -45 -11 -80q0 -186 164 -246l461 -168l-76 -290q-12 -43 -57 -43h-623zM115 1126l82 310l77 55h340q35 0 35 -37l-135 -516l-379 137q-28 12 -20 51z M254 1065l68 -25q43 -16 82.5 -30.5t87.5 -30.5q16 59 30.5 118.5t30.5 119.5q10 35 19.5 71.5t19.5 75.5h-207q-16 -12 -31.5 -22.5t-31.5 -22.5zM623 1462l2 -2q0 2 -2 2z" />
<glyph unicode=":" horiz-adv-x="1007" d="M-500 -31l92 344h322l-2 -12l96 -96l-86 -332h-311l-96 96h-15zM-459 0h258l74 283h-256zM-373 475l92 342h322l-4 -12l98 -96l-86 -330h-311l-96 96h-15zM-332 506h258l74 280h-256z" />
<glyph unicode=";" horiz-adv-x="1007" d="M-543 -182l135 495h322l-2 -12l96 -96l-131 -484h-309l-96 97h-15zM-502 -152h256l119 435h-256zM-373 475l92 342h322l-4 -12l98 -96l-86 -330h-311l-96 96h-15zM-332 506h258l74 280h-256z" />
<glyph unicode="&#x3c;" horiz-adv-x="1019" d="M-485 885l958 923h420l-10 -10l98 -98l-928 -930q160 -217 331 -448.5t331 -448.5h-436l-97 96h-8zM-444 883l632 -883h375l-645 874l901 904h-334z" />
<glyph unicode="=" horiz-adv-x="974" d="M-371 489l86 306h795l-4 -13l98 -96l-82 -293h-782l-96 96h-15zM-330 520h731l68 244h-731zM-238 979l86 305h795l-4 -12l98 -96l-82 -293h-782l-96 96h-15zM-197 1010h732l67 243h-731z" />
<glyph unicode="&#x3e;" horiz-adv-x="1019" d="M-518 -31l934 936q-133 180 -275.5 372.5t-277.5 379.5q-27 35 -56.5 76t-56.5 75h451l20 -30l80 -78l653 -909l-952 -918h-403l-97 96h-20zM-444 0h333l930 895l-633 883h-374l645 -875z" />
<glyph unicode="?" d="M-145 -31l90 344h323l-4 -12l98 -96l-88 -332h-309l-96 96h-14zM-117 1460l90 344h754q102 0 197 -116q2 -6 10 -15l53 -53q10 -10 18.5 -19.5t16.5 -19.5q31 -43 48 -85t17 -83q0 -27 -8 -49h2q-25 -98 -50 -193.5t-50 -193.5q-43 -174 -209 -219l-244 -70h-2 q-18 -8 -26 -31q-16 -74 -37 -165t-37 -162h-356l-97 96h-14l117 459q23 86 77 141t138 80q29 8 59.5 16t61.5 19q31 10 62.5 17t60.5 18q18 2 24 26l41 162h-606l-96 96h-15zM-104 0h256l75 283h-258zM-76 1491h694q16 0 29 -18q10 -16 6 -33l-63 -246q-8 -39 -47 -49 l-244 -70q-154 -43 -193 -198l-106 -420h303l70 309q8 37 47 49l244 70q150 43 190 200l100 388q6 18 7 43q0 74 -62 153q-80 104 -172 105h-729z" />
<glyph unicode="@" horiz-adv-x="1652" d="M-328 285q0 23 3 41t8 36l311 1207q14 53 40.5 94t71.5 76q88 66 193 65h846q131 0 221 -90q12 -12 22.5 -25.5t20.5 -25.5l55 -55q90 -90 90 -219q0 -49 -10 -78h2q-61 -246 -126.5 -498t-127.5 -498h-116l-5 -12l99 -96l-88 -334h-1092q-131 0 -219 88l-57 57 q-12 10 -24.5 19.5t-25.5 21.5q-92 93 -92 226zM-297 285q0 -123 82 -205q80 -80 203 -80h1071l76 285h-1057q-70 0 -70 69q0 12 2 19l275 1065q12 53 69 53h744q37 0 37 -41l-43 -176l-654 -199q-154 -47 -192 -201l-111 -432h1034l250 977q8 27 8 72q0 121 -81 203 q-80 80 -201 80h-846q-96 0 -174 -60q-76 -57 -100 -153l-312 -1207q-10 -36 -10 -69zM150 315h55l-43 43zM342 1063q39 25 88 41q82 25 161 48.5t159 47.5q76 23 157.5 49.5t159.5 48.5q4 16 6 33t6 33h-622q-35 0 -45 -35zM502 727l8 39q8 37 47 49l451 139l-58 -227h-448 zM885 758h39q0 8 2 10z" />
<glyph unicode="A" horiz-adv-x="1200" d="M-475 -31l205 795q23 84 77 140.5t136 80.5l637 195l47 184h-535l-96 96h-14l90 344h620q129 0 221 -92q12 -12 22.5 -25.5t20.5 -25.5l56 -55q90 -90 90 -217q0 -49 -10 -78h2q-92 -356 -185.5 -719t-185.5 -719h-1088l-96 96h-14zM-434 0h1034l367 1419q4 14 6 31.5 t2 40.5q0 119 -82 201t-201 82h-596l-73 -283h622q37 0 37 -41l-76 -295l-653 -199q-152 -45 -193 -200zM-68 285l93 362q10 37 47 49l450 140l-141 -551h-449zM94 315h264q18 68 33 131.5t31 124.5l18 80l-258 -80q-25 -10 -30 -32z" />
<glyph unicode="B" horiz-adv-x="1202" d="M-498 -31l475 1837l705 -2q160 0 246 -123q2 -4 6 -8l57 -57q18 -20 35 -41q57 -86 57 -180q0 -23 -3 -43.5t-7 -40.5l-86 -334q-10 -43 -31.5 -80t-58.5 -70q14 -45 14 -94q0 -18 -2 -37.5t-8 -40.5h2q-35 -137 -70.5 -275t-70.5 -276q-14 -51 -42 -94t-69 -73 q-86 -63 -190 -64h-848l-96 96h-15zM-457 0h815q98 0 177 59q76 59 100 154l141 551q8 31 8 72q0 53 -18 102q74 61 94 147l86 334q4 20 7 39t3 39q0 88 -53 166q-78 111 -221 111l-680 2zM-90 285l102 399l369 115q6 2 20 2q35 0 58 -29q18 -29 10 -59l-96 -375 q-12 -53 -70 -53h-393zM68 315h235q16 0 25.5 9.5t13.5 21.5q18 76 38.5 151.5t39.5 153.5l-283 -88q-16 -68 -34.5 -127.5t-34.5 -120.5zM96 1008l125 483h404q37 0 37 -27q0 -7 -3 -16l-63 -254q-10 -37 -49 -49zM272 1092l265 82q8 4 16 12t12 16q4 18 10.5 41t10.5 43 q4 18 9 37.5t9 40.5h-260q-20 -76 -38 -141t-34 -131z" />
<glyph unicode="C" horiz-adv-x="1191" d="M-362 285q0 23 3 41t7 36l311 1207q14 53 41 94t72 76q88 66 192 65h729l-4 -12l98 -96l-83 -332h-582q-35 0 -45 -35l-262 -1014h493l-4 -12l98 -96l-86 -334h-561q-131 0 -219 88l-57 57q-12 10 -24.5 19.5t-24.5 21.5q-92 93 -92 226zM-332 285q0 -123 82 -205 q80 -80 203 -80h541l73 285h-524q-70 0 -70 69q0 12 2 19l275 1065q12 53 69 53h562l71 283h-688q-96 0 -174 -60q-76 -57 -100 -153l-312 -1207q-10 -36 -10 -69z" />
<glyph unicode="D" horiz-adv-x="1210" d="M-494 -31l474 1835h696q131 0 221 -90q12 -12 22.5 -25.5t20.5 -25.5l55 -55q90 -90 90 -219q0 -37 -10 -78l-303 -1180q-31 -119 -125 -186l-2 2q-96 -74 -207 -74h-821l-96 96h-15zM-453 0h789q109 0 194 68q88 66 115 172l303 1179q10 37 10 72q0 121 -81 203 q-80 80 -201 80h-672zM-86 285l311 1206h404q35 0 35 -37v-8l-287 -1108q-12 -53 -70 -53h-393zM74 315h233q16 0 25.5 9.5t13.5 21.5q63 252 131 507t133 511h-262q-70 -270 -137 -525.5t-137 -523.5z" />
<glyph unicode="E" horiz-adv-x="1232" d="M-393 285q0 23 3 41t7 36l311 1207q27 100 111 168q88 68 192 67h451q66 0 120 -21.5t105 -64.5q31 -31 49 -57l60 -59q81 -84 80 -191v-20q-4 -43 -15 -80h2q-25 -100 -51 -199.5t-51 -200.5q-43 -168 -211 -219q-164 -49 -320.5 -97t-320.5 -97q-12 -47 -24.5 -92.5 t-22.5 -90.5h549l-4 -12l98 -96l-86 -334h-616q-156 0 -232 76l-65 65q-10 6 -20.5 14.5t-20.5 18.5q-78 78 -78 238zM-362 285q0 -150 67 -217q68 -68 215 -68h596l74 285h-623q-35 0 -35 34v9l74 290l656 199q154 47 192 203l102 399q10 31 13 76q1 10 0 19q0 105 -82 182 q-88 78 -205 78h-451q-96 0 -174 -60q-74 -59 -98 -153l-311 -1207q-10 -36 -10 -69zM90 940l129 498q16 53 70 53h303q70 -8 70 -72q0 -10 -3 -18l-69 -273q-8 -39 -49 -51zM266 1024l62 18q51 16 103 32t99 32q8 4 17.5 12t11.5 19l57 227h-225q-14 0 -26.5 -11.5 t-18.5 -23.5q-23 -82 -42.5 -155.5t-37.5 -149.5z" />
<glyph unicode="F" horiz-adv-x="1177" d="M-494 -31l476 1835h974l-4 -12l99 -96l-86 -332h-617q-18 -72 -36.5 -134.5t-35.5 -127.5h308l-4 -12l98 -97l-86 -334h-426q-51 -197 -101.5 -394t-101.5 -392h-346l-96 96h-15zM-453 0h293l203 786h426l74 285h-426l108 420h617l73 283h-909z" />
<glyph unicode="G" horiz-adv-x="1138" d="M-420 285q0 43 8 77q39 152 77 301.5t79 301.5q37 141 79 301.5t77 302.5q14 53 40.5 94t71.5 76q88 66 193 65h731l-4 -12l98 -96l-86 -332h-582q-35 0 -45 -35l-262 -1014h133q29 115 60 227.5t61 229.5q20 78 44 170t44 166h359l-4 -12l98 -97l-291 -1126h-563 q-129 0 -217 88l-58 57q-12 10 -24 19.5t-25 21.5q-92 93 -92 226zM-389 285q0 -123 82 -205q80 -80 201 -80h542l279 1077h-293l-207 -792h-229q-72 0 -72 69q0 12 2 19l274 1065q12 53 70 53h561l74 283h-690q-96 0 -174 -60q-76 -59 -101 -153l-311 -1207q-8 -30 -8 -69z " />
<glyph unicode="H" horiz-adv-x="1284" d="M-504 -31l475 1835h359l-4 -12l98 -96l-148 -594h254q23 86 45.5 171t45.5 175t47 180t47 176h358l-4 -12l98 -96l-471 -1823h-346l-96 96h-14l178 690h-260q-51 -197 -102.5 -394t-102.5 -392h-346l-96 96h-15zM-463 0h293l205 786h448l-202 -786h292l459 1774h-293 l-182 -703h-440l172 703h-293z" />
<glyph unicode="I" horiz-adv-x="509" d="M-504 -31l475 1835h359l-4 -12l98 -96l-471 -1823h-346l-96 96h-15zM-463 0h293l459 1774h-293z" />
<glyph unicode="J" horiz-adv-x="1107" d="M-537 -31l91 346h583q10 0 21.5 10.5t17.5 20.5q45 174 93 358.5t96.5 372t96.5 371.5t93 356h358l-4 -12l99 -96l-412 -1592q-29 -106 -111 -167q-86 -63 -190 -64h-721l-96 96h-15zM-496 0h689q98 0 176 59q76 59 100 154l403 1561h-292l-373 -1436q-16 -53 -70 -53 h-559z" />
<glyph unicode="K" horiz-adv-x="1267" d="M-498 -31l475 1835h359l-4 -12l98 -96l-147 -594h123q27 0 36 24q35 90 73 185.5t77 191.5q31 76 61.5 154t59.5 147h370l-6 -12l99 -96l-330 -834q55 -84 55 -178q0 -18 -2 -36.5t-8 -39.5h2q-47 -180 -95 -367.5t-96 -367.5h-346l-96 96h-14l178 690h-260 q-51 -197 -102.5 -394t-102.5 -392h-346l-96 96h-15zM-457 0h293l205 786h356q72 0 72 -69q0 -12 -2 -19l-180 -698h293l186 717q8 31 8 69q0 96 -59 175l323 813h-305l-262 -658q-18 -45 -65 -45h-283l172 703h-293z" />
<glyph unicode="L" horiz-adv-x="983" d="M-500 -31l475 1835h359l-4 -12l98 -96l-356 -1381h401l-4 -12l98 -96l-84 -334h-872l-96 96h-15zM-459 0h819l72 285h-524l385 1489h-293z" />
<glyph unicode="M" horiz-adv-x="1880" d="M-500 -31l475 1835h1344q131 0 221 -90q12 -12 22.5 -25.5t20.5 -25.5l49 -51l-2 2l8 -6q90 -90 91 -219q0 -18 -2.5 -38t-8.5 -40h2q-92 -356 -185 -719t-185 -719h-346l-97 96h-14l360 1395h-215q-96 -373 -192 -746.5t-193 -744.5h-346l-96 96h-14l360 1395h-215 q-96 -373 -192.5 -746.5t-192.5 -744.5h-346l-96 96h-15zM-459 0h293l385 1491h404l-385 -1491h292l385 1491h357q37 0 37 -37q0 -6 -2 -8l-373 -1446h293l366 1419q8 31 9 72q0 121 -82 203q-80 80 -201 80h-1319z" />
<glyph unicode="N" horiz-adv-x="1294" d="M-500 -31l475 1835h760q131 0 223 -90q12 -12 22.5 -25.5t20.5 -25.5l56 -55q90 -90 90 -219q0 -37 -10 -78l-371 -1438h-346l-96 96h-15l361 1395h-328q-96 -373 -192.5 -746.5t-192.5 -744.5h-346l-96 96h-15zM-459 0h293l385 1491h469q37 0 37 -37v-8l-375 -1446h293 l367 1419q10 37 10 72q0 121 -82 203q-84 80 -203 80h-735z" />
<glyph unicode="O" horiz-adv-x="1193" d="M-416 285q0 23 3 41t7 36l312 1207q14 53 40.5 94t71.5 76q88 66 193 65h451q131 0 221 -90q12 -12 22 -25.5t21 -25.5l55 -55q90 -90 90 -219q0 -18 -2 -38t-8 -40h2q-76 -297 -152.5 -590t-152.5 -590q-31 -119 -123 -186l-2 2q-96 -74 -209 -74h-422q-127 0 -219 86 l-62 61q-23 14 -45 37q-92 93 -92 228zM-385 285q0 -123 82 -205q82 -80 203 -80h422q111 0 196 68q86 66 113 172l305 1179q8 31 8 72q0 121 -82 203q-80 80 -200 80h-451q-96 0 -174 -60q-76 -57 -100 -153l-312 -1207q-10 -36 -10 -69zM-80 354q0 12 2 19l275 1065 q12 53 69 53h348q37 0 37 -37q0 -6 -2 -8l-287 -1108q-12 -53 -67 -53h-303q-72 -1 -72 69zM61 315h234q14 0 23.5 9.5t13.5 21.5q66 252 132 507t132 511h-227q-35 0 -45 -35z" />
<glyph unicode="P" horiz-adv-x="1241" d="M-500 -31l475 1835h695q133 0 223 -90q12 -12 22.5 -25.5t20.5 -25.5l55 -55q90 -90 90 -219q0 -37 -10 -78l-86 -334q-41 -164 -209 -217l-639 -197q-43 -170 -89 -346t-89 -344h-348l-96 96h-15zM-459 0h295l176 684l656 201q150 45 190 200l86 334q10 37 10 72 q0 121 -82 203q-80 80 -202 80h-670zM94 1008l125 483h406q18 0 26 -14q8 -16 6 -31l-63 -252q-8 -37 -47 -49zM270 1092q68 20 134.5 40.5t132.5 41.5q6 4 14 12t12 16l41 162h-262z" />
<glyph unicode="Q" horiz-adv-x="1380" d="M-387 289q0 39 10 80l309 1202q29 102 113 170q82 63 193 63h581q127 0 221 -88l21 -24q10 -12 20 -27l68 -66q80 -80 80 -210q0 -18 -2 -38t-8 -40h2q-76 -295 -153 -587t-153 -587q-14 -53 -46.5 -101t-73.5 -83q-47 -35 -99.5 -54.5t-111.5 -19.5h-170 q-8 -33 -18.5 -68.5t-16.5 -64.5h-344l-96 96h-15l13 49q-35 10 -66 30t-59 46l-58 58q-12 10 -24.5 19t-24.5 22q-92 92 -92 223zM-356 289q0 -121 82 -203q80 -80 200 -80h74l-35 -133h291l35 133h190q111 0 197 68q82 63 110 172l306 1173q8 31 8 72q0 123 -82 203 q-80 80 -201 80h-581q-102 0 -175 -58q-76 -59 -100 -153l-309 -1203q-10 -36 -10 -71zM-49 377l272 1061q12 53 68 53h483q37 0 38 -27q0 -7 -3 -16l-287 -1106q-16 -53 -67 -53h-90l170 657h-293l-170 -657h-56q-31 0 -53 28q-15 19 -14 42q0 9 2 18zM260 977h315l-4 -12 l64 -64l119 463h-361q-33 0 -43 -35z" />
<glyph unicode="R" horiz-adv-x="1187" d="M-498 -31l473 1835h697q131 0 221 -90q12 -12 22.5 -25.5t20.5 -25.5l49 -51l-2 2l8 -6q90 -90 90 -219q0 -37 -10 -78l-86 -334q-25 -90 -88 -150q8 -23 11 -48t3 -48q0 -18 -2 -36.5t-8 -39.5h2q-49 -193 -101 -391t-102 -391h-346l-96 96h-14l176 680 q-72 -23 -141.5 -43t-141.5 -43q-43 -170 -89 -346t-89 -344h-346l-96 96h-15zM-457 0h293l176 684l369 113q12 4 18 4q72 0 72 -72q0 -12 -2 -18l-184 -711h293l198 764q8 31 8 70q0 51 -18 104q68 55 92 147l86 334q10 37 10 72q0 121 -82 203q-80 80 -200 80h-672z M96 1008l125 483h404q35 0 34 -37v-8l-65 -252q-8 -37 -47 -49zM272 1092l265 82q6 4 14 12t12 16l41 162h-260q-20 -76 -38 -141t-34 -131z" />
<glyph unicode="S" horiz-adv-x="1167" d="M-494 -31l91 346h583q16 0 25.5 9.5t13.5 21.5q23 84 44.5 170t43.5 172q-41 12 -82 25.5t-82 25.5q-78 25 -127 76l-59 59q-23 14 -41 33t-35 41q-29 41 -45 88t-16 101q0 43 8 77q10 43 21.5 87.5t23.5 89.5q10 43 22.5 89t24.5 89q14 49 43 94t70 76q88 66 192 65h729 l-4 -12l99 -96l-84 -332h-582q-35 0 -45 -35l-53 -209l168 -51q104 -33 161 -111q4 -4 7 -8l4 -8l61 -59q8 -8 14.5 -15.5t12.5 -15.5q59 -82 59 -186q0 -18 -2 -37t-8 -39h2q-31 -123 -62.5 -243t-62.5 -243q-29 -106 -111 -167q-86 -63 -190 -64h-721l-96 96h-15zM-453 0 h689q98 0 176 59q76 59 100 154l125 485q8 31 8 70q0 94 -55 172q-53 72 -146 100l-245 76q-51 14 -52 68q0 12 3 16l61 238q12 53 70 53h561l71 283h-688q-96 0 -174 -60q-76 -57 -100 -153l-92 -355q-8 -31 -9 -69q0 -96 56 -170q53 -74 143 -103l248 -76q49 -16 49 -65 q0 -14 -2 -18l-94 -367q-12 -53 -70 -53h-559z" />
<glyph unicode="T" horiz-adv-x="1343" d="M-125 1460l92 344h1163l-4 -12l99 -96l-86 -332h-404q-96 -373 -192.5 -746.5t-192.5 -744.5h-346l-96 96h-14l360 1395h-268l-97 96h-14zM-84 1491h403l-385 -1491h293l385 1491h404l74 283h-1098z" />
<glyph unicode="U" horiz-adv-x="1343" d="M-412 285q0 43 9 77q47 178 93 357.5t93 361.5q47 180 94 362.5t94 360.5h357l-4 -12l98 -96l-356 -1381h337q59 227 117 453.5t117 456.5q35 141 76 290.5t75 288.5h361l-4 -12l98 -96l-473 -1823h-766q-129 0 -217 88l-57 57q-12 10 -24.5 19.5t-24.5 21.5 q-93 93 -93 226zM-381 285q0 -123 82 -205q80 -80 201 -80h745l461 1774h-295l-385 -1489h-479q-35 0 -35 34v9l373 1446h-291l-369 -1420q-8 -30 -8 -69z" />
<glyph unicode="V" horiz-adv-x="1374" d="M-37 1804h354v-12l97 -96q0 -10 1 -58.5t3 -111.5q4 -92 8 -240.5t12 -339.5q4 -119 6 -227.5t7 -206.5q41 152 79.5 303.5t79.5 306.5q43 166 90.5 343t87.5 339h361l-4 -12l98 -96l-473 -1823h-352q-121 0 -199 78q-4 4 -6 5t-4 5l-53 51q-33 23 -58 54q-84 96 -84 223 q0 264 -18 743q-4 88 -8 187.5t-8 195.5q-4 98 -8.5 197.5t-8.5 191.5zM-4 1774l31 -742q18 -479 18 -743q0 -117 76 -203t194 -86h332l461 1774h-295l-385 -1489q-16 2 -24 2h-9q-14 -2 -21 -2h-12q-35 0 -34 39q0 154 -4.5 334t-12.5 391q-12 340 -17 520t-7 205h-291z " />
<glyph unicode="W" horiz-adv-x="1945" d="M-410 285q0 23 3.5 41t7.5 36l372 1442h359l-4 -12l98 -96l-358 -1381h215q59 227 116.5 453.5t116.5 456.5q35 141 76 290.5t76 288.5h358l-4 -12l98 -96l-356 -1381h215q59 227 116.5 453.5t116.5 456.5q35 141 76 290.5t76 288.5h358l-4 -12l99 -96l-471 -1823h-1338 q-131 0 -219 88l-57 57q-12 10 -24.5 19.5t-24.5 21.5q-93 93 -93 226zM-379 285q0 -123 82 -205q80 -80 203 -80h1317l458 1774h-292l-385 -1489h-404l385 1489h-293l-385 -1489h-356q-35 0 -35 34v9l375 1446h-293l-367 -1420q-10 -36 -10 -69z" />
<glyph unicode="X" horiz-adv-x="1384" d="M-492 -31l130 500q29 98 112 164q25 20 50.5 39.5t52.5 42.5l136 106t134 107q-23 41 -47.5 84t-46.5 84v-2q-25 41 -49.5 85t-47.5 87q-16 31 -26 71.5t-10 81.5q0 39 10 80q6 29 14 59.5t17 63.5q12 47 23 94t22 88h360l-4 -12l98 -96l-92 -357h-2v-2q-2 -6 -2 -10 q0 -14 6 -22l76 -134q23 18 45 35t45 35q45 35 91 74t93 74q10 10 15 22q10 43 22 94t27 101q12 49 26.5 101t26.5 97h358l-4 -12l99 -96l-129 -496q-12 -47 -41 -90t-68 -74q-92 -74 -184 -146.5t-185 -146.5q45 -82 92.5 -165.5t92.5 -163.5q39 -74 39 -152 q0 -18 -2 -36.5t-9 -39.5h2q-18 -74 -39.5 -156.5t-39.5 -156.5h-346l-97 96h-14l96 377q0 2 2 4t2 6q0 2 -8 19q-18 35 -36.5 66.5t-37.5 64.5q-70 -57 -137 -112.5t-139 -110.5h2q-4 -4 -9 -11.5t-7 -13.5q-23 -90 -50.5 -192.5t-50.5 -192.5h-346l-96 96h-15zM-451 0h293 l97 367q6 20 24 36l338 271l158 -285q10 -16 10 -33q0 -10 -4 -18l-86 -338h293l76 295q8 31 8 70q0 78 -35 139l-195 348l385 305q74 57 99 152l120 465h-292l-97 -371q-6 -23 -24 -37l-332 -262l-162 291q-10 16 -10 35q0 6 4 18l84 326h-293l-71 -283q-10 -37 -11 -72 q0 -78 35 -139l201 -356l-393 -314q-76 -61 -101 -149z" />
<glyph unicode="Y" horiz-adv-x="1310" d="M-219 979q0 23 3 41t7 37q47 186 94 374.5t95 372.5h360l-4 -12l98 -96l-190 -746q51 -27 84 -41q39 16 84 39t84 41q27 8 32 33l203 782h359l-5 -12l99 -96l-232 -901q-41 -154 -209 -217l-188 -74q-41 -154 -83 -317.5t-83 -317.5h-344l-96 96h-15l150 625 q-33 18 -58.5 37.5t-45.5 42.5l-54 53q-145 104 -145 256zM-188 979q0 -164 200 -272l117 -64l-154 -647h291l164 627l203 79q156 61 192 201l224 871h-293l-197 -760q-8 -39 -47 -51l-184 -86l-168 81q-49 25 -49 68q0 12 2 18l186 730h-293l-184 -725q-10 -37 -10 -70z " />
<glyph unicode="Z" horiz-adv-x="1308" d="M-502 -31l207 795q25 80 78 137t133 84l616 189q6 4 14.5 12t12.5 16l41 162h-606l-96 96h-15l90 344h1100l-4 -12l98 -96l-186 -719q-41 -164 -209 -217l-614 -189q-25 -10 -31 -34l-57 -222h618l-4 -12l98 -96l-84 -334h-1089l-96 96h-15zM-461 0h1036l72 285h-741 l94 360q8 39 47 51l617 189q150 45 190 200l178 689h-1034l-74 -283h744l-78 -297q-8 -37 -47 -49l-617 -189q-150 -45 -190 -200z" />
<glyph unicode="[" horiz-adv-x="702" d="M-506 -31l41 148q63 246 130 501.5t132 514.5q45 172 89 340.5t85 330.5h691l-5 -12l99 -96l-82 -293h-326q-76 -289 -147.5 -565.5t-143.5 -563.5h209l-4 -12l98 -96l-81 -293h-674l-97 96h-14zM-465 0h623l67 244h-331l331 1286h328l68 244h-625l-430 -1665z" />
<glyph unicode="\" horiz-adv-x="1548" d="M25 1815h358l6 -17l92 -92l695 -1833h-345l-96 96h-10zM70 1784l675 -1784h293l-676 1784h-292z" />
<glyph unicode="]" horiz-adv-x="702" d="M-506 -31l86 305h324q41 158 80 309.5t79 305.5q35 129 66 255t66 259h-195l-96 96h-15l86 305h687l-5 -12l99 -96l-39 -140q-53 -203 -107.5 -415.5t-110 -426.5t-110.5 -426t-106 -415h-678l-97 96h-14zM-465 0h625l430 1665l31 109h-623l-68 -244h332l-332 -1286h-327 z" />
<glyph unicode="^" horiz-adv-x="1200" d="M45 1503l68 248l374 64l392 -68l-5 -10l99 -97l-64 -229l-358 64q-90 -16 -198.5 -33t-196.5 -33l-97 96zM88 1542l361 62l339 -62l52 180l-353 62l-348 -62z" />
<glyph unicode="_" horiz-adv-x="1361" d="M-31 -33h1424v-12l96 -96v-176h-1411l-96 96h-13v188zM0 -63v-127h1362v127h-1362z" />
<glyph unicode="`" horiz-adv-x="743" d="M117 1815h319l6 -17l93 -92l172 -483h-308l-96 96h-10zM160 1784l153 -434h256l-153 434h-256z" />
<glyph unicode="a" d="M-475 -31l121 473q43 170 215 222q82 25 160.5 48t158.5 48q63 20 129 39.5t131 42.5h-483l-96 96h-15l91 344h620q131 0 221 -90q12 -12 22.5 -25.5t20.5 -25.5l56 -56q90 -90 90 -219q0 -49 -11 -78h2q-57 -225 -117.5 -457.5t-117.5 -457.5h-1088l-96 96h-14zM-434 0 h1034l231 897q8 27 9 72q0 121 -82 202q-80 80 -201 80h-596l-74 -282h623q37 0 37 -41l-25 -94l-653 -199q-154 -47 -193 -201zM-68 285l9 41q6 35 47 49l450 139l-57 -229h-449zM307 315h49q2 4 2 8.5t2 8.5z" />
<glyph unicode="b" d="M-496 -33l476 1835h358l-4 -12l98 -96l-106 -410h215q131 0 221 -90q12 -12 22.5 -25.5t20.5 -25.5l55 -56q90 -90 90 -219q0 -37 -10 -77l-168 -660q-31 -119 -125 -186l-2 2q-96 -74 -207 -74l-823 -2l-96 96h-15zM-455 -2l791 2q109 0 194 68q88 66 115 172l168 659 q10 37 10 72q0 121 -82 203q-80 80 -200 79h-379l135 519h-293zM-86 285l176 686h404q35 0 34 -37v-8l-151 -588q-12 -53 -70 -53h-393zM74 315h233q16 0 25.5 9.5t13.5 21.5q29 119 62.5 247t66.5 251h-262q-35 -137 -69.5 -265.5t-69.5 -263.5z" />
<glyph unicode="c" horiz-adv-x="1191" d="M-362 285q0 23 3 41t7 36l172 687q14 53 40.5 94t71.5 76q88 66 193 65h729l-4 -12l98 -96l-84 -332h-581q-35 0 -45 -35l-125 -494h495l-4 -12l98 -96l-86 -334h-561q-131 0 -219 88l-57 57q-12 10 -24.5 19.5t-24.5 21.5q-92 93 -92 226zM-332 285q0 -123 82 -205 q80 -80 203 -80h541l73 285h-524q-70 0 -70 69q0 12 2 19l136 545q12 53 69 53h561l72 282h-688q-96 0 -174 -59q-76 -57 -101 -154l-172 -686q-10 -36 -10 -69z" />
<glyph unicode="d" d="M-385 281q2 41 12 81q16 61 30.5 123t31.5 125q16 61 31.5 124t31.5 126q43 172 215 223q82 25 161 48.5t159 48.5q76 23 157.5 49t159.5 49q16 63 30.5 127.5t31.5 130.5q16 66 32.5 134.5t32.5 133.5h361l-5 -12l99 -96l-404 -1592q-29 -106 -108 -167 q-86 -63 -189 -64h-450q-121 0 -221 84l-70 70q-10 6 -18.5 13t-18.5 15q-93 88 -93 202q0 12 1 24zM-354 279q-1 -10 -1 -20q0 -105 83 -181q88 -78 204 -78h451q96 0 174 59q74 57 98 154l396 1561h-293l-127 -521l-656 -198q-154 -47 -192 -203l-125 -498 q-10 -30 -12 -75zM-47 354q0 10 2 19l92 370q8 39 49 52l451 137l-152 -596q-12 -53 -69 -53h-303q-70 8 -70 71zM92 313h234q16 0 25 9.5t14 21.5q25 100 52 201.5t54 204.5q-68 -23 -134.5 -41.5t-129.5 -38.5q-27 -10 -33 -35z" />
<glyph unicode="e" d="M-393 285q0 23 3 41t7 36l174 689q27 100 111 168q88 68 192 67h451q66 0 120 -21.5t105 -64.5q31 -31 49 -57l60 -60q81 -84 80 -191q0 -10 -1 -20q-4 -25 -6 -44t-6 -35q-6 -29 -13 -61t-13 -60q-18 -86 -72.5 -140.5t-138.5 -78.5l-453 -138h375l-4 -12l98 -96 l-86 -334h-616q-156 0 -232 76l-65 65q-10 6 -20.5 14.5t-20.5 18.5q-78 78 -78 238zM-362 285q0 -150 67 -217q68 -68 215 -68h596l74 285h-623q-35 0 -35 34v9l13 51l655 199q76 23 126 73.5t67 128.5l26 121q4 16 7 34.5t5 41.5q1 10 1 19q0 105 -82 182q-88 78 -205 77 h-451q-96 0 -174 -59q-74 -59 -98 -154l-174 -688q-10 -36 -10 -69zM29 700l53 220q12 53 70 53h303q70 -8 69 -72q0 -10 -2 -18l6 6q-8 -39 -49 -51zM201 784q16 4 31.5 9.5t31.5 9.5q35 10 71 21.5t71 21.5h-152q-16 0 -28.5 -10.5t-16.5 -24.5q-4 -11 -8 -27z" />
<glyph unicode="f" horiz-adv-x="780" d="M-383 -31l238 914h-21l-96 96h-14l86 305h147q10 35 17.5 70t17.5 69q10 35 19 72t20 74q14 51 41.5 95t70.5 75q88 66 193 65h330l-4 -12l98 -96l-86 -332h-180q-14 0 -26.5 -11.5t-18.5 -23.5q-10 -29 -13 -45h60l-4 -12l98 -96l-82 -293h-176q-63 -250 -130 -506 t-130 -504h-344l-97 96h-14zM-342 0h291l260 1010h178l68 243h-183l50 185q16 53 69 53h160l74 283h-289q-96 0 -174 -60q-76 -57 -101 -153l-79 -308h-150l-68 -243h156z" />
<glyph unicode="g" horiz-adv-x="1302" d="M-418 -219l90 346h584q31 0 37 25l14 49h-207q-129 0 -217 88l-57 57q-12 10 -24.5 19.5t-24.5 21.5q-92 92 -92 223q0 39 10 80q10 37 22.5 89t26.5 106q10 37 19 73l16 62q33 119 127 186q100 76 213 76h831l-4 -12l98 -96l-329 -1258q-14 -51 -42 -94t-69 -74 q-86 -63 -190 -63h-721l-96 96h-15zM-377 -188h688q98 0 176 59q76 59 101 154l321 1226h-790q-109 0 -195 -67q-88 -66 -114 -172l-84 -330q-10 -37 -11 -72q0 -121 82 -202q80 -80 201 -80h379l-53 -185q-14 -47 -68 -47h-559zM10 647v8l68 258q16 53 69 54h394l-92 -357 h-404q-35 0 -35 37zM160 641h264q12 49 24.5 91t22.5 87q2 4 2 9.5t2 11.5h-225q-14 0 -26.5 -11.5t-18.5 -23.5q-10 -41 -22.5 -82t-22.5 -82z" />
<glyph unicode="h" d="M-496 -31l476 1833h358l-4 -12l98 -96l-106 -410h215q131 0 221 -90q12 -12 22.5 -25.5t20.5 -25.5l55 -56q90 -90 90 -219q0 -37 -10 -77l-238 -918h-346l-96 96h-14l227 875h-260q-59 -242 -124.5 -485.5t-125.5 -485.5h-348l-96 96h-15zM-455 0h295l250 971h404 q35 0 34 -37v-8l-241 -926h293l233 899q10 37 10 72q0 121 -82 203q-80 80 -200 79h-379l135 519h-293z" />
<glyph unicode="i" horiz-adv-x="505" d="M-504 -31l340 1315h96l-65 66h-14l84 331h360l-4 -12l98 -96l-82 -320h-98l78 -77l-336 -1303h-346l-96 96h-15zM-463 0h293l324 1253h-293zM-106 1380h292l70 271h-293z" />
<glyph unicode="j" horiz-adv-x="894" d="M-506 -221l90 346h334q10 0 21.5 10t17.5 21q35 135 72 277t73 284q37 143 76 285.5t74 279.5h82l-68 68h-14l84 331h360l-4 -12l99 -96l-82 -320h-84l80 -79l-328 -1260q-14 -51 -42 -94t-69 -74q-86 -63 -190 -63h-471l-97 96h-14zM-465 -190h438q98 0 177 59 q76 59 100 154l319 1228h-293l-288 -1104q-16 -53 -70 -53h-309zM293 1380h293l69 271h-293z" />
<glyph unicode="k" d="M-498 -31l475 1835h359l-4 -12l98 -96l-221 -883h123q10 0 21.5 7t15.5 18q23 57 50 124.5t52 131.5q20 49 39.5 98t36.5 92h371l-7 -12l99 -96l-240 -603q27 -41 42 -86t15 -92q0 -18 -2 -36.5t-8 -39.5h2q-29 -106 -58.5 -222.5t-58.5 -223.5h-346l-96 96h-14l104 402 h-260q-33 -123 -66.5 -250t-64.5 -248h-346l-96 96h-15zM-457 0h293l131 498h357q72 0 71 -70q0 -12 -2 -18l-106 -410h293l112 428q8 31 8 70q0 96 -59 174l231 581h-305l-170 -426q-18 -45 -65 -45h-283l246 992h-293z" />
<glyph unicode="l" horiz-adv-x="692" d="M-410 285q0 23 3.5 41t7.5 36l374 1442h357l-4 -12l98 -96l-358 -1381h178l-4 -12l98 -96l-86 -334h-246q-131 0 -219 88l-57 57q-12 10 -24.5 19.5t-24.5 21.5q-93 93 -93 226zM-379 285q0 -123 82 -205q80 -80 203 -80h225l74 285h-209q-70 0 -70 69q0 12 2 19 l363 1401h-291l-369 -1420q-10 -36 -10 -69z" />
<glyph unicode="m" horiz-adv-x="1935" d="M-500 -31l338 1315h1344q131 0 221 -90q12 -12 22.5 -25.5t20.5 -25.5l55 -56q90 -90 90 -219q0 -18 -2 -37.5t-8 -39.5h2q-57 -225 -116.5 -459t-116.5 -459h-346l-97 96h-14l223 875h-215q-59 -242 -123.5 -486.5t-124.5 -484.5h-346l-96 96h-14l223 875h-215 q-59 -242 -124 -486.5t-124 -484.5h-346l-96 96h-15zM-459 0h293l248 971h403l-247 -971h292l248 971h357q37 0 36 -37q0 -6 -2 -8l-235 -926h293l229 899q8 31 8 72q0 121 -82 203q-80 80 -200 79h-1319z" />
<glyph unicode="n" horiz-adv-x="1257" d="M-537 -31l342 1317h760q131 0 223 -90q12 -12 22.5 -25.5t20.5 -25.5l56 -55q90 -90 90 -220q0 -37 -10 -77l-238 -920h-346l-96 96h-15l228 877h-328q-63 -242 -125.5 -486.5t-126.5 -486.5h-346l-96 96h-15zM-496 0h293l252 973h469q37 0 37 -37v-8l-242 -928h293 l234 901q10 37 10 72q0 121 -82 203q-84 80 -203 79h-735z" />
<glyph unicode="o" horiz-adv-x="1253" d="M-416 285q0 23 3 41t7 36l175 689q14 53 40.5 94t71.5 76q88 66 193 65h450q131 0 221 -90q12 -12 22.5 -25.5t20.5 -25.5l56 -55q90 -90 90 -220q0 -18 -2 -37.5t-8 -39.5h2q-41 -166 -84 -331t-84 -331q-31 -119 -123 -186l-2 2q-96 -74 -209 -74h-422q-127 0 -219 86 l-62 61q-23 14 -45 37q-92 93 -92 228zM-385 285q0 -123 82 -205q82 -80 203 -80h422q111 0 196 68q86 66 113 172l168 661q8 31 8 72q0 121 -82 203q-80 80 -201 79h-450q-96 0 -174 -59q-76 -57 -101 -154l-174 -688q-10 -36 -10 -69zM-80 354q0 12 2 19l137 547 q12 53 70 53h348q37 0 37 -37q0 -6 -2 -8l-150 -590q-12 -53 -67 -53h-303q-72 -1 -72 69zM61 315h234q14 0 23.5 9.5t13.5 21.5q29 119 62.5 247t66.5 253h-230q-35 0 -45 -35z" />
<glyph unicode="p" d="M-547 -219l389 1503h695q133 0 223 -90q12 -12 22.5 -25.5t20.5 -25.5l49 -51l-2 2l8 -7q90 -90 90 -219q0 -37 -10 -77l-133 -502q-41 -164 -209 -217l-641 -197q-10 -45 -21.5 -96t-21.5 -94h-348l-96 96h-15zM-506 -188h295l43 184l655 201q150 45 191 200l133 502 q10 37 10 72q0 121 -82 203q-80 80 -202 79h-670zM-86 319l172 652h406q18 0 26 -15q8 -16 6 -30l-110 -420q-8 -37 -47 -49zM92 403q68 20 134.5 41t129.5 41q6 4 14.5 12.5t12.5 16.5l86 330h-260z" />
<glyph unicode="q" horiz-adv-x="1423" d="M-350 281q0 39 10 79l168 660q33 119 127 186q100 76 213 76h831l-4 -12l99 -96l-389 -1487h-347l-96 96h-14l24 88h-206q-129 0 -218 88l-57 57q-12 10 -24.5 19.5t-24.5 21.5q-92 93 -92 224zM-319 281q0 -121 81 -203q80 -80 201 -80h379l-53 -184h293l376 1437h-790 q-109 0 -195 -67q-88 -66 -114 -172l-168 -660q-10 -36 -10 -71zM-25 317v9l152 587q12 53 70 54h393l-176 -686h-404q-35 -1 -35 36zM127 311h260q18 72 36.5 140.5t37.5 140.5q16 63 31.5 123.5t31.5 124.5h-225q-35 0 -45 -35z" />
<glyph unicode="r" d="M-500 -31l342 1317h760q131 0 223 -90q12 -12 22.5 -25.5t20.5 -25.5l56 -55q90 -90 90 -220q0 -37 -10 -77q-4 -23 -12.5 -52.5t-12.5 -52.5h-346l-96 96h-15l15 62h-328q-63 -242 -126 -486.5t-126 -486.5h-346l-96 96h-15zM-459 0h293l252 973h469q37 0 37 -37v-8 l-29 -113h293l21 86q10 37 10 72q0 121 -82 203q-84 80 -203 79h-735z" />
<glyph unicode="s" horiz-adv-x="1200" d="M-494 -31l91 346h583q29 0 39 31l17 55q-41 14 -81 26.5t-81 25.5q-78 25 -127 75l-60 60q-23 14 -41 32.5t-34 41.5q-29 41 -45.5 88t-16.5 100q0 43 8 76q4 12 6.5 28.5t6.5 30.5q4 16 7 30.5t7 31.5q12 55 41 97t72 75q88 66 192 65h729l-4 -12l98 -96l-84 -332h-581 q-18 0 -33 -10l168 -52q104 -33 162 -110q4 -4 6 -8l4 -9l61 -59q8 -8 14.5 -15.5t12.5 -15.5q59 -82 59 -186q0 -18 -2 -36.5t-8 -39.5h2q-14 -49 -27.5 -99t-27.5 -100q-16 -53 -44 -94t-67 -73q-86 -63 -190 -64h-721l-96 96h-15zM-453 0h689q98 0 176 59q72 57 100 154 l55 199q8 31 8 69q0 94 -55 172q-53 72 -145 101l-246 75q-51 14 -51 68l2 16l-4 5q16 53 69 53h562l71 282h-688q-96 0 -174 -59q-39 -29 -64.5 -66.5t-35.5 -87.5l-27 -120q-8 -31 -8 -70q0 -96 55 -170q53 -74 144 -102l247 -76q49 -16 49 -66q0 -14 -2 -18l-24 -80 q-16 -53 -70 -53h-559z" />
<glyph unicode="t" horiz-adv-x="843" d="M-385 -31l238 914h-21l-96 96h-15l86 305h150q6 23 11 50.5t14 51.5q10 39 20 81t21 73h358l-4 -12l98 -96l-41 -148h60l-5 -12l99 -96l-82 -293h-176q-63 -250 -130 -506t-130 -504h-344l-97 96h-14zM-344 0h291l260 1010h178l68 243h-183l70 256h-293l-67 -256h-150 l-68 -243h156z" />
<glyph unicode="u" d="M-412 285q0 43 9 77q29 113 58.5 228t59.5 231q31 117 63 233.5t60 229.5h357l-5 -12l99 -96l-223 -861h337q31 121 61 239t62 241q31 119 65 245.5t64 243.5h361l-4 -12l98 -96l-340 -1303h-766q-129 0 -217 88l-57 57q-12 10 -24.5 19.5t-24.5 21.5q-93 93 -93 226z M-381 285q0 -123 82 -205q80 -80 201 -80h745l328 1253h-295l-252 -968h-479q-35 0 -35 34v9l240 925h-291l-236 -899q-8 -30 -8 -69z" />
<glyph unicode="v" horiz-adv-x="1220" d="M-170 1282h352v-12l97 -96q2 -23 13 -202t34 -509q23 84 44 166t44 168q33 123 64.5 245.5t62.5 241.5h360l-4 -12l98 -96l-338 -1303h-352q-121 0 -199 78q-4 4 -6 5t-4 5l-61 62q-29 18 -49 43q-41 47 -60.5 102t-23.5 119zM-137 1251l69 -962q4 -59 21.5 -110.5 t54.5 -92.5q76 -86 195 -86h332l325 1253h-295l-250 -968q-16 2 -23 2h-9q-14 -2 -22 -2h-11q-33 0 -35 39q-59 879 -61 927h-291z" />
<glyph unicode="w" horiz-adv-x="1984" d="M-410 285q0 23 3.5 41t7.5 36l237 922h359l-4 -12l98 -96l-223 -861h215q31 121 60.5 239t62.5 241q31 119 63.5 245.5t62.5 243.5h359l-4 -12l98 -96l-221 -861h215q31 121 60.5 239t62.5 241q31 119 63.5 245.5t63.5 243.5h358l-4 -12l98 -96l-335 -1303h-1338 q-131 0 -219 88l-57 57q-12 10 -24.5 19.5t-24.5 21.5q-93 93 -93 226zM-379 285q0 -123 82 -205q80 -80 203 -80h1317l323 1253h-293l-249 -968h-404l250 968h-293l-250 -968h-356q-35 0 -35 34v9l240 925h-293l-232 -899q-10 -36 -10 -69z" />
<glyph unicode="x" horiz-adv-x="1384" d="M-492 -31l60 228q29 98 113 163l50 40t52 42q68 53 136.5 106.5t133.5 106.5q-23 41 -47 84t-47 84v-2q-25 41 -49.5 85t-46.5 87q-16 31 -26.5 72t-10.5 82q0 39 10 80q2 8 4 19l4 22q4 12 4 16h361l-4 -12l98 -96l-29 -109h-2v-2q-2 -6 -2 -10q0 -14 6 -23l76 -133 q23 18 45.5 34.5t44.5 35.5q45 35 91.5 73.5t93.5 73.5q10 10 14 23q4 16 9 33.5t9 35.5t10.5 39t10.5 37h358l-4 -12l99 -96l-66 -248q-12 -47 -41 -90t-68 -74q-92 -74 -184 -146.5t-184 -146.5q45 -82 92 -166t92 -164q39 -74 39 -151q0 -20 -2 -39t-8 -39l-12 -39h-340 l-97 96h-14l25 99q4 12 4 16q0 2 -9 18q-18 35 -36.5 67t-36.5 64q-70 -57 -137.5 -112t-139.5 -111h2q-4 -4 -9 -11t-7 -13l-15 -57l-16 -56h-346l-96 96h-15zM-451 0h293l27 94q6 20 25 37l337 270l158 -284q10 -16 10 -33q0 -10 -4 -18l-16 -66h293l6 23q8 31 8 69 q0 78 -35 139l-194 349l385 305q74 57 98 151l57 217h-292l-33 -123q-6 -23 -25 -36l-332 -263l-161 291q-10 16 -11 35q0 6 4 19l21 77h-293l-8 -34q-10 -37 -10 -72q0 -78 34 -139l201 -357l-393 -313q-76 -61 -100 -150z" />
<glyph unicode="y" horiz-adv-x="1253" d="M-459 281q0 39 10 79l236 924h358l-4 -12l99 -96l-222 -865h261q29 121 60.5 240t63.5 242q33 123 65 246.5t62 244.5h361l-4 -12l98 -96l-387 -1495h-346l-96 96h-15l25 94h-209q-129 0 -217 88l-57 57q-12 10 -24.5 19.5t-25.5 21.5q-92 93 -92 224zM-428 281 q0 -121 82 -203q80 -80 201 -80h378l-51 -191h293l375 1446h-295l-250 -972h-403q-35 0 -35 36v9l237 927h-292l-230 -901q-10 -36 -10 -71z" />
<glyph unicode="z" horiz-adv-x="1253" d="M-502 -31l125 488q47 168 211 221l543 166h-518l-97 96h-14l90 344h1100l-4 -12l98 -96l-133 -506q-41 -164 -209 -217l-448 -138h446l-4 -12l98 -96l-84 -334h-1089l-96 96h-15zM-461 0h1036l72 285h-741l12 53q8 39 47 51l617 189q150 45 190 200l125 475h-1034 l-74 -282h743l-24 -84q-12 -37 -47 -49l-617 -189q-150 -45 -190 -200z" />
<glyph unicode="{" horiz-adv-x="911" d="M-252 756l92 342h115q14 59 29.5 116.5t31.5 116.5t30.5 118.5t31.5 119.5q14 53 40.5 94t71.5 76q88 66 193 65h330l-4 -12l98 -96l-86 -332h-180q-35 0 -45 -35l-263 -1014h95l-4 -12l98 -96l-88 -334h-160q-131 0 -219 88l-57 57q-12 10 -24.5 19.5t-25.5 21.5 q-92 92 -92 226q0 23 3 41t8 36l81 308l-86 86h-14zM-213 285q0 -123 82 -205q80 -80 203 -80h139l76 285h-125q-70 0 -70 69q0 12 2 19l275 1065q12 53 69 53h160l74 283h-289q-96 0 -174 -60q-76 -57 -100 -153l-127 -494h-117l-76 -281h121l-113 -432q-10 -36 -10 -69z " />
<glyph unicode="|" horiz-adv-x="600" d="M-569 -158l542 2110h359l-4 -13l98 -96l-539 -2097h-346l-96 96h-14zM-528 -127h292l527 2048h-293z" />
<glyph unicode="}" horiz-adv-x="841" d="M-498 -31l90 344h185q16 0 25.5 9.5t13.5 21.5q63 252 130.5 508t131.5 510h-80l-96 96h-15l93 346h163q133 0 224 -90q12 -12 22 -25.5t21 -25.5l49 -51l-2 2l8 -6q90 -90 90 -222q0 -35 -10 -75l-58 -213h5l-5 -15l99 -94l-86 -330h-125q-35 -139 -71 -277t-71 -278 q-29 -106 -110 -167q-86 -63 -189 -64h-321l-96 96h-15zM-457 0h289q96 0 174 59q76 57 100 154l148 573h123l74 281h-125l92 352q10 37 10 70q0 123 -82 205q-80 80 -203 80h-139l-76 -285h125q70 0 70 -70q0 -12 -2 -18l-275 -1065q-12 -53 -69 -53h-160z" />
<glyph unicode="~" horiz-adv-x="927" d="M-152 1448l70 258l145 84q51 27 101 27q45 0 143 -56q82 -49 107 -49t61 17l225 98l-6 -19l99 -96l-70 -239l-152 -72q-68 -25 -112 -25q-45 0 -142 51q-72 45 -98 46q-10 0 -26.5 -5.5t-30.5 -9.5l-201 -100l-98 98q-7 -6 -15 -8zM-102 1507l151 76q37 16 68 16 q27 0 110 -49q84 -47 129 -47q43 0 97 19l147 69l51 181l-164 -72q-41 -18 -73 -19q-33 0 -123 54q-88 51 -127 51q-20 0 -42 -5t-44 -18l-131 -75z" />
<glyph unicode="&#xa1;" horiz-adv-x="509" d="M-504 -31l369 1409h358l-4 -12l98 -96l-364 -1397h-346l-96 96h-15zM-463 0h293l352 1348h-293zM-88 1495l88 303h319l-4 -12l99 -96l-84 -291h-307l-97 96h-14zM-47 1526h256l70 241h-256z" />
<glyph unicode="&#xa2;" d="M-362 285q0 23 3 41t7 36l172 687q14 53 40.5 94t71.5 76q88 66 193 65h162q4 10 5 22.5t5 22.5q10 37 20.5 76t18.5 74h360l-4 -13l99 -96l-23 -86h86l-4 -12l98 -96l-84 -332h-211q-37 -135 -69.5 -264t-67.5 -265h92l-4 -12l98 -96l-86 -334h-215q-10 -43 -23 -94 t-24 -92h-346l-96 96h-14l28 117q-45 20 -90 61l-57 57q-14 8 -25.5 18.5t-23.5 22.5q-92 93 -92 226zM-332 285q0 -123 82 -205q80 -80 203 -80h35l-49 -186h292l48 186h215l73 285h-215l178 686h211l72 282h-209l51 195h-293l-51 -195h-186q-96 0 -174 -59 q-76 -57 -101 -154l-172 -686q-10 -36 -10 -69zM-27 354q0 12 2 19l136 545q12 53 69 53h58l-179 -686h-16q-70 -1 -70 69z" />
<glyph unicode="&#xa3;" horiz-adv-x="962" d="M-500 -31l236 914h-62l-96 96h-14l86 305h188q4 20 11.5 45t11.5 45q12 47 25.5 94.5t23.5 94.5q14 53 40.5 94t72.5 76q88 66 192 65h369l-4 -12l98 -96l-84 -332h-221q-35 0 -45 -35l-11 -39h127l-4 -12l99 -96l-82 -293h-240q-41 -152 -76 -287t-71 -281h403l-4 -12 l98 -96l-84 -334h-872l-96 96h-15zM-459 0h819l72 285h-524l186 725h242l67 243h-247l45 179q12 53 69 53h201l72 282h-328q-96 0 -174 -59q-76 -57 -100 -154l-78 -301h-191l-67 -243h196z" />
<glyph unicode="&#xa4;" horiz-adv-x="1476" d="M-477 289l448 424q-4 16 -5 31.5t-1 39.5q0 23 3 41.5t7 36.5q8 31 15.5 62.5t17.5 66.5q8 33 16.5 67t16.5 62q0 2 1 3t1 3l4 17q-29 49 -60.5 107.5t-62.5 115.5l-45 82q-23 41 -41 76h400l16 -25l84 -84l35 -57h207q14 0 28.5 -1t26.5 -3q16 16 37.5 38.5t38.5 39.5 q23 23 47 49t45 47l495 -2l-10 -10l98 -99l-407 -385q8 -25 10 -46t2 -46q0 -35 -10 -76q-14 -57 -28.5 -116.5t-28.5 -116.5q-8 -39 -35 -84q47 -78 105.5 -171t105.5 -169h-416l-96 96h-10l-41 70h-154q-47 0 -82 8q-45 -47 -91 -95t-91 -96l-479 3l-97 96h-20zM-401 319 l407 -2l187 195q39 -12 88 -12h206h17l92 -166h358l-196 315q27 45 39 90l57 234q10 37 10 69q0 51 -16 101l375 352l-408 2l-170 -176q-31 6 -65 6h-234h-20l-103 166h-334l193 -348q-8 -20 -10 -31l-66 -260q-10 -37 -10 -70q0 -23 3 -42t7 -40zM301 854q0 12 2 18l29 119 q12 51 69 51h134q35 0 34 -34q0 -6 -2 -9l-39 -163q-12 -51 -69 -52h-86q-72 0 -72 70zM440 815h19q29 0 39 29q4 16 8 33.5t8 37.5h-10q-37 0 -45 -32z" />
<glyph unicode="&#xa5;" horiz-adv-x="1310" d="M-252 72l86 305h199q4 20 9 41.5t9 40.5v6h-59l-96 96h-15l86 305h180v4q-66 33 -104 80l-53 54q-145 104 -146 256q0 23 3 41t8 36l127 467h358l-4 -12l98 -96l-127 -465q51 -27 84 -41l35 17l35 18q23 10 46 22.5t50 22.5q29 6 35 33l139 501h359l-5 -12l99 -96 l-168 -621q-41 -152 -209 -217l-37 -14l86 -86l-82 -293h-237q-12 -45 -21 -88h113l-4 -12l98 -97l-82 -293h-225q-6 -27 -14.5 -55.5t-12.5 -50.5h-342l-96 96h-14l2 10h-80l-97 97h-14zM-211 102h211l-25 -106h291l27 106h227l68 244h-234l62 246h237l68 244h-246l19 67 l202 80q156 61 193 201l160 590h-293l-133 -480q-10 -39 -48 -51l-184 -86l-168 82q-49 25 -49 68q0 12 2 18l123 449h-293l-121 -445q-10 -37 -10 -69q0 -164 201 -273l117 -63l-21 -88h-182l-68 -244h193l-58 -246h-200z" />
<glyph unicode="&#xa6;" horiz-adv-x="509" d="M-537 -158l256 996h359l-4 -13l98 -96l-252 -983h-346l-96 96h-15zM-496 -127h293l240 934h-293zM-203 1143l209 809h359l-5 -13l99 -96l-205 -796h-346l-96 96h-15zM-162 1174h293l193 747h-293z" />
<glyph unicode="&#xa7;" horiz-adv-x="1167" d="M-494 -31l91 346h583q16 0 25.5 9.5t13.5 21.5l12 55h-30q-127 0 -219 86l-62 62q-23 14 -45 37q-92 92 -92 227q0 23 3 41t7 37q4 18 9 36.5t10 39.5q4 18 10 36.5t10 38.5q-8 23 -10 44.5t-2 50.5q0 43 8 77q10 43 21.5 87.5t23.5 89.5q10 43 22.5 89t24.5 89 q14 49 43 94t70 76q88 66 192 65h729l-4 -12l99 -96l-84 -332h-443q51 -25 99 -68q12 -12 22 -25.5t21 -25.5l55 -55q90 -90 90 -221q0 -35 -10 -76l-37 -148q6 -18 8 -38.5t2 -40.5q0 -18 -2 -37t-8 -39h2q-31 -123 -62.5 -243t-62.5 -243q-29 -106 -111 -167 q-86 -63 -190 -64h-721l-96 96h-15zM-453 0h689q98 0 176 59q76 59 100 154l125 485q8 31 8 70q0 43 -12 80l39 153q10 37 10 70q0 123 -82 205q-80 80 -203 80h-209l23 82q16 53 70 53h561l71 283h-688q-96 0 -174 -60q-76 -57 -100 -153l-92 -355q-8 -31 -9 -69 q0 -51 15 -95l-41 -159q-10 -37 -10 -70q0 -123 82 -205q82 -80 202 -80h201l-49 -190q-12 -53 -70 -53h-559zM119 883q0 12 2 18l29 119q12 51 69 51h133q35 0 35 -35q0 -6 -2 -8l-39 -164q-12 -51 -70 -51h-86q-71 0 -71 70zM258 844h18q29 0 39 28l8.5 34t8.5 38h-10 q-37 0 -46 -33z" />
<glyph unicode="&#xa8;" horiz-adv-x="1200" d="M47 1507l90 303h320l-4 -12l98 -96l-86 -291h-307l-97 96h-14zM88 1538h256l72 242h-256zM559 1505l88 303h322l-4 -12l98 -96l-86 -291h-307l-97 96h-14zM600 1536h256l72 242h-258z" />
<glyph unicode="&#xa9;" horiz-adv-x="1720" d="M-416 285q0 23 3 41t7 36l312 1207q14 53 40.5 94t71.5 76q88 66 193 65h864q131 0 221 -90q12 -12 22.5 -25.5t20.5 -25.5l56 -55q90 -90 90 -219q0 -18 -2 -38t-8 -40h2q-76 -297 -153 -590t-153 -590q-31 -119 -122 -186l-2 2q-96 -74 -209 -74h-836q-127 0 -219 86 l-62 61q-23 14 -45 37q-92 93 -92 228zM-385 285q0 -123 82 -205q82 -80 203 -80h835q111 0 197 68q86 66 112 172l306 1179q8 31 8 72q0 121 -82 203q-80 80 -201 80h-864q-96 0 -174 -60q-76 -57 -100 -153l-312 -1207q-10 -36 -10 -69zM-80 354q0 12 2 19l275 1065 q12 53 69 53h762q37 0 37 -37q0 -6 -2 -8l-309 -1114q10 -47 -45 -47h-717q-72 -1 -72 69zM61 315h293q-10 8 -21 17.5t-22 19.5l-59 58q-12 10 -24.5 19t-22.5 22q-57 57 -78 120zM143 676q0 -123 82 -205q80 -80 203 -80h219l74 285h-203q-70 0 -69 69q0 12 2 19l67 268 q12 53 47 47l262 6l72 283h-367q-96 0 -174 -59q-76 -57 -100 -154l-104 -410q-11 -36 -11 -69zM319 1317q4 4 9.5 8t11.5 8q10 8 22.5 16.5t24.5 14.5h-18q-35 0 -45 -35zM590 707h172l-4 -13l49 -49l88 311l-231 -4q-8 2 -19 -28zM961 1364l36 -39l11 39h-47z" />
<glyph unicode="&#xaa;" horiz-adv-x="1239" d="M-291 633l121 473q45 168 215 221q18 4 37 10l37 13q16 4 29.5 9t29.5 9h-72l-96 96h-14l90 344h403q131 0 222 -90q12 -12 22 -25.5t21 -25.5l55 -55q90 -90 90 -219q0 -49 -10 -78h2q-49 -190 -100.5 -389t-100.5 -389h-870l-96 96h-15zM-250 664h817l197 759 q8 27 8 72q0 121 -82 203q-80 80 -201 80h-378l-74 -283h405q37 0 37 -41l-12 -33l-414 -123q-154 -47 -192 -200zM117 948l8 41q6 35 47 49l211 64l-35 -154h-231z" />
<glyph unicode="&#xab;" horiz-adv-x="1503" d="M-358 887l419 397h418l-10 -10l98 -98l-391 -408q59 -94 127 -205.5t125 -204.5h-442l-97 97h-10zM-319 883l219 -398h383l-240 389l365 379h-334zM340 887l420 397h418l-11 -10l99 -98l-392 -408q59 -94 127 -205.5t125 -204.5h-442l-96 97h-10zM379 883l219 -398h383 l-240 389l365 379h-334z" />
<glyph unicode="&#xac;" horiz-adv-x="1282" d="M63 762l87 305h1069l-5 -12l99 -97l-139 -512h-310l-96 97h-14l30 123h-610l-96 96h-15zM104 793h748l-57 -220h256l127 463h-1006z" />
<glyph unicode="&#xad;" horiz-adv-x="974" d="M-238 979l86 305h795l-4 -12l98 -96l-82 -293h-782l-96 96h-15zM-197 1010h732l67 243h-731z" />
<glyph unicode="&#xae;" horiz-adv-x="1536" d="M-416 285q0 23 3 41t7 36l312 1207q14 53 40.5 94t71.5 76q88 66 193 65h905q131 0 221 -90q12 -12 22.5 -25.5t20.5 -25.5l56 -55q90 -90 90 -219q0 -18 -2 -38t-8 -40h2q-76 -297 -153 -590t-153 -590q-31 -119 -122 -186l-3 2q-96 -74 -208 -74h-877q-127 0 -219 86 l-62 61q-23 14 -45 37q-92 93 -92 228zM-385 285q0 -123 82 -205q82 -80 203 -80h876q111 0 197 68q86 66 112 172l306 1179q8 31 8 72q0 121 -82 203q-80 80 -201 80h-905q-96 0 -174 -60q-76 -57 -100 -153l-312 -1207q-10 -36 -10 -69zM-80 354q0 12 2 19l275 1065 q12 53 69 53h803q37 0 37 -37q0 -6 -2 -8l-287 -1108q-12 -53 -67 -53h-758q-72 -1 -72 69zM6 371h293l78 303l39 12q12 4 18 4q72 0 72 -72q0 -12 -2 -18l-62 -229h293l76 282q8 31 8 70q0 51 -18 104q70 57 92 148l18 76q10 37 11 71q0 121 -82 203q-80 80 -201 80h-365z M461 997l33 125h98q35 0 35 -37v-8l2 6q-8 -37 -47 -49zM840 1364q8 -6 20 -18t22.5 -25.5t20.5 -26.5l49 -51l-2 2l8 -6q12 -14 23.5 -27.5t22.5 -29.5q12 47 24 91t23 91h-211z" />
<glyph unicode="&#xaf;" d="M55 1505l78 310l803 -3l-4 -12l98 -96l-76 -297l-788 2l-96 96h-15zM96 1536l735 -2l64 248l-735 2z" />
<glyph unicode="&#xb0;" horiz-adv-x="1167" d="M-135 1235q0 23 3 41t7 37l66 260q27 100 110 168q88 68 195 67h233q133 0 223 -90q12 -12 22.5 -25.5t20.5 -25.5l50 -51l-2 2l8 -6q90 -90 90 -221q0 -35 -10 -76q-14 -57 -28.5 -116.5t-29.5 -117.5q-31 -119 -125 -186h-2q-96 -72 -207 -72h-206q-127 0 -220 86 l-63 62q-23 14 -43 37q-92 92 -92 227zM-104 1235q0 -123 81 -205q82 -80 203 -80h207q109 0 195 68q88 66 114 172l58 233q10 37 10 70q0 123 -82 205q-80 80 -203 80h-233q-98 0 -176 -60q-74 -59 -99 -153l-65 -260q-10 -37 -10 -70zM201 1305q0 12 2 18l28 119 q12 51 70 51h133q35 0 35 -35q0 -6 -2 -8l-39 -164q-12 -51 -70 -51h-86q-71 0 -71 70zM340 1266h18q29 0 39 28l8.5 34t8.5 38h-11q-37 0 -45 -33z" />
<glyph unicode="&#xb1;" horiz-adv-x="872" d="M-590 176l86 305h250l-20 21h-15l39 143h-41l-96 96h-14l86 306h161q10 37 21.5 78.5t21.5 82.5q4 20 11.5 41t11.5 37h324l-5 -12l99 -96l-35 -131h76l-4 -13l98 -96l-82 -293h-186q-10 -37 -22.5 -80t-22.5 -84h139l-4 -12l98 -96l-82 -293h-782l-96 96h-15zM-549 207 h731l68 244h-731zM-360 772h178l-66 -240h258l64 240h188l68 244h-199l64 239h-258l-64 -239h-166z" />
<glyph unicode="&#xb2;" horiz-adv-x="974" d="M-299 633l135 508q23 82 75 139t138 84h-49l-96 96h-15l91 340h407q55 0 102.5 -26.5t94.5 -85.5l12 -19l51 -49q8 -10 15.5 -18.5t17.5 -18.5l2 -2q66 -88 66 -168q0 -27 -9 -49h2q-8 -35 -17 -68.5t-17 -68.5q-23 -86 -73 -139.5t-136 -79.5l-92 -27h139l-4 -12l98 -97 l-84 -335h-743l-97 96h-14zM-258 664h690l72 286h-395l22 72q12 39 47 51l211 62q78 23 124 72.5t67 127.5l34 138q6 18 7 43q0 74 -62 153q-41 53 -83 76.5t-89 23.5h-383l-74 -278h349q16 0 28 -18q10 -18 8 -29q-8 -39 -47 -49l-211 -62q-78 -23 -124 -73t-66 -127z" />
<glyph unicode="&#xb3;" horiz-adv-x="796" d="M-319 633l94 344h334h10l-66 67h-14l78 316h-111l-96 96h-14l86 348l321 -4q66 -2 123 -26.5t98 -63.5q10 -10 19.5 -21.5t17.5 -21.5l68 -68q84 -84 84 -215q0 -18 -2 -36.5t-9 -38.5h3q-4 -23 -11.5 -48.5t-11.5 -48.5q-10 -43 -30.5 -79.5t-57.5 -69.5q14 -43 14 -96 q0 -18 -2 -37t-8 -39l-37 -121l2 -2q-16 -53 -41.5 -94t-68.5 -74q-86 -63 -189 -63h-473l-96 96h-14zM-279 664h441q96 0 174 59q39 29 62.5 67.5t37.5 86.5l37 122q8 31 8 70q0 55 -20 105q74 61 94 147l23 94q8 31 8 72q0 121 -82 201q-78 78 -201 81l-295 5l-71 -287 h321q35 0 35 -37v-8v-15q-25 -59 -82 -71h-59l-72 -281h57q45 6 45 -37q0 -14 -6 -32v-7q-12 -53 -67 -53h-310z" />
<glyph unicode="&#xb4;" horiz-adv-x="1200" d="M340 1505l174 310h326l-6 -11l98 -98l-168 -297h-311l-97 96h-16zM391 1536h256l141 248h-256z" />
<glyph unicode="&#xb5;" horiz-adv-x="1343" d="M-420 -430l12 4l-4 2l-6 2l211 817v4l2 7l213 827h357l-5 -12l99 -97l-207 -809h336l57 226q29 113 60 229q29 115 60.5 233.5t59.5 229.5h361l-4 -12l98 -97l-324 -1251h-766h-24q-10 0 -25 2q-25 -94 -52.5 -201.5t-49.5 -199.5h-348l-97 96h-14zM-379 -399h295 l104 405q33 -6 68 -6h746l311 1202h-295l-236 -917h-479q-35 0 -35 34v7l17 65l207 811h-291l-209 -811l-4 -16q2 4 2 8t2 8h-2zM-176 391v2v-2z" />
<glyph unicode="&#xb6;" horiz-adv-x="1703" d="M-168 1260q0 23 3 41t7 36q6 29 13.5 57.5t15.5 57.5t15.5 58.5t15.5 58.5q29 106 112 170q88 66 193 65h868q131 0 223 -90q12 -12 22.5 -25.5t20.5 -25.5l56 -55q90 -90 90 -219q0 -37 -10 -78l-371 -1438h-346l-96 96h-15l361 1395h-72q-43 -170 -92 -358.5 t-92 -358.5q-2 -14 -4 -27.5t-9 -29.5h2q-31 -123 -61.5 -236.5t-60.5 -236.5q-4 -16 -13 -37l-12 -31l2 -2q-10 -39 -22.5 -87t-22.5 -87h-209l-35 -8l-8 8h-94l-96 96h-15l221 842q-41 12 -79.5 25.5t-79.5 25.5q-78 25 -129 76l-60 59q-47 31 -75 74q-62 83 -62 189z M-137 1260q0 -96 55 -170t145 -103l246 -76q45 -14 51 -55l-223 -856h80h10h203l41 158q6 14 11 27.5t10 27.5l124 485q4 14 7 29l4 29l188 735h213q37 0 37 -37v-8l-375 -1446h293l367 1419q10 37 10 72q0 121 -82 203q-84 80 -203 80h-868q-96 0 -174 -60 q-76 -57 -101 -153l-59 -232q-10 -36 -10 -69zM217 0l8 -12l2 12h-10zM489 152l5 -2q2 10 10 30.5t14 36.5q-6 -16 -13.5 -31.5t-15.5 -33.5z" />
<glyph unicode="&#xb7;" horiz-adv-x="573" d="M-215 981l88 303h322l-5 -12l99 -96l-86 -291h-307l-97 96h-14zM-174 1012h256l72 241h-258z" />
<glyph unicode="&#xb8;" horiz-adv-x="1191" d="M-80 -154l94 322l265 -4l-3 -12l99 -97l-19 -172l-157 -133h-168l-97 96h-14zM-41 -123h129l141 121l17 135l-209 4z" />
<glyph unicode="&#xb9;" horiz-adv-x="509" d="M-334 633l305 1171h359l-4 -12l98 -96l-301 -1159h-346l-96 96h-15zM-293 664h293l289 1110h-293z" />
<glyph unicode="&#xba;" horiz-adv-x="1271" d="M-184 946q0 23 3 41.5t7 36.5l139 549q27 100 111 168q88 68 194 67h234q133 0 223 -90q12 -12 22.5 -25.5t20.5 -25.5l49 -51l-2 2l8 -6q90 -90 90 -221q0 -35 -10 -76q-33 -129 -66.5 -261t-64.5 -261q-31 -119 -125 -187h-2q-96 -72 -207 -71h-207q-127 0 -219 86 l-61 61q-23 14 -45 37q-92 92 -92 227zM-154 946q0 -123 82 -205q82 -80 203 -79h207q109 0 194 67q88 66 115 172l131 522q10 37 10 70q0 123 -81 205q-80 80 -203 80h-234q-98 0 -176 -60q-74 -59 -98 -153l-139 -549q-11 -37 -11 -70zM152 1016q0 12 2 18l102 408 q12 51 70 51h133q35 0 35 -35q0 -6 -2 -8l-113 -453q-12 -51 -70 -51h-86q-71 0 -71 70zM293 977h16q29 0 39 29q23 90 46.5 179t45.5 181h-12q-37 0 -45 -33z" />
<glyph unicode="&#xbb;" horiz-adv-x="1316" d="M-516 455l397 413q-29 45 -57.5 91.5t-59.5 97.5q-35 57 -71.5 118.5t-67.5 108.5h459l12 -22l86 -86l234 -426l-414 -392h-401l-97 97h-20zM-444 485h333l394 371l-220 397h-382l239 -389zM182 455l398 413q-29 45 -57.5 91.5t-59.5 97.5q-35 57 -72 118.5t-67 108.5 h458l13 -22l86 -86l233 -426l-414 -392h-401l-96 97h-21zM254 485h334l393 371l-219 397h-383l239 -389z" />
<glyph unicode="&#xbc;" horiz-adv-x="2091" d="M-326 633l306 1171h358l-4 -12l98 -96l-244 -936l596 1055h363l-6 -11l98 -98l-321 -565h272l-4 -13l92 -92q8 27 14 52.5t15 52.5h358l-4 -13l98 -96l-291 -1159h-346l-96 96h-14l69 305h-340l-96 97h-14l125 483l-553 -981h-348l-97 96h-16l319 568h-276l-96 96h-15z M-285 664h293l289 1110h-293zM-207 0h293l1010 1784h-293zM672 401h473l-92 -401h293l278 1110h-293l-112 -416h-172l102 416h-293z" />
<glyph unicode="&#xbd;" horiz-adv-x="1964" d="M-328 633l305 1171h359l-4 -12l98 -96l-256 -979l621 1098h362l-6 -11l98 -98l-323 -569h323q106 0 197 -113q2 -6 10 -14l57 -58q8 -8 15.5 -16t15.5 -18q31 -43 48.5 -85t17.5 -83q0 -27 -8 -50h2q-8 -35 -17.5 -68.5t-17.5 -68.5q-23 -86 -73 -139t-136 -80l-92 -27 h139l-4 -12l98 -96l-84 -336h-743l-96 96h-15l135 508q23 82 75 139.5t138 83.5h-49l-96 97h-14l14 53l-553 -977h-348l-96 96h-17l320 568h-289l-96 96h-15zM-287 664h293l289 1110h-293zM-197 0h293l1010 1784h-293zM604 0h690l72 287h-395l22 71q12 39 47 52l211 61 q78 23 124 73t67 128l35 137q6 18 6 43q0 74 -62 154q-76 100 -172 100h-383l-73 -279h348q16 0 28 -18q10 -18 9 -29q-8 -39 -48 -49l-210 -61q-78 -23 -124 -73t-67 -128z" />
<glyph unicode="&#xbe;" horiz-adv-x="2519" d="M-328 633l95 344h333h11l-66 67h-14l78 316h-111l-96 96h-15l86 348l322 -4q66 -2 123 -26.5t98 -63.5q10 -10 19.5 -21.5t17.5 -21.5l68 -68q84 -84 84 -215q0 -18 -2.5 -36.5t-8.5 -38.5h2q-4 -23 -11 -48.5t-11 -48.5q-10 -43 -30.5 -79.5t-57.5 -69.5q14 -43 14 -94 l477 846h363l-6 -11l98 -98l-322 -565h273l-4 -13l92 -92q8 27 14 52.5t14 52.5h359l-4 -13l98 -96l-291 -1159h-346l-96 96h-14l69 305h-340l-96 97h-14l125 483l-553 -981h-349l-96 96h-16l332 588q-27 -10 -54.5 -15t-56.5 -5h-473l-96 96h-15zM-287 664h441q96 0 174 59 q39 29 62.5 67.5t37.5 86.5l37 122q8 31 8 70q0 55 -20 105q74 61 94 147l22 94q8 31 9 72q0 121 -82 201q-78 78 -201 81l-295 5l-72 -287h322q35 0 35 -37v-8v-15q-25 -59 -82 -71h-60l-71 -281h57q45 6 45 -37q0 -14 -6 -32v-7q-12 -53 -68 -53h-309zM86 0h293l1010 1784 h-293zM965 401h473l-92 -401h292l279 1110h-293l-113 -416h-172l103 416h-293z" />
<glyph unicode="&#xbf;" horiz-adv-x="1163" d="M-416 258q0 27 6 51q25 96 49.5 193.5t49.5 193.5q43 174 215 224q29 8 59.5 16t61.5 18t61.5 17.5t58.5 15.5q10 4 16.5 12.5t10.5 16.5q8 35 15.5 73.5t17.5 77.5q10 47 19 94.5t20 88.5h372l-4 -13l99 -96l-115 -453q-43 -166 -211 -217q-59 -16 -121.5 -33.5 t-122.5 -33.5q-18 -6 -28 -33q-10 -39 -22.5 -78t-22.5 -78h622l-4 -12l98 -96l-84 -334h-757q-10 0 -19.5 1t-23.5 5l2 -2q-59 14 -109 66l-59 59q-23 14 -43.5 34.5t-40.5 47.5q-33 47 -49.5 89t-16.5 85zM-385 258q0 -74 59 -156q61 -80 131 -98q10 -4 22 -4h21h730 l71 285h-692q-18 0 -31 22q-8 14 -6 27l66 246q12 43 47 51l243 67q154 43 193 199l106 422h-305l-67 -311q-8 -37 -47 -50l-244 -69q-154 -43 -193 -201l-98 -387q-6 -18 -6 -43zM307 1460l92 344h322l-4 -12l98 -96l-88 -332h-309l-96 96h-15zM348 1491h256l76 283h-256z " />
<glyph unicode="&#xc0;" horiz-adv-x="1200" d="M-475 -31l149 590q43 170 215 221q82 25 161 48.5t157 48.5l155 49q78 25 160 49l21 82h-533l-96 96h-14l90 344h258l-8 8h-11l-112 310h319l6 -17l93 -92l75 -209q131 0 221 -90q12 -12 22.5 -25.5t20.5 -25.5l50 -51l-2 2l8 -7q90 -90 90 -219q0 -49 -10 -77h2 q-72 -281 -144.5 -565.5t-144.5 -565.5h-1088l-96 96h-14zM-434 0h1034l285 1112q8 27 8 72q0 121 -82 202q-80 80 -201 80h-596l-73 -282h622q39 0 35 -41l-47 -193l-653 -198q-154 -47 -193 -201zM-68 285l37 157q10 37 47 50l451 139l-86 -346h-449zM90 315h264 q2 6 4 14.5t4 14.5q8 29 13.5 54.5t11.5 47.5l-260 -79q-10 -4 -18.5 -14.5t-12.5 -18.5zM160 1784l90 -248h256l-90 248h-256z" />
<glyph unicode="&#xc1;" horiz-adv-x="1200" d="M-475 -31l149 590q43 170 215 221q82 25 161 48.5t157 48.5l155 49q78 25 160 49l21 82h-533l-96 96h-14l90 344h375l-9 8h-16l174 310h326l-6 -11l98 -98l-148 -260q12 -10 24.5 -19.5t22.5 -19.5q12 -12 22.5 -25.5t20.5 -25.5l56 -56q90 -90 90 -219q0 -49 -10 -77h2 q-72 -281 -144.5 -565.5t-144.5 -565.5h-1088l-96 96h-14zM-434 0h1034l285 1112q8 27 8 72q0 121 -82 202q-80 80 -201 80h-596l-73 -282h622q39 0 35 -41l-47 -193l-653 -198q-154 -47 -193 -201zM-68 285l37 157q10 37 47 50l451 139l-86 -346h-449zM90 315h264 q2 6 4 14.5t4 14.5q8 29 13.5 54.5t11.5 47.5l-260 -79q-10 -4 -18.5 -14.5t-12.5 -18.5zM391 1536h256l141 248h-256z" />
<glyph unicode="&#xc2;" horiz-adv-x="1200" d="M-475 -31l149 590q43 170 215 221q82 25 161 48.5t157 48.5l155 49q78 25 160 49l21 82h-533l-96 96h-14l90 344h78l-9 8l-14 -2l68 248l374 64l392 -68l-5 -10l99 -97l-64 -229l-102 19q6 -6 12 -11.5t12 -11.5q12 -12 22.5 -25.5t20.5 -25.5l56 -56q90 -90 90 -219 q0 -49 -10 -77h2q-72 -281 -144.5 -565.5t-144.5 -565.5h-1088l-96 96h-14zM-434 0h1034l285 1112q8 27 8 72q0 121 -82 202q-80 80 -201 80h-596l-73 -282h622q39 0 35 -41l-47 -193l-653 -198q-154 -47 -193 -201zM-68 285l37 157q10 37 47 50l451 139l-86 -346h-449z M88 1542l361 62l339 -62l52 180l-353 62l-348 -62zM90 315h264q2 6 4 14.5t4 14.5q8 29 13.5 54.5t11.5 47.5l-260 -79q-10 -4 -18.5 -14.5t-12.5 -18.5z" />
<glyph unicode="&#xc3;" horiz-adv-x="1200" d="M-475 -31l149 590q43 170 215 221q82 25 161 48.5t157 48.5l155 49q78 25 160 49l21 82h-533l-96 96h-14l90 344h33l57 209l145 84q51 27 101 27q45 0 143 -56q82 -49 106 -49q25 0 62 17l225 98l-6 -19l98 -96l-69 -239l-84 -41l30 -25q12 -12 22.5 -25.5t20.5 -25.5 l50 -51l-2 2l8 -7q90 -90 90 -219q0 -49 -10 -77h2q-72 -281 -144.5 -565.5t-144.5 -565.5h-1088l-96 96h-14zM-434 0h1034l285 1112q8 27 8 72q0 121 -82 202q-80 80 -201 80h-596l-73 -282h622q39 0 35 -41l-47 -193l-653 -198q-154 -47 -193 -201zM-68 285l37 157 q10 37 47 50l451 139l-86 -346h-449zM59 1507l152 76q37 16 68 16q27 0 110 -49q84 -47 129 -47q43 0 96 19l148 69l51 181l-164 -72q-41 -18 -74 -19q-33 0 -122 54q-88 51 -127 51q-20 0 -42 -5t-44 -18l-131 -75zM90 315h264q2 6 4 14.5t4 14.5q8 29 13.5 54.5t11.5 47.5 l-260 -79q-10 -4 -18.5 -14.5t-12.5 -18.5z" />
<glyph unicode="&#xc4;" horiz-adv-x="1200" d="M-475 -31l149 590q43 170 215 221q82 25 161 48.5t157 48.5l155 49q78 25 160 49l21 82h-533l-96 96h-14l90 344h82l-11 10h-14l90 303h320l-4 -12l98 -96l-62 -205h93l-9 8h-14l88 303h322l-4 -12l98 -96l-86 -291h-148q0 -2 2 -2q12 -12 22.5 -25.5t20.5 -25.5l50 -51 l-2 2l8 -7q90 -90 90 -219q0 -49 -10 -77h2q-72 -281 -144.5 -565.5t-144.5 -565.5h-1088l-96 96h-14zM-434 0h1034l285 1112q8 27 8 72q0 121 -82 202q-80 80 -201 80h-596l-73 -282h622q39 0 35 -41l-47 -193l-653 -198q-154 -47 -193 -201zM-68 285l37 157q10 37 47 50 l451 139l-86 -346h-449zM88 1538h256l72 242h-256zM90 315h264q2 6 4 14.5t4 14.5q8 29 13.5 54.5t11.5 47.5l-260 -79q-10 -4 -18.5 -14.5t-12.5 -18.5zM600 1536h256l72 242h-258z" />
<glyph unicode="&#xc5;" horiz-adv-x="1200" d="M-475 -31l149 590q43 170 215 221q82 25 161 48.5t157 48.5l155 49q78 25 160 49l21 82h-533l-96 96h-14l90 344h344l-4 2q-6 4 -15 12q-72 49 -71 129q0 80 71 132q61 43 140 43q78 0 139 -43q37 -29 55 -64l66 -63q23 -23 35 -48.5t12 -58.5q0 -37 -19 -70 q49 -23 88 -61q12 -12 22.5 -25.5t20.5 -25.5l56 -56q90 -90 90 -219q0 -49 -10 -77h2q-72 -281 -144.5 -565.5t-144.5 -565.5h-1088l-96 96h-14zM-434 0h1034l285 1112q8 27 8 72q0 121 -82 202q-80 80 -201 80h-596l-73 -282h622q39 0 35 -41l-47 -193l-653 -198 q-154 -47 -193 -201zM-68 285l37 157q10 37 47 50l451 139l-86 -346h-449zM90 315h264q2 6 4 14.5t4 14.5q8 29 13.5 54.5t11.5 47.5l-260 -79q-10 -4 -18.5 -14.5t-12.5 -18.5zM274 1640q0 -61 60 -104q57 -39 121 -39q35 0 63.5 10.5t56.5 28.5q59 43 60 104q0 66 -60 107 q-53 37 -120 37q-70 0 -121 -37q-60 -41 -60 -107zM383 1636q0 29 23 47q23 20 55 21q31 0 53 -18q25 -23 25 -50q0 -68 -78 -67q-78 -1 -78 67z" />
<glyph unicode="&#xc6;" horiz-adv-x="1937" d="M-475 -31l176 688q43 170 215 222q82 25 161 48t159 48q76 23 157.5 49.5t159.5 48.5q12 47 23.5 94t23.5 97l12 50t15 50h-535l-96 96h-14l90 344h620q61 0 103 -26l43 -29q4 4 14 8l-2 -2q8 6 15 12.5t18 14.5q37 29 92 28h450q129 0 224 -88q31 -31 49 -57l55 -55 q90 -88 84 -213q-2 -25 -4 -44.5t-6 -35.5q-16 -59 -31.5 -125t-32.5 -125q-43 -164 -211 -217l-639 -197q-23 -80 -44 -165t-44 -169h549l-4 -12l98 -96l-86 -334l-1747 -4l-96 96h-14zM-434 0l1694 4l73 285h-622q-35 0 -35 35v10l112 440l656 201q152 47 192 201l64 249 q4 16 6 35t4 41q6 117 -82 199q-86 80 -203 80h-450q-45 0 -72 -21q-20 -16 -36.5 -27.5t-26.5 -21.5l-62 43q-35 20 -86 21h-596l-73 -283h622q37 0 37 -41l-104 -401l-654 -199q-154 -47 -192 -201zM-68 285l64 256q8 37 47 49l451 139l-113 -444h-449zM90 315h264 q10 45 21.5 83t21.5 79q4 16 9.5 34.5t9.5 35.5l-262 -82q-25 -8 -31 -33q-10 -33 -17.5 -60.5t-15.5 -56.5zM872 1096l91 346q16 53 67 53h303q72 -10 72 -72q0 -10 -2 -16l-33 -123q-10 -37 -47 -49zM1051 1182q16 4 29.5 9t29.5 9q53 16 103.5 31.5t99.5 32.5q8 4 15 11 t11 17l21 76h-227q-16 0 -27.5 -10t-15.5 -25q-10 -37 -19.5 -75.5t-19.5 -75.5z" />
<glyph unicode="&#xc7;" horiz-adv-x="1191" d="M-362 285q0 23 3 41t7 36l311 1207q14 53 41 94t72 76q88 66 192 65h729l-4 -12l98 -96l-83 -332h-582q-35 0 -45 -35l-262 -1014h493l-4 -12l98 -96l-86 -334h-251q-45 -31 -92.5 -64.5t-90.5 -62.5h-149l-96 96h-15l15 52q-29 10 -53.5 27.5t-47.5 39.5l-57 57 q-12 10 -24.5 19.5t-24.5 21.5q-92 93 -92 226zM-332 285q0 -123 82 -205q80 -80 203 -80h47l-37 -127h109l182 127h240l73 285h-524q-70 0 -70 69q0 12 2 19l275 1065q12 53 69 53h562l71 283h-688q-96 0 -174 -60q-76 -57 -100 -153l-312 -1207q-10 -36 -10 -69z" />
<glyph unicode="&#xc8;" horiz-adv-x="1232" d="M-393 285q0 23 3 41t7 36l225 887q14 53 41 94t72 76q88 66 192 66h113l-20 20h-11l-112 310h319l6 -17l93 -92l79 -221q121 -6 207 -86q31 -31 49 -58l48 -47h-3l11 -8q90 -88 84 -213q-2 -25 -4 -44t-7 -36q-12 -51 -25 -106.5t-26 -106.5q-39 -168 -211 -219l-2 2 q-164 -49 -319.5 -98t-317.5 -98q-4 -14 -7 -26.5t-7 -25.5h547l-4 -12l98 -96l-86 -334h-616q-156 0 -232 76l-65 65q-10 6 -20.5 14.5t-20.5 18.5q-78 78 -78 238zM-362 285q0 -150 67 -217q68 -68 215 -68h596l74 285h-623q-35 0 -35 34v9l41 159l656 201q156 45 192 201 l51 213q4 16 6.5 34.5t4.5 41.5q6 117 -82 198q-84 78 -203 78h-451q-96 0 -174 -59q-76 -57 -100 -154l-225 -887q-10 -36 -10 -69zM57 811l76 307q12 53 70 53h303q72 -10 72 -71q0 2 -5 -19l-18 -84q-10 -37 -47 -49zM160 1784l90 -248h256l-90 248h-256zM227 895 q16 4 32.5 9t33.5 9q51 16 104.5 32t100.5 32q8 4 15 11t11 18l8 38h-227q-16 0 -28.5 -10t-16.5 -24q-8 -31 -16.5 -58.5t-16.5 -56.5z" />
<glyph unicode="&#xc9;" horiz-adv-x="1232" d="M-393 285q0 23 3 41t7 36l225 887q14 53 41 94t72 76q88 66 192 66h230l-21 20h-16l174 310h326l-6 -11l98 -98l-154 -272q10 -8 21.5 -16.5t21.5 -18.5q31 -31 49 -58l56 -55q90 -88 84 -213q-2 -25 -4 -44t-7 -36q-12 -51 -25 -106.5t-26 -106.5q-39 -168 -211 -219 l-2 2q-164 -49 -319.5 -98t-317.5 -98q-4 -14 -7 -26.5t-7 -25.5h547l-4 -12l98 -96l-86 -334h-616q-156 0 -232 76l-65 65q-10 6 -20.5 14.5t-20.5 18.5q-78 78 -78 238zM-362 285q0 -150 67 -217q68 -68 215 -68h596l74 285h-623q-35 0 -35 34v9l41 159l656 201 q156 45 192 201l51 213q4 16 6.5 34.5t4.5 41.5q6 117 -82 198q-84 78 -203 78h-451q-96 0 -174 -59q-76 -57 -100 -154l-225 -887q-10 -36 -10 -69zM57 811l76 307q12 53 70 53h303q72 -10 72 -71q0 2 -5 -19l-18 -84q-10 -37 -47 -49zM227 895q16 4 32.5 9t33.5 9 q51 16 104.5 32t100.5 32q8 4 15 11t11 18l8 38h-227q-16 0 -28.5 -10t-16.5 -24q-8 -31 -16.5 -58.5t-16.5 -56.5zM391 1536h256l141 248h-256z" />
<glyph unicode="&#xca;" horiz-adv-x="1232" d="M-393 285q0 23 3 41t7 36l225 887q14 53 41 94t72 76q31 23 62.5 37t66.5 23l-27 26l-12 -2l68 248l374 64l392 -68l-5 -10l99 -97l-64 -229l-133 23q10 -8 22.5 -16.5t22.5 -18.5q31 -31 49 -58l56 -55q90 -88 84 -213q-2 -25 -4 -44t-7 -36q-12 -51 -25 -106.5 t-26 -106.5q-39 -168 -211 -219l-2 2q-164 -49 -319.5 -98t-317.5 -98q-4 -14 -7 -26.5t-7 -25.5h547l-4 -12l98 -96l-86 -334h-616q-156 0 -232 76l-65 65q-10 6 -20.5 14.5t-20.5 18.5q-78 78 -78 238zM-362 285q0 -150 67 -217q68 -68 215 -68h596l74 285h-623 q-35 0 -35 34v9l41 159l656 201q156 45 192 201l51 213q4 16 6.5 34.5t4.5 41.5q6 117 -82 198q-84 78 -203 78h-451q-96 0 -174 -59q-76 -57 -100 -154l-225 -887q-10 -36 -10 -69zM57 811l76 307q12 53 70 53h303q72 -10 72 -71q0 2 -5 -19l-18 -84q-10 -37 -47 -49z M88 1542l361 62l339 -62l52 180l-353 62l-348 -62zM227 895q16 4 32.5 9t33.5 9q51 16 104.5 32t100.5 32q8 4 15 11t11 18l8 38h-227q-16 0 -28.5 -10t-16.5 -24q-8 -31 -16.5 -58.5t-16.5 -56.5z" />
<glyph unicode="&#xcb;" horiz-adv-x="1232" d="M-393 285q0 23 3 41t7 36l225 887q14 53 41 94t72 76q31 23 62.5 37t66.5 23l-27 28h-14l90 303h320l-4 -12l98 -96l-64 -217h115h4l-22 22h-15l88 303h322l-4 -12l98 -96l-86 -291h-176q8 -8 14 -12q31 -31 49 -58l56 -55q90 -88 84 -213q-2 -25 -4 -44t-7 -36 q-12 -51 -25 -106.5t-26 -106.5q-39 -168 -211 -219l-2 2q-164 -49 -319.5 -98t-317.5 -98q-4 -14 -7 -26.5t-7 -25.5h547l-4 -12l98 -96l-86 -334h-616q-156 0 -232 76l-65 65q-10 6 -20.5 14.5t-20.5 18.5q-78 78 -78 238zM-362 285q0 -150 67 -217q68 -68 215 -68h596 l74 285h-623q-35 0 -35 34v9l41 159l656 201q156 45 192 201l51 213q4 16 6.5 34.5t4.5 41.5q6 117 -82 198q-84 78 -203 78h-451q-96 0 -174 -59q-76 -57 -100 -154l-225 -887q-10 -36 -10 -69zM57 811l76 307q12 53 70 53h303q72 -10 72 -71q0 2 -5 -19l-18 -84 q-10 -37 -47 -49zM84 1538h256l72 242h-256zM227 895q16 4 32.5 9t33.5 9q51 16 104.5 32t100.5 32q8 4 15 11t11 18l8 38h-227q-16 0 -28.5 -10t-16.5 -24q-8 -31 -16.5 -58.5t-16.5 -56.5zM606 1538h256l72 242h-258z" />
<glyph unicode="&#xcc;" horiz-adv-x="509" d="M-504 -31l393 1514h154l-20 20h-11l-112 309h319l6 -16l92 -92l109 -297h-117l33 -33l-389 -1501h-346l-96 96h-15zM-463 0h293l377 1452h-293zM-57 1782l90 -248h256l-90 248h-256z" />
<glyph unicode="&#xcd;" horiz-adv-x="509" d="M-504 -31l393 1514h62l-23 22h-16l174 312h326l-6 -11l98 -98l-168 -299h-29l35 -35l-389 -1501h-346l-96 96h-15zM-463 0h293l377 1452h-293zM-37 1536h256l141 250h-256z" />
<glyph unicode="&#xce;" horiz-adv-x="509" d="M-504 -31l391 1501l-41 41q-4 0 -7 -1t-7 -1l70 250l266 62l272 -66l-4 -10l99 -96l-64 -230l-225 56l-2 -5l98 -96l-389 -1501h-346l-96 96h-15zM-463 0h293l377 1452h-293zM-123 1552l250 56l223 -56l51 181l-233 55l-240 -55z" />
<glyph unicode="&#xcf;" horiz-adv-x="509" d="M-504 -31l375 1444h-39l-96 96h-15l89 303h319l-4 -12l43 -43l18 60h322l-4 -13l98 -96l-86 -291h-217l43 -43l-389 -1501h-346l-96 96h-15zM-463 0h293l377 1452h-293zM-238 1540h256l70 242h-256zM139 1544h256l72 242h-258z" />
<glyph unicode="&#xd0;" horiz-adv-x="1210" d="M-399 -31l170 649l-84 84h-15l88 312h115q49 199 100.5 397.5t100.5 394.5l600 -2q131 0 221 -90q12 -12 22.5 -25.5t20.5 -25.5l55 -55q90 -90 90 -219q0 -37 -10 -78l-303 -1180q-31 -119 -125 -186l-2 2q-96 -74 -207 -74h-727l-96 96h-14zM-358 0h694q109 0 194 68 q88 66 115 172l303 1179q10 37 10 72q0 121 -81 203q-80 80 -201 80l-576 2l-198 -793h-117l-72 -250h121zM8 285l117 448h141l66 250h-142l129 508h310q35 0 35 -37v-8l-287 -1108q-12 -53 -70 -53h-299zM170 315h137q16 0 25.5 9.5t13.5 21.5q63 252 131 507t133 511h-170 q-25 -92 -45 -177t-43 -173h21l-4 -13l98 -96l-78 -299h-141q-23 -78 -41.5 -148.5t-36.5 -142.5z" />
<glyph unicode="&#xd1;" horiz-adv-x="1294" d="M-500 -31l387 1489h125l68 248l145 84q51 27 101 27q45 0 143 -56q82 -49 106 -49q25 0 62 17l225 98l-6 -19l98 -96l-69 -239l-97 -48q43 -23 82 -57q12 -12 22.5 -25.5t20.5 -25.5l56 -55q90 -90 90 -220q0 -37 -10 -77l-283 -1092h-346l-96 96h-15l273 1049h-328 q-72 -283 -148.5 -572.5t-148.5 -572.5h-346l-96 96h-15zM-459 0h293l297 1145h469q37 0 37 -37v-8l-287 -1100h293l279 1073q10 37 10 72q0 121 -82 203q-84 80 -203 79h-735zM59 1507l152 76q37 16 68 16q27 0 110 -49q84 -47 129 -47q43 0 96 19l148 69l51 181l-164 -72 q-41 -18 -74 -19q-33 0 -122 54q-88 51 -127 51q-20 0 -42 -5t-44 -18l-131 -75zM324 1458h100q-29 14 -43 15q-10 0 -26.5 -5.5t-30.5 -9.5z" />
<glyph unicode="&#xd2;" horiz-adv-x="1200" d="M-416 285q0 33 10 77l213 881q27 106 113 166q45 35 92 52.5t101 17.5h153l-26 26h-11l-112 310h319l6 -17l93 -92l81 -233q104 -16 168 -87q8 -10 15.5 -18t13.5 -18l66 -64q-2 2 -3.5 2t-3.5 2l13 -10h-2q90 -90 90 -219q0 -47 -8 -78q-51 -211 -103.5 -426 t-103.5 -426q-14 -57 -45 -104t-78 -82l-2 2q-96 -74 -209 -74h-422q-127 0 -219 86l-62 61q-23 14 -45 37q-92 93 -92 228zM-385 285q0 -123 82 -205q82 -80 203 -80h422q111 0 196 68q88 66 113 172l207 852q8 33 8 71q0 121 -82 203q-80 82 -203 82h-448q-98 0 -174 -62 q-80 -59 -101 -151l-213 -881q-10 -40 -10 -69zM-80 354q0 12 2 19l176 737q12 53 70 53h348q37 0 37 -37q0 -6 -2 -8l-189 -780q-12 -53 -67 -53h-303q-72 -1 -72 69zM59 315h236q14 0 23.5 9.5t13.5 21.5q41 170 83 343t85 347h-230q-35 0 -45 -35zM160 1784l90 -248h256 l-90 248h-256z" />
<glyph unicode="&#xd3;" horiz-adv-x="1193" d="M-416 285q0 33 10 77l213 881q27 106 113 166q45 35 92 52.5t101 17.5h270l-27 26h-16l174 310h326l-6 -11l98 -98l-168 -297h-2l22 -23q8 -10 15.5 -18t13.5 -18l72 -70h-2q90 -90 90 -219q0 -47 -8 -78q-51 -211 -103.5 -426t-103.5 -426q-14 -57 -45 -104t-78 -82 l-2 2q-96 -74 -209 -74h-422q-127 0 -219 86l-62 61q-23 14 -45 37q-92 93 -92 228zM-385 285q0 -123 82 -205q82 -80 203 -80h422q111 0 196 68q88 66 113 172l207 852q8 33 8 71q0 121 -82 203q-80 82 -203 82h-448q-98 0 -174 -62q-80 -59 -101 -151l-213 -881 q-10 -40 -10 -69zM-80 354q0 12 2 19l176 737q12 53 70 53h348q37 0 37 -37q0 -6 -2 -8l-189 -780q-12 -53 -67 -53h-303q-72 -1 -72 69zM59 315h236q14 0 23.5 9.5t13.5 21.5q41 170 83 343t85 347h-230q-35 0 -45 -35zM391 1536h256l141 248h-256z" />
<glyph unicode="&#xd4;" horiz-adv-x="1193" d="M-416 285q0 33 10 77l213 881q27 106 113 166q41 29 80 46.5t86 21.5l-27 28l-14 -2l68 248l374 64l392 -68l-5 -10l99 -97l-64 -229l-204 35q49 -27 79 -60q8 -10 15.5 -18t13.5 -18l72 -70h-2q90 -90 90 -219q0 -47 -8 -78q-51 -211 -103.5 -426t-103.5 -426 q-14 -57 -45 -104t-78 -82l-2 2q-96 -74 -209 -74h-422q-127 0 -219 86l-62 61q-23 14 -45 37q-92 93 -92 228zM-385 285q0 -123 82 -205q82 -80 203 -80h422q111 0 196 68q88 66 113 172l207 852q8 33 8 71q0 121 -82 203q-80 82 -203 82h-448q-98 0 -174 -62 q-80 -59 -101 -151l-213 -881q-10 -40 -10 -69zM-80 354q0 12 2 19l176 737q12 53 70 53h348q37 0 37 -37q0 -6 -2 -8l-189 -780q-12 -53 -67 -53h-303q-72 -1 -72 69zM59 315h236q14 0 23.5 9.5t13.5 21.5q41 170 83 343t85 347h-230q-35 0 -45 -35zM88 1542l361 62 l339 -62l52 180l-353 62l-348 -62z" />
<glyph unicode="&#xd5;" horiz-adv-x="1193" d="M-416 285q0 33 10 77l213 881q27 106 113 166q49 37 94 53l66 244l145 84q51 27 101 27q45 0 143 -56q82 -49 106 -49q25 0 62 17l225 98l-6 -19l98 -96l-69 -239l-127 -62q6 -6 13 -12t13 -13q8 -10 15.5 -18t13.5 -18l72 -70h-2q90 -90 90 -219q0 -47 -8 -78 q-51 -211 -103.5 -426t-103.5 -426q-14 -57 -45 -104t-78 -82l-2 2q-96 -74 -209 -74h-422q-127 0 -219 86l-62 61q-23 14 -45 37q-92 93 -92 228zM-385 285q0 -123 82 -205q82 -80 203 -80h422q111 0 196 68q88 66 113 172l207 852q8 33 8 71q0 121 -82 203q-80 82 -203 82 h-448q-98 0 -174 -62q-80 -59 -101 -151l-213 -881q-10 -40 -10 -69zM-80 354q0 12 2 19l176 737q12 53 70 53h348q37 0 37 -37q0 -6 -2 -8l-189 -780q-12 -53 -67 -53h-303q-72 -1 -72 69zM59 315h236q14 0 23.5 9.5t13.5 21.5q41 170 83 343t85 347h-230q-35 0 -45 -35z M59 1507l152 76q37 16 68 16q27 0 110 -49q84 -47 129 -47q43 0 96 19l148 69l51 181l-164 -72q-41 -18 -74 -19q-33 0 -122 54q-88 51 -127 51q-20 0 -42 -5t-44 -18l-131 -75z" />
<glyph unicode="&#xd6;" horiz-adv-x="1193" d="M-416 285q0 33 10 77l213 881q27 106 113 166q35 25 67.5 41t69.5 25l-32 34h-15l90 303h320l-4 -12l98 -96l-68 -225h115h17l-37 37h-15l88 303h322l-4 -13l98 -96l-86 -291h-196q10 -8 18 -15t18 -18q8 -10 15.5 -18t13.5 -18l72 -70h-2q90 -90 90 -219q0 -47 -8 -78 q-51 -211 -103.5 -426t-103.5 -426q-14 -57 -45 -104t-78 -82l-2 2q-96 -74 -209 -74h-422q-127 0 -219 86l-62 61q-23 14 -45 37q-92 93 -92 228zM-385 285q0 -123 82 -205q82 -80 203 -80h422q111 0 196 68q88 66 113 172l207 852q8 33 8 71q0 121 -82 203q-80 82 -203 82 h-448q-98 0 -174 -62q-80 -59 -101 -151l-213 -881q-10 -40 -10 -69zM-80 354q0 12 2 19l176 737q12 53 70 53h348q37 0 37 -37q0 -6 -2 -8l-189 -780q-12 -53 -67 -53h-303q-72 -1 -72 69zM51 1540h256l72 242h-256zM59 315h236q14 0 23.5 9.5t13.5 21.5q41 170 83 343 t85 347h-230q-35 0 -45 -35zM567 1546h256l72 242h-258z" />
<glyph unicode="&#xd7;" horiz-adv-x="1079" d="M-383 584l459 432q-25 45 -53.5 96t-57 103.5t-56.5 103.5t-52 94h403l16 -29l82 -79l9 -15q14 12 26 25l25 24q20 18 39.5 38t38.5 36h417l-10 -10l98 -98l-391 -408q59 -94 127 -205.5t125 -204.5h-442l-98 97h-9l-2 2q-25 -25 -50 -51.5t-48 -49.5l-479 2l-96 97h-21z M-307 614l407 -2l150 154l84 -152h383l-240 390l365 378h-334l-168 -157l-96 157h-334l205 -370z" />
<glyph unicode="&#xd8;" horiz-adv-x="1193" d="M-444 -35l77 144q-27 37 -38 82t-11 94q0 23 3 41t7 36l312 1207q31 113 112 170q41 29 92.5 46t100.5 19q86 2 189.5 3t189.5 3h368l-6 -12l99 -96l-54 -107q74 -86 74 -206q0 -18 -2 -38t-8 -40h2q-76 -297 -152.5 -590t-152.5 -590q-31 -119 -123 -186l-2 2 q-96 -74 -209 -74l-422 -4h-334l-96 96h-16zM-393 -4h293l2 4h420q111 0 196 68q86 66 113 172l305 1179q8 31 8 72q0 119 -80 203l-4 2l47 84h-293l-4 -6h-399q-96 0 -174 -60q-74 -53 -100 -153l-312 -1207q-10 -37 -10 -69q0 -104 55 -174zM8 709l189 729q12 53 69 53 h185zM61 285l529 934l-228 -881q-12 -53 -67 -53h-234zM266 315h29q14 0 23.5 9.5t13.5 21.5q10 39 19 77t20 79q-25 -47 -51.5 -93.5t-53.5 -93.5zM322 1325l18 31q-14 -10 -16 -27z" />
<glyph unicode="&#xd9;" horiz-adv-x="1343" d="M-412 285q0 43 9 77q35 135 70.5 270.5t70.5 274.5t71.5 277.5t71.5 273.5h359l-4 -12l98 -96l-268 -1035h335q35 139 72 281.5t76 286.5q35 141 76 289.5t75 285.5h359l-4 -12l98 -96l-383 -1477h-766q-129 0 -217 88l-57 57q-12 10 -24.5 19.5t-24.5 21.5 q-93 93 -93 226zM-381 285q0 -123 82 -205q80 -80 201 -80h745l371 1427h-293l-297 -1142h-479q-35 0 -35 34v9l285 1099h-293l-279 -1073q-8 -30 -8 -69zM117 1815h319l6 -17l93 -92l108 -297h-307l-96 96h-11zM160 1784l90 -248h256l-90 248h-256z" />
<glyph unicode="&#xda;" horiz-adv-x="1343" d="M-412 285q0 43 9 77q35 135 70.5 270.5t70.5 274.5t71.5 277.5t71.5 273.5h359l-4 -12l98 -96l-268 -1035h335q35 139 72 281.5t76 286.5q33 129 68.5 263t70.5 263h-235l-97 96h-16l174 310h326l-6 -11l98 -98l-141 -248h268l-4 -12l98 -96l-383 -1477h-766 q-129 0 -217 88l-57 57q-12 10 -24.5 19.5t-24.5 21.5q-93 93 -93 226zM-381 285q0 -123 82 -205q80 -80 201 -80h745l371 1427h-293l-297 -1142h-479q-35 0 -35 34v9l285 1099h-293l-279 -1073q-8 -30 -8 -69zM391 1536h256l141 248h-256z" />
<glyph unicode="&#xdb;" horiz-adv-x="1343" d="M-412 285q0 43 9 77q35 135 70.5 270.5t70.5 274.5t71.5 277.5t71.5 273.5h248l-41 41q-6 -2 -14 -2l65 248l375 63l391 -67l-4 -10l98 -97l-49 -176h109l-4 -12l98 -96l-383 -1477h-766q-129 0 -217 88l-57 57q-12 10 -24.5 19.5t-24.5 21.5q-93 93 -93 226zM-381 285 q0 -123 82 -205q80 -80 201 -80h745l371 1427h-293l-297 -1142h-479q-35 0 -35 34v9l285 1099h-293l-279 -1073q-8 -30 -8 -69zM66 315h335q35 139 72 281.5t76 286.5q35 137 74 282.5t73 280.5l-118 22q-72 -12 -153 -25t-159 -26l68 -67zM117 1536l358 61l340 -61l51 180 l-352 62l-348 -62z" />
<glyph unicode="&#xdc;" horiz-adv-x="1343" d="M-412 285q0 43 9 77q35 135 70.5 270.5t70.5 274.5t71.5 277.5t71.5 273.5h225l-51 51h-14l88 303h320l-5 -12l99 -96l-84 -291h-189l64 -63l-268 -1035h335q35 139 72 281.5t76 286.5q33 129 69.5 268t71.5 268h-24l-97 97h-14l88 303h322l-4 -13l98 -96l-76 -252h76 l-4 -12l98 -96l-383 -1477h-766q-129 0 -217 88l-57 57q-12 10 -24.5 19.5t-24.5 21.5q-93 93 -93 226zM-381 285q0 -123 82 -205q80 -80 201 -80h745l371 1427h-293l-297 -1142h-479q-35 0 -35 34v9l285 1099h-293l-279 -1073q-8 -30 -8 -69zM82 1540h256l70 242h-256z M596 1546h256l72 242h-258z" />
<glyph unicode="&#xdd;" horiz-adv-x="1310" d="M-219 979q0 23 3 41t7 37q25 98 51.5 202.5t51.5 202.5h360l-4 -12l98 -96l-104 -404q51 -27 84 -41q39 16 84 39t84 41q27 8 32 33l103 389h-223l-97 96h-16l174 310h326l-7 -11l99 -98l-142 -246h259l-5 -12l99 -96l-146 -559q-41 -154 -209 -217l-188 -74 q-41 -154 -83 -317.5t-83 -317.5h-344l-96 96h-15l150 625q-33 18 -58.5 37.5t-45.5 42.5l-54 53q-145 104 -145 256zM-188 979q0 -164 200 -272l117 -64l-154 -647h291l164 627l203 79q156 61 192 201l138 529h-293l-111 -418q-8 -39 -47 -51l-184 -86l-168 81 q-49 25 -49 68q0 12 2 18l100 388h-293l-98 -383q-10 -37 -10 -70zM346 1538h256l141 248h-256z" />
<glyph unicode="&#xde;" horiz-adv-x="1210" d="M-494 -31l474 1835h348l-4 -12l98 -96l-49 -178h223q139 0 225 -93q10 -10 18.5 -21t16.5 -24l64 -61q86 -92 86 -219q0 -47 -9 -78q-35 -141 -70.5 -285.5t-68.5 -285.5q-29 -113 -123 -187q-94 -72 -211 -71l-461 2q-20 -78 -41.5 -161t-41.5 -161h-363l-96 96h-15z M-453 0h310l84 322l481 -3q106 0 196 68q88 70 113 172l139 571q8 33 9 72q0 119 -80 203q-80 82 -203 82h-387l78 287h-283zM0 604l145 598h406q35 0 35 -37q0 -6 -2 -8l-121 -500q-12 -53 -70 -53h-393zM158 635h235q14 0 24.5 10t14.5 21q14 59 28.5 123.5t31.5 125.5 q10 41 19 80t19 80h-262q-29 -117 -55 -223t-55 -217z" />
<glyph unicode="&#xdf;" horiz-adv-x="1202" d="M-502 -20l412 1585q14 51 42 95t71 75q88 66 192 65l219 4h248q160 0 246 -123q2 -4 6 -8l57 -57q18 -20 35 -41q57 -86 57 -180q0 -23 -3 -43.5t-7 -40.5l-86 -334q-10 -43 -31.5 -80t-58.5 -70q14 -45 14 -94q0 -18 -2 -37.5t-8 -40.5h2q-35 -137 -70.5 -275 t-70.5 -276q-14 -51 -42 -94t-69 -73q-86 -63 -190 -64h-357l-96 96h-14l82 346h227q16 0 25.5 9.5t13.5 21.5q18 74 38.5 150.5t39.5 152.5l-84 -24l-98 96l-15 -4l115 397l199 60q8 4 16 13t12 15q10 37 19.5 77t19.5 81h-231q-14 0 -26.5 -11.5t-18.5 -23.5 q-92 -352 -186.5 -720.5t-186.5 -721.5h-346l-96 97h-15zM-461 10h293l369 1424q16 53 69 53h367v2q33 -2 22 -41l-63 -254q-10 -37 -49 -49l-182 -55l-95 -326l111 35q6 2 20 2q35 0 58 -29q18 -29 10 -59l-96 -375q-12 -53 -70 -53h-201l-67 -285h323q98 0 177 59 q76 59 100 154l141 551q8 31 8 72q0 53 -18 102q74 61 94 147l86 334q4 20 7 39t3 39q0 88 -53 166q-78 111 -221 111h-248v-5h-219q-96 0 -174 -59q-76 -57 -100 -154z" />
<glyph unicode="&#xe0;" horiz-adv-x="1087" d="M-475 -31l121 473q43 170 215 222q82 25 160.5 48t158.5 48q63 20 129 39.5t131 42.5h-483l-96 96h-15l91 344h620q131 0 221 -90q12 -12 22.5 -25.5t20.5 -25.5l56 -56q90 -90 90 -219q0 -49 -11 -78h2q-57 -225 -117.5 -457.5t-117.5 -457.5h-1088l-96 96h-14zM-434 0 h1034l231 897q8 27 9 72q0 121 -82 202q-80 80 -201 80h-596l-74 -282h623q37 0 37 -41l-25 -94l-653 -199q-154 -47 -193 -201zM-68 285l9 41q6 35 47 49l450 139l-57 -229h-449zM117 1815h319l6 -17l93 -92l108 -297h-307l-96 96h-11zM160 1784l90 -248h256l-90 248h-256z M307 315h49q2 4 2 8.5t2 8.5z" />
<glyph unicode="&#xe1;" horiz-adv-x="1200" d="M-475 -31l121 473q43 170 215 222q82 25 160.5 48t158.5 48q63 20 129 39.5t131 42.5h-483l-96 96h-15l91 344h620q131 0 221 -90q12 -12 22.5 -25.5t20.5 -25.5l56 -56q90 -90 90 -219q0 -49 -11 -78h2q-57 -225 -117.5 -457.5t-117.5 -457.5h-1088l-96 96h-14zM-434 0 h1034l231 897q8 27 9 72q0 121 -82 202q-80 80 -201 80h-596l-74 -282h623q37 0 37 -41l-25 -94l-653 -199q-154 -47 -193 -201zM-68 285l9 41q6 35 47 49l450 139l-57 -229h-449zM307 315h49q2 4 2 8.5t2 8.5zM340 1505l174 310h326l-6 -11l98 -98l-168 -297h-311l-97 96 h-16zM391 1536h256l141 248h-256z" />
<glyph unicode="&#xe2;" horiz-adv-x="1200" d="M-475 -31l121 473q43 170 215 222q82 25 160.5 48t158.5 48q63 20 129 39.5t131 42.5h-483l-96 96h-15l91 344h620q131 0 221 -90q12 -12 22.5 -25.5t20.5 -25.5l56 -56q90 -90 90 -219q0 -49 -11 -78h2q-57 -225 -117.5 -457.5t-117.5 -457.5h-1088l-96 96h-14zM-434 0 h1034l231 897q8 27 9 72q0 121 -82 202q-80 80 -201 80h-596l-74 -282h623q37 0 37 -41l-25 -94l-653 -199q-154 -47 -193 -201zM-68 285l9 41q6 35 47 49l450 139l-57 -229h-449zM45 1503l68 248l374 64l392 -68l-5 -10l99 -97l-64 -229l-358 64q-90 -16 -198.5 -33 t-196.5 -33l-97 96zM88 1542l361 62l339 -62l52 180l-353 62l-348 -62zM307 315h49q2 4 2 8.5t2 8.5z" />
<glyph unicode="&#xe3;" horiz-adv-x="1200" d="M-475 -31l121 473q43 170 215 222q82 25 160.5 48t158.5 48q63 20 129 39.5t131 42.5h-483l-96 96h-15l91 344h620q131 0 221 -90q12 -12 22.5 -25.5t20.5 -25.5l49 -51l-2 2l9 -7q90 -90 90 -219q0 -49 -11 -78h2q-57 -225 -117.5 -457.5t-117.5 -457.5h-1088l-96 96 h-14zM-434 0h1034l231 897q8 27 9 72q0 121 -82 202q-80 80 -201 80h-596l-74 -282h623q37 0 37 -41l-25 -94l-653 -199q-154 -47 -193 -201zM-68 285l9 41q6 35 47 49l450 139l-57 -229h-449zM10 1448l70 258l145 84q51 27 101 27q45 0 143 -56q82 -49 106 -49q25 0 62 17 l225 98l-6 -19l98 -96l-69 -239l-152 -72q-68 -25 -112 -25q-45 0 -142 51q-72 45 -98 46q-10 0 -26.5 -5.5t-30.5 -9.5l-201 -100l-98 98q-7 -4 -15 -8zM59 1507l152 76q37 16 68 16q27 0 110 -49q84 -47 129 -47q43 0 96 19l148 69l51 181l-164 -72q-41 -18 -74 -19 q-33 0 -122 54q-88 51 -127 51q-20 0 -42 -5t-44 -18l-131 -75zM307 315h49q2 4 2 8.5t2 8.5z" />
<glyph unicode="&#xe4;" horiz-adv-x="1200" d="M-475 -31l121 473q43 170 215 222q82 25 160.5 48t158.5 48q63 20 129 39.5t131 42.5h-483l-96 96h-15l91 344h620q131 0 221 -90q12 -12 22.5 -25.5t20.5 -25.5l56 -56q90 -90 90 -219q0 -49 -11 -78h2q-57 -225 -117.5 -457.5t-117.5 -457.5h-1088l-96 96h-14zM-434 0 h1034l231 897q8 27 9 72q0 121 -82 202q-80 80 -201 80h-596l-74 -282h623q37 0 37 -41l-25 -94l-653 -199q-154 -47 -193 -201zM-68 285l9 41q6 35 47 49l450 139l-57 -229h-449zM43 1505l90 303h320l-4 -12l98 -96l-86 -291h-307l-97 96h-14zM84 1536h256l72 242h-256z M307 315h49q2 4 2 8.5t2 8.5zM559 1505l88 303h322l-4 -12l98 -96l-86 -291h-307l-97 96h-14zM600 1536h256l72 242h-258z" />
<glyph unicode="&#xe5;" horiz-adv-x="1200" d="M-475 -31l121 473q43 170 215 222q82 25 160.5 48t158.5 48q63 20 129 39.5t131 42.5h-483l-96 96h-15l91 344h620q131 0 221 -90q12 -12 22.5 -25.5t20.5 -25.5l49 -51l-2 2l9 -7q90 -90 90 -219q0 -49 -11 -78h2q-57 -225 -117.5 -457.5t-117.5 -457.5h-1088l-96 96 h-14zM-434 0h1034l231 897q8 27 9 72q0 121 -82 202q-80 80 -201 80h-596l-74 -282h623q37 0 37 -41l-25 -94l-653 -199q-154 -47 -193 -201zM-68 285l9 41q6 35 47 49l450 139l-57 -229h-449zM244 1640q0 80 71 132q61 43 140 43q78 0 139 -43q37 -29 55 -64l66 -63 q23 -23 35 -48.5t12 -58.5q0 -72 -72 -125q-33 -20 -63.5 -31.5t-69.5 -11.5q-72 0 -135 43q-16 12 -25 21l-69 67q-4 4 -6.5 5t-6.5 5q-71 49 -71 129zM274 1640q0 -61 60 -104q57 -39 121 -39q35 0 63.5 10.5t56.5 28.5q59 43 60 104q0 66 -60 107q-53 37 -120 37 q-70 0 -121 -37q-60 -41 -60 -107zM307 315h49q2 4 2 8.5t2 8.5zM383 1636q0 29 23 47q23 20 55 21q31 0 53 -18q25 -23 25 -50q0 -68 -78 -67q-78 -1 -78 67z" />
<glyph unicode="&#xe6;" horiz-adv-x="1732" d="M-514 -31l121 473q45 170 229 226l479 86q8 27 13.5 48t9.5 44h-414l-96 96h-14l82 340h1169q131 0 225 -82q31 -31 49 -57l60 -60q88 -92 80 -211q-4 -25 -6.5 -44t-6.5 -35q-6 -29 -13 -61t-13 -60q-18 -86 -75.5 -140.5t-145.5 -82.5l-529 -109q-4 -8 -8 -25h469 l-4 -12l98 -96l-86 -334h-1562l-97 96h-14zM-473 0h1509l74 285h-592l49 180l553 113q76 23 126 73.5t67 128.5l26 121q4 16 7.5 34.5t5.5 41.5q8 117 -82 201q-82 74 -205 73h-1143l-67 -278h553l-68 -248l-510 -90q-154 -47 -192 -201zM-106 285l8 41q6 35 47 49l317 59 l-41 -149h-331zM641 766l53 207h281q70 -8 69 -72q0 -10 -2 -18l7 6q-8 -39 -50 -51zM813 831l70 15h-66q-4 -13 -4 -15z" />
<glyph unicode="&#xe7;" horiz-adv-x="1191" d="M-362 285q0 23 3 41t7 36l178 687q14 51 42 95t71 75q88 66 192 65h729l-4 -12l98 -96l-84 -332h-581q-14 0 -26.5 -11.5t-18.5 -23.5q-33 -123 -65 -247t-62 -247h491l-4 -12l98 -96l-86 -334h-251q-43 -31 -89.5 -64.5t-89.5 -62.5h-153l-96 96h-15l15 52 q-29 10 -53.5 27.5t-47.5 39.5l-57 57q-12 10 -24.5 19.5t-24.5 21.5q-92 93 -92 226zM-332 285q0 -123 82 -205q80 -80 203 -80h47l-37 -127h113l178 127h240l73 285h-524q-70 0 -70 69q0 12 2 19l142 545q16 53 69 53h562l71 282h-688q-96 0 -174 -59q-76 -57 -100 -154 l-179 -686q-10 -36 -10 -69z" />
<glyph unicode="&#xe8;" horiz-adv-x="1232" d="M-393 285q0 23 3 41t7 36l174 689q27 100 111 168q88 68 192 67h451q66 0 120 -21.5t105 -64.5q31 -31 49 -57l60 -60q88 -92 79 -211q-4 -25 -6 -44t-6 -35q-6 -29 -13 -61t-13 -60q-18 -86 -72.5 -140.5t-138.5 -78.5l-453 -138h375l-4 -12l98 -96l-86 -334h-616 q-156 0 -232 76l-65 65q-10 6 -20.5 14.5t-20.5 18.5q-78 78 -78 238zM-362 285q0 -150 67 -217q68 -68 215 -68h596l74 285h-623q-35 0 -35 34v9l13 51l655 199q76 23 126 73.5t67 128.5l26 121q4 16 7 34.5t5 41.5q8 117 -81 201q-88 78 -205 77h-451q-96 0 -174 -59 q-74 -59 -98 -154l-174 -688q-10 -36 -10 -69zM29 700l53 220q12 53 70 53h303q70 -8 69 -72q0 -10 -2 -18l6 6q-8 -39 -49 -51zM117 1815h319l6 -17l93 -92l108 -297h-307l-96 96h-11zM160 1784l90 -248h256l-90 248h-256zM201 784q16 4 31.5 9.5t31.5 9.5q35 10 71 21.5 t71 21.5h-152q-16 0 -28.5 -10.5t-16.5 -24.5q-4 -11 -8 -27z" />
<glyph unicode="&#xe9;" horiz-adv-x="1232" d="M-393 285q0 23 3 41t7 36l174 689q27 100 111 168q88 68 192 67h451q66 0 120 -21.5t105 -64.5q31 -31 49 -57l60 -60q88 -92 79 -211q-4 -25 -6 -44t-6 -35q-6 -29 -13 -61t-13 -60q-18 -86 -72.5 -140.5t-138.5 -78.5l-453 -138h375l-4 -12l98 -96l-86 -334h-616 q-156 0 -232 76l-65 65q-10 6 -20.5 14.5t-20.5 18.5q-78 78 -78 238zM-362 285q0 -150 67 -217q68 -68 215 -68h596l74 285h-623q-35 0 -35 34v9l13 51l655 199q76 23 126 73.5t67 128.5l26 121q4 16 7 34.5t5 41.5q8 117 -81 201q-88 78 -205 77h-451q-96 0 -174 -59 q-74 -59 -98 -154l-174 -688q-10 -36 -10 -69zM29 700l53 220q12 53 70 53h303q70 -8 69 -72q0 -10 -2 -18l6 6q-8 -39 -49 -51zM201 784q16 4 31.5 9.5t31.5 9.5q35 10 71 21.5t71 21.5h-152q-16 0 -28.5 -10.5t-16.5 -24.5q-4 -11 -8 -27zM340 1505l174 310h326l-6 -11 l98 -98l-168 -297h-311l-97 96h-16zM391 1536h256l141 248h-256z" />
<glyph unicode="&#xea;" horiz-adv-x="1232" d="M-393 285q0 23 3 41t7 36l174 689q27 100 111 168q88 68 192 67h451q66 0 120 -21.5t105 -64.5q31 -31 49 -57l60 -60q88 -92 79 -211q-4 -25 -6 -44t-6 -35q-6 -29 -13 -61t-13 -60q-18 -86 -72.5 -140.5t-138.5 -78.5l-453 -138h375l-4 -12l98 -96l-86 -334h-616 q-156 0 -232 76l-65 65q-10 6 -20.5 14.5t-20.5 18.5q-78 78 -78 238zM-362 285q0 -150 67 -217q68 -68 215 -68h596l74 285h-623q-35 0 -35 34v9l13 51l655 199q76 23 126 73.5t67 128.5l26 121q4 16 7 34.5t5 41.5q8 117 -81 201q-88 78 -205 77h-451q-96 0 -174 -59 q-74 -59 -98 -154l-174 -688q-10 -36 -10 -69zM29 700l53 220q12 53 70 53h303q70 -8 69 -72q0 -10 -2 -18l6 6q-8 -39 -49 -51zM45 1503l68 248l374 64l392 -68l-5 -10l99 -97l-64 -229l-358 64q-90 -16 -198.5 -33t-196.5 -33l-97 96zM88 1542l361 62l339 -62l52 180 l-353 62l-348 -62zM201 784q16 4 31.5 9.5t31.5 9.5q35 10 71 21.5t71 21.5h-152q-16 0 -28.5 -10.5t-16.5 -24.5q-4 -11 -8 -27z" />
<glyph unicode="&#xeb;" horiz-adv-x="1232" d="M-393 285q0 23 3 41t7 36l174 689q27 100 111 168q88 68 192 67h451q66 0 120 -21.5t105 -64.5q31 -31 49 -57l60 -60q88 -92 79 -211q-4 -25 -6 -44t-6 -35q-6 -29 -13 -61t-13 -60q-18 -86 -72.5 -140.5t-138.5 -78.5l-453 -138h375l-4 -12l98 -96l-86 -334h-616 q-156 0 -232 76l-65 65q-10 6 -20.5 14.5t-20.5 18.5q-78 78 -78 238zM-362 285q0 -150 67 -217q68 -68 215 -68h596l74 285h-623q-35 0 -35 34v9l13 51l655 199q76 23 126 73.5t67 128.5l26 121q4 16 7 34.5t5 41.5q8 117 -81 201q-88 78 -205 77h-451q-96 0 -174 -59 q-74 -59 -98 -154l-174 -688q-10 -36 -10 -69zM29 700l53 220q12 53 70 53h303q70 -8 69 -72q0 -10 -2 -18l6 6q-8 -39 -49 -51zM43 1507l90 303h320l-4 -12l98 -96l-86 -291h-307l-97 96h-14zM84 1538h256l72 242h-256zM201 784q16 4 31.5 9.5t31.5 9.5q35 10 71 21.5 t71 21.5h-152q-16 0 -28.5 -10.5t-16.5 -24.5q-4 -11 -8 -27zM565 1507l88 303h322l-4 -12l98 -96l-86 -291h-307l-96 96h-15zM606 1538h256l72 242h-258z" />
<glyph unicode="&#xec;" horiz-adv-x="509" d="M-504 -31l340 1315h359l-5 -12l99 -96l-336 -1303h-346l-96 96h-15zM-463 0h293l324 1253h-293zM-100 1812h319l6 -16l92 -92l109 -297h-307l-96 96h-11zM-57 1782l90 -248h256l-90 248h-256z" />
<glyph unicode="&#xed;" horiz-adv-x="509" d="M-504 -31l340 1315h359l-5 -12l99 -96l-336 -1303h-346l-96 96h-15zM-463 0h293l324 1253h-293zM-88 1505l174 312h326l-6 -11l98 -98l-168 -299h-311l-97 96h-16zM-37 1536h256l141 250h-256z" />
<glyph unicode="&#xee;" horiz-adv-x="509" d="M-504 -31l340 1315h359l-5 -12l99 -96l-336 -1303h-346l-96 96h-15zM-463 0h293l324 1253h-293zM-168 1509l70 250l266 62l272 -66l-4 -10l99 -96l-64 -230l-242 60q-31 -6 -68.5 -14.5t-76.5 -17.5t-76 -17.5t-65 -14.5l-97 96q-4 0 -7 -1t-7 -1zM-123 1552l250 56 l223 -56l51 181l-233 55l-240 -55z" />
<glyph unicode="&#xef;" horiz-adv-x="509" d="M-504 -31l340 1315h359l-5 -12l99 -96l-336 -1303h-346l-96 96h-15zM-463 0h293l324 1253h-293zM-279 1509l89 303h319l-4 -12l43 -43l18 60h322l-4 -13l98 -96l-86 -291h-307l-53 53l-17 -57h-307l-96 96h-15zM-238 1540h256l70 242h-256zM139 1544h256l72 242h-258z " />
<glyph unicode="&#xf0;" horiz-adv-x="1138" d="M-385 281q2 41 12 81q16 61 30.5 123t31.5 125q16 61 31.5 124t31.5 126q43 172 215 223q82 25 160 48.5t156 48.5q76 23 148.5 45t152.5 47h-183l-96 96h-14l86 305h94q-6 18 -10 38t-10 40q-4 12 -8.5 27.5t-8.5 25.5h357l4 -14l94 -94l6 -23h168l-4 -12l98 -96 l-82 -293h-63q10 -29 18 -61.5t17 -61.5l-265 -1045q-29 -106 -108 -167q-86 -63 -189 -64h-450q-121 0 -221 84l-70 70q-10 6 -18.5 13t-18.5 15q-102 97 -92 226zM-354 279q-8 -117 82 -201q88 -78 204 -78h451q96 0 174 59q74 57 98 154l265 1042l-43 144h77l68 243h-217 l-37 132h-293l39 -132h-115l-67 -243h254l45 -146l-656 -198q-154 -47 -192 -203l-125 -498q-10 -30 -12 -75zM-47 354q0 10 2 19l92 370q8 39 49 52l451 137l-152 -596q-12 -53 -69 -53h-303q-70 8 -70 71zM92 313h234q16 0 25 9.5t14 21.5q25 100 52 201.5t54 204.5 q-68 -23 -134.5 -41.5t-129.5 -38.5q-27 -10 -33 -35z" />
<glyph unicode="&#xf1;" horiz-adv-x="1294" d="M-500 -31l342 1317h760q131 0 223 -90q12 -12 22.5 -25.5t20.5 -25.5l56 -55q90 -90 90 -220q0 -37 -10 -77l-238 -920h-346l-96 96h-15l228 877h-328q-63 -242 -126 -486.5t-126 -486.5h-346l-96 96h-15zM-459 0h293l252 973h469q37 0 37 -37v-8l-242 -928h293l234 901 q10 37 10 72q0 121 -82 203q-84 80 -203 79h-735zM10 1448l70 258l145 84q51 27 101 27q45 0 143 -56q82 -49 106 -49q25 0 62 17l225 98l-6 -19l98 -96l-69 -239l-152 -72q-68 -25 -112 -25q-45 0 -142 51q-72 45 -98 46q-10 0 -26.5 -5.5t-30.5 -9.5l-201 -100l-98 98 q-7 -4 -15 -8zM59 1507l152 76q37 16 68 16q27 0 110 -49q84 -47 129 -47q43 0 96 19l148 69l51 181l-164 -72q-41 -18 -74 -19q-33 0 -122 54q-88 51 -127 51q-20 0 -42 -5t-44 -18l-131 -75z" />
<glyph unicode="&#xf2;" horiz-adv-x="1200" d="M-416 285q0 23 3 41t7 36l175 689q14 53 40.5 94t71.5 76q88 66 193 65h450q131 0 221 -90q12 -12 22.5 -25.5t20.5 -25.5l56 -55q90 -90 90 -220q0 -18 -2 -37.5t-8 -39.5h2q-41 -166 -84 -331t-84 -331q-31 -119 -123 -186l-2 2q-96 -74 -209 -74h-422q-127 0 -219 86 l-62 61q-23 14 -45 37q-92 93 -92 228zM-385 285q0 -123 82 -205q82 -80 203 -80h422q111 0 196 68q86 66 113 172l168 661q8 31 8 72q0 121 -82 203q-80 80 -201 79h-450q-96 0 -174 -59q-76 -57 -101 -154l-174 -688q-10 -36 -10 -69zM-80 354q0 12 2 19l137 547 q12 53 70 53h348q37 0 37 -37q0 -6 -2 -8l-150 -590q-12 -53 -67 -53h-303q-72 -1 -72 69zM61 315h234q14 0 23.5 9.5t13.5 21.5q29 119 62.5 247t66.5 253h-230q-35 0 -45 -35zM117 1815h319l6 -17l93 -92l108 -297h-307l-96 96h-11zM160 1784l90 -248h256l-90 248h-256z " />
<glyph unicode="&#xf3;" horiz-adv-x="1193" d="M-416 285q0 23 3 41t7 36l175 689q14 53 40.5 94t71.5 76q88 66 193 65h450q131 0 221 -90q12 -12 22.5 -25.5t20.5 -25.5l50 -51l-2 2l8 -6q90 -90 90 -220q0 -18 -2 -37.5t-8 -39.5h2q-41 -166 -84 -331t-84 -331q-31 -119 -123 -186l-2 2q-96 -74 -209 -74h-422 q-127 0 -219 86l-62 61q-23 14 -45 37q-92 93 -92 228zM-385 285q0 -123 82 -205q82 -80 203 -80h422q111 0 196 68q86 66 113 172l168 661q8 31 8 72q0 121 -82 203q-80 80 -201 79h-450q-96 0 -174 -59q-76 -57 -101 -154l-174 -688q-10 -36 -10 -69zM-80 354q0 12 2 19 l137 547q12 53 70 53h348q37 0 37 -37q0 -6 -2 -8l-150 -590q-12 -53 -67 -53h-303q-72 -1 -72 69zM61 315h234q14 0 23.5 9.5t13.5 21.5q29 119 62.5 247t66.5 253h-230q-35 0 -45 -35zM340 1505l174 310h326l-6 -11l98 -98l-168 -297h-311l-97 96h-16zM391 1536h256 l141 248h-256z" />
<glyph unicode="&#xf4;" horiz-adv-x="1193" d="M-416 285q0 23 3 41t7 36l175 689q14 53 40.5 94t71.5 76q88 66 193 65h450q131 0 221 -90q12 -12 22.5 -25.5t20.5 -25.5l50 -51l-2 2l8 -6q90 -90 90 -220q0 -18 -2 -37.5t-8 -39.5h2q-41 -166 -84 -331t-84 -331q-31 -119 -123 -186l-2 2q-96 -74 -209 -74h-422 q-127 0 -219 86l-62 61q-23 14 -45 37q-92 93 -92 228zM-385 285q0 -123 82 -205q82 -80 203 -80h422q111 0 196 68q86 66 113 172l168 661q8 31 8 72q0 121 -82 203q-80 80 -201 79h-450q-96 0 -174 -59q-76 -57 -101 -154l-174 -688q-10 -36 -10 -69zM-80 354q0 12 2 19 l137 547q12 53 70 53h348q37 0 37 -37q0 -6 -2 -8l-150 -590q-12 -53 -67 -53h-303q-72 -1 -72 69zM45 1503l68 248l374 64l392 -68l-5 -10l99 -97l-64 -229l-358 64q-90 -16 -198.5 -33t-196.5 -33l-97 96zM61 315h234q14 0 23.5 9.5t13.5 21.5q29 119 62.5 247t66.5 253 h-230q-35 0 -45 -35zM88 1542l361 62l339 -62l52 180l-353 62l-348 -62z" />
<glyph unicode="&#xf5;" horiz-adv-x="1193" d="M-416 285q0 23 3 41t7 36l175 689q14 53 40.5 94t71.5 76q88 66 193 65h450q131 0 221 -90q12 -12 22.5 -25.5t20.5 -25.5l56 -55q90 -90 90 -220q0 -18 -2 -37.5t-8 -39.5h2q-41 -166 -84 -331t-84 -331q-31 -119 -123 -186l-2 2q-96 -74 -209 -74h-422q-127 0 -219 86 l-62 61q-23 14 -45 37q-92 93 -92 228zM-385 285q0 -123 82 -205q82 -80 203 -80h422q111 0 196 68q86 66 113 172l168 661q8 31 8 72q0 121 -82 203q-80 80 -201 79h-450q-96 0 -174 -59q-76 -57 -101 -154l-174 -688q-10 -36 -10 -69zM-80 354q0 12 2 19l137 547 q12 53 70 53h348q37 0 37 -37q0 -6 -2 -8l-150 -590q-12 -53 -67 -53h-303q-72 -1 -72 69zM10 1448l70 258l145 84q51 27 101 27q45 0 143 -56q82 -49 106 -49q25 0 62 17l225 98l-6 -19l98 -96l-69 -239l-152 -72q-68 -25 -112 -25q-45 0 -142 51q-72 45 -98 46 q-10 0 -26.5 -5.5t-30.5 -9.5l-201 -100l-98 98q-7 -4 -15 -8zM59 1507l152 76q37 16 68 16q27 0 110 -49q84 -47 129 -47q43 0 96 19l148 69l51 181l-164 -72q-41 -18 -74 -19q-33 0 -122 54q-88 51 -127 51q-20 0 -42 -5t-44 -18l-131 -75zM61 315h234q14 0 23.5 9.5 t13.5 21.5q29 119 62.5 247t66.5 253h-230q-35 0 -45 -35z" />
<glyph unicode="&#xf6;" horiz-adv-x="1193" d="M-416 285q0 23 3 41t7 36l175 689q14 53 40.5 94t71.5 76q88 66 193 65h450q131 0 221 -90q12 -12 22.5 -25.5t20.5 -25.5l56 -55q90 -90 90 -220q0 -18 -2 -37.5t-8 -39.5h2q-41 -166 -84 -331t-84 -331q-31 -119 -123 -186l-2 2q-96 -74 -209 -74h-422q-127 0 -219 86 l-62 61q-23 14 -45 37q-92 93 -92 228zM-385 285q0 -123 82 -205q82 -80 203 -80h422q111 0 196 68q86 66 113 172l168 661q8 31 8 72q0 121 -82 203q-80 80 -201 79h-450q-96 0 -174 -59q-76 -57 -101 -154l-174 -688q-10 -36 -10 -69zM-80 354q0 12 2 19l137 547 q12 53 70 53h348q37 0 37 -37q0 -6 -2 -8l-150 -590q-12 -53 -67 -53h-303q-72 -1 -72 69zM10 1509l90 303h320l-4 -12l98 -96l-86 -291h-307l-96 96h-15zM51 1540h256l72 242h-256zM61 315h234q14 0 23.5 9.5t13.5 21.5q29 119 62.5 247t66.5 253h-230q-35 0 -45 -35z M526 1516l88 303h322l-4 -13l98 -96l-86 -291h-307l-96 97h-15zM567 1546h256l72 242h-258z" />
<glyph unicode="&#xf7;" horiz-adv-x="1177" d="M63 762l87 305h237l-59 59h-15l90 344h324l-4 -12l98 -96l-78 -295h93l-5 -12l99 -97l-82 -292h-289l72 -72l-86 -332h-312l-96 96h-14l82 308h-31l-96 96h-15zM104 793h623l68 243h-623zM164 389h258l74 283h-256zM354 1157h256l76 283h-258z" />
<glyph unicode="&#xf8;" horiz-adv-x="1193" d="M-526 -31l139 174q-29 61 -29 142q0 23 3 41t7 36l175 689q14 53 40.5 94t71.5 76q88 66 193 65l852 -8l-8 -10l98 -99l-119 -151q20 -35 28.5 -71t8.5 -77q0 -18 -2 -37.5t-8 -39.5h2q-41 -166 -84 -331t-84 -331q-31 -119 -123 -186l-2 2q-96 -74 -209 -74h-836l-96 96 h-18zM-465 0h787q111 0 196 68q86 66 113 172l168 661q8 31 8 72q0 84 -41 149l98 125l-790 8q-96 0 -174 -59q-76 -57 -101 -154l-174 -688q-10 -37 -10 -69q0 -78 35 -142zM-33 549l92 371q12 53 70 53h170zM109 285l354 452l-101 -399q-12 -53 -67 -53h-186z" />
<glyph unicode="&#xf9;" horiz-adv-x="1343" d="M-412 285q0 43 9 77q29 113 58.5 228t59.5 231q31 117 63 233.5t60 229.5h357l-5 -12l99 -96l-223 -861h337q31 121 61 239t62 241q31 119 65 245.5t64 243.5h361l-4 -12l98 -96l-340 -1303h-766q-129 0 -217 88l-57 57q-12 10 -24.5 19.5t-24.5 21.5q-93 93 -93 226z M-381 285q0 -123 82 -205q80 -80 201 -80h745l328 1253h-295l-252 -968h-479q-35 0 -35 34v9l240 925h-291l-236 -899q-8 -30 -8 -69zM117 1815h319l6 -17l93 -92l108 -297h-307l-96 96h-11zM160 1784l90 -248h256l-90 248h-256z" />
<glyph unicode="&#xfa;" horiz-adv-x="1343" d="M-412 285q0 43 9 77q29 113 58.5 228t59.5 231q31 117 63 233.5t60 229.5h357l-5 -12l99 -96l-223 -861h337q31 121 61 239t62 241q31 119 65 245.5t64 243.5h361l-4 -12l98 -96l-340 -1303h-766q-129 0 -217 88l-57 57q-12 10 -24.5 19.5t-24.5 21.5q-93 93 -93 226z M-381 285q0 -123 82 -205q80 -80 201 -80h745l328 1253h-295l-252 -968h-479q-35 0 -35 34v9l240 925h-291l-236 -899q-8 -30 -8 -69zM340 1505l174 310h326l-6 -11l98 -98l-168 -297h-311l-97 96h-16zM391 1536h256l141 248h-256z" />
<glyph unicode="&#xfb;" horiz-adv-x="1343" d="M-412 285q0 43 9 77q29 113 58.5 228t59.5 231q31 117 63 233.5t60 229.5h357l-5 -12l99 -96l-223 -861h337q31 121 61 239t62 241q31 119 65 245.5t64 243.5h361l-4 -12l98 -96l-340 -1303h-766q-129 0 -217 88l-57 57q-12 10 -24.5 19.5t-24.5 21.5q-93 93 -93 226z M-381 285q0 -123 82 -205q80 -80 201 -80h745l328 1253h-295l-252 -968h-479q-35 0 -35 34v9l240 925h-291l-236 -899q-8 -30 -8 -69zM74 1497l65 248l375 63l391 -67l-4 -10l98 -97l-63 -229l-358 63q-90 -16 -198 -32.5t-196 -32.5l-96 96q-6 -2 -14 -2zM117 1536l358 61 l340 -61l51 180l-352 62l-348 -62z" />
<glyph unicode="&#xfc;" horiz-adv-x="1343" d="M-412 285q0 43 9 77q29 113 58.5 228t59.5 231q31 117 63 233.5t60 229.5h357l-5 -12l99 -96l-223 -861h337q31 121 61 239t62 241q31 119 65 245.5t64 243.5h361l-4 -12l98 -96l-340 -1303h-766q-129 0 -217 88l-57 57q-12 10 -24.5 19.5t-24.5 21.5q-93 93 -93 226z M-381 285q0 -123 82 -205q80 -80 201 -80h745l328 1253h-295l-252 -968h-479q-35 0 -35 34v9l240 925h-291l-236 -899q-8 -30 -8 -69zM41 1509l88 303h320l-5 -12l99 -96l-84 -291h-307l-97 96h-14zM82 1540h256l70 242h-256zM555 1516l88 303h322l-4 -13l98 -96l-86 -291 h-307l-97 97h-14zM596 1546h256l72 242h-258z" />
<glyph unicode="&#xfd;" horiz-adv-x="1310" d="M-440 281q0 39 10 79l235 924h359l-4 -12l98 -96l-221 -865h260q29 121 60.5 240t64.5 242t64.5 246.5t62.5 244.5h360l-4 -12l99 -96l-388 -1489h-346l-96 96h-14l24 88h-209q-129 0 -217 88l-57 57q-12 10 -24.5 19.5t-24.5 21.5q-92 93 -92 224zM-410 281 q0 -121 82 -203q80 -80 201 -80h379l-51 -184h293l374 1439h-295l-249 -972h-404q-35 0 -35 36v9l238 927h-293l-229 -901q-11 -36 -11 -71zM295 1507l174 310h326l-7 -11l99 -98l-168 -297h-311l-97 96h-16zM346 1538h256l141 248h-256z" />
<glyph unicode="&#xfe;" horiz-adv-x="1228" d="M-545 -219l516 2023h359l-4 -12l98 -96l-107 -412h220q133 0 223 -90q12 -12 22.5 -25.5t20.5 -25.5l55 -56q90 -90 90 -219q0 -37 -10 -77l-133 -502q-41 -164 -209 -217l-639 -197q-10 -45 -22.5 -97t-20.5 -93h-348l-96 96h-15zM-504 -188h295l41 184l655 201 q150 45 191 200l133 502q10 37 10 72q0 121 -82 203q-80 80 -202 79h-383l135 521h-293zM-86 319l172 652h406q18 0 26 -15q8 -16 6 -30l-110 -420q-8 -37 -47 -49zM92 403q68 20 134.5 41t129.5 41q6 4 14.5 12.5t12.5 16.5l86 330h-260z" />
<glyph unicode="&#xff;" horiz-adv-x="1259" d="M-426 281q0 39 10 79l236 924h358l-4 -12l98 -96l-221 -865h260q29 121 60.5 240t64.5 242t64.5 246.5t62.5 244.5h361l-4 -12l98 -96l-387 -1489h-346l-97 96h-14l25 88h-209q-129 0 -217 88l-58 57q-12 10 -24.5 19.5t-24.5 21.5q-92 93 -92 224zM-395 281 q0 -121 82 -203q80 -80 200 -80h379l-51 -184h293l375 1439h-295l-250 -972h-404q-35 0 -34 36v9l237 927h-293l-229 -901q-10 -36 -10 -71zM35 1501l88 303h319l-4 -12l99 -96l-84 -291h-308l-96 96h-14zM76 1532h256l69 242h-256zM551 1505l88 303h322l-5 -12l99 -96 l-86 -291h-307l-97 96h-14zM592 1536h256l72 242h-258z" />
<glyph unicode="&#x152;" horiz-adv-x="1918" d="M-416 285q0 23 3 41t7 36l312 1207q14 53 40.5 94t71.5 76q88 66 193 65h451q33 0 64.5 -7t57.5 -17q39 27 78 37t88 10h451q66 0 120 -21.5t105 -64.5q31 -31 49 -58l60 -59q88 -92 80 -211q-4 -43 -15 -80h2q-25 -100 -51.5 -199.5t-50.5 -199.5q-43 -168 -211 -219 q-162 -49 -315.5 -96.5t-315.5 -96.5q-12 -47 -25.5 -92t-25.5 -92h543l-4 -12l98 -97l-86 -333h-617q-84 0 -147 22q-84 -45 -170 -45h-422q-127 0 -219 86l-62 61q-23 14 -45 37q-92 93 -92 228zM-385 285q0 -123 82 -205q82 -80 203 -80h422q90 0 167 47q61 -25 150 -24 h596l74 284h-623q-27 0 -33 19l82 317l645 197q154 47 193 202l102 400q10 31 13 76q8 117 -82 200q-88 78 -205 78h-451q-94 0 -164 -51q-57 29 -124 29h-451q-96 0 -174 -60q-76 -57 -100 -153l-312 -1207q-10 -36 -10 -69zM-80 354q0 12 2 19l275 1065q12 53 69 53h348 q27 0 35 -21l-282 -1093q-4 -14 -7 -29l-4 -29q-18 -35 -61 -34h-303q-72 -1 -72 69zM61 315h234q10 0 18.5 5.5t12.5 9.5q2 12 4 25.5t6 29.5l70 270l69 271q29 111 57.5 219t57.5 219h-221q-35 0 -45 -35zM817 965l119 454q4 14 5 27.5t3 30.5q14 37 64 36h303 q70 -8 69 -71q0 -10 -2 -19l-69 -272q-8 -39 -49 -51zM991 1049q16 4 29.5 9t28.5 9q49 16 99 30.5t101 30.5q6 4 15.5 13.5t13.5 17.5l57 227h-225q-25 0 -39 -18q0 -4 -1 -6t-1 -4q-2 -12 -4 -32.5t-2 -14.5q-20 -72 -38 -135.5t-34 -126.5z" />
<glyph unicode="&#x153;" horiz-adv-x="1921" d="M-416 285q0 23 3 41t7 36l175 689q14 53 40.5 94t71.5 76q88 66 193 65h450q39 0 77 -10t67 -25q31 14 68.5 24.5t74.5 10.5h451q66 0 120 -21.5t105 -64.5q31 -31 49 -57l59 -60q88 -92 80 -211q-4 -25 -6 -44t-6 -35q-6 -29 -13.5 -61t-13.5 -60q-18 -86 -72.5 -140.5 t-138.5 -78.5l-448 -138h371l-5 -12l99 -96l-86 -334h-617q-102 0 -170 29q-33 -16 -66.5 -22.5t-78.5 -6.5h-422q-127 0 -219 86l-62 61q-23 14 -45 37q-92 93 -92 228zM-385 285q0 -123 82 -205q82 -80 203 -80h422q82 0 145 33q63 -33 170 -33h596l74 285h-623 q-33 0 -35 26l17 68l651 199q76 23 126 73.5t66 128.5l27 121q4 16 7 34.5t5 41.5q8 117 -82 201q-88 78 -204 77h-451q-80 0 -143 -36q-61 37 -144 36h-450q-96 0 -174 -59q-76 -57 -101 -154l-174 -688q-10 -36 -10 -69zM-80 354q0 12 2 19l137 547q12 53 70 53h348 q33 0 37 -29l-149 -590q-4 -8 -5.5 -16t-3.5 -19q-18 -35 -61 -34h-303q-72 -1 -72 69zM61 315h234q10 0 19.5 6.5t15.5 14.5v2q0 8 4 24q18 74 36.5 147t37.5 146q12 47 23 95.5t24 95.5h-224q-35 0 -45 -35zM748 700l51 201q2 8 3 16.5t3 18.5q14 37 63 37h303 q70 -8 70 -72q0 -10 -2 -18l6 6q-8 -39 -49 -51zM924 784q14 4 28.5 9.5t30.5 9.5q35 10 69.5 21.5t69.5 21.5h-151q-25 0 -39 -19q-2 -10 -3 -18t-3 -16z" />
<glyph unicode="&#x178;" horiz-adv-x="1259" d="M-219 979q0 23 3 41t7 37q25 98 51.5 202.5t51.5 202.5h208l-47 47h-14l88 303h320l-5 -12l99 -96l-84 -291h-170l59 -59l-104 -404q51 -27 84 -41q39 16 84 39t84 41q27 8 32 33l111 422l-70 72h-14l88 303h322l-4 -13l98 -96l-74 -248h19l-5 -12l99 -96l-146 -559 q-41 -154 -209 -217l-188 -74q-41 -154 -83 -317.5t-83 -317.5h-344l-96 96h-15l150 625q-33 18 -58.5 37.5t-45.5 42.5l-54 53q-145 104 -145 256zM-188 979q0 -164 200 -272l117 -64l-154 -647h291l164 627l203 79q156 61 192 201l138 529h-293l-111 -418q-8 -39 -47 -51 l-184 -86l-168 81q-49 25 -49 68q0 12 2 18l100 388h-293l-98 -383q-10 -37 -10 -70zM82 1540h256l70 242h-256zM596 1546h256l72 242h-258z" />
<glyph unicode="&#x2c6;" horiz-adv-x="1200" d="M45 1503l68 248l374 64l392 -68l-5 -10l99 -97l-64 -229l-358 64q-90 -16 -198.5 -33t-196.5 -33l-97 96zM88 1542l361 62l339 -62l52 180l-353 62l-348 -62z" />
<glyph unicode="&#x2d8;" d="M55 1587l70 240q39 -18 86 -36.5t94 -32t91 -23t79 -9.5q86 0 202 32t224 77l-6 -16l98 -97l-69 -239q-57 -27 -105.5 -45.5t-93.5 -28.5t-91 -15t-97 -5q-80 4 -182.5 31.5t-188.5 68.5l-88 88q-13 2 -23 10zM94 1604q76 -35 170 -59.5t172 -28.5q51 0 94 5t85 14 t87.5 25.5t98.5 41.5l51 180q-84 -35 -186.5 -60.5t-190.5 -25.5q-37 0 -80 8t-87 20.5t-86 27.5t-77 32z" />
<glyph unicode="&#x2da;" horiz-adv-x="1705" d="M244 1640q0 80 71 132q61 43 140 43q78 0 139 -43q37 -29 55 -64l66 -63q23 -23 35 -48.5t12 -58.5q0 -72 -72 -125q-33 -20 -63.5 -31.5t-69.5 -11.5q-72 0 -135 43q-16 12 -25 21l-69 67q-4 4 -6.5 5t-6.5 5q-71 49 -71 129zM274 1640q0 -61 60 -104q57 -39 121 -39 q35 0 63.5 10.5t56.5 28.5q59 43 60 104q0 66 -60 107q-53 37 -120 37q-70 0 -121 -37q-60 -41 -60 -107zM383 1636q0 29 23 47q23 20 55 21q31 0 53 -18q25 -23 25 -50q0 -68 -78 -67q-78 -1 -78 67z" />
<glyph unicode="&#x2dc;" horiz-adv-x="1200" d="M10 1448l70 258l145 84q51 27 101 27q45 0 143 -56q82 -49 106 -49q25 0 62 17l225 98l-6 -19l98 -96l-69 -239l-152 -72q-68 -25 -112 -25q-45 0 -142 51q-72 45 -98 46q-10 0 -26.5 -5.5t-30.5 -9.5l-201 -100l-98 98q-7 -4 -15 -8zM59 1507l152 76q37 16 68 16 q27 0 110 -49q84 -47 129 -47q43 0 96 19l148 69l51 181l-164 -72q-41 -18 -74 -19q-33 0 -122 54q-88 51 -127 51q-20 0 -42 -5t-44 -18l-131 -75z" />
<glyph unicode="&#x2dd;" horiz-adv-x="991" d="M55 1505l174 310h326l-6 -11l12 -14l14 25h326l-6 -11l98 -98l-168 -297h-311l-22 23l-13 -23h-311l-96 96h-17zM106 1536h256l142 248h-256zM453 1536h256l141 248h-256z" />
<glyph unicode="&#x398;" horiz-adv-x="1193" d="M-416 285q0 23 3 41t7 36l312 1207q31 113 112 170q43 31 91.5 48t101.5 17h451q131 0 221 -90q12 -12 22 -25.5t21 -25.5l49 -51l-2 2l8 -6q90 -90 90 -219q0 -18 -2 -38t-8 -40h2q-76 -297 -152.5 -590t-152.5 -590q-31 -119 -123 -186l-2 2q-96 -74 -209 -74h-422 q-127 0 -219 86l-62 61q-23 14 -45 37q-92 93 -92 228zM-385 285q0 -123 82 -205q82 -80 203 -80h422q111 0 196 68q86 66 113 172l305 1179q8 31 8 72q0 121 -82 203q-80 80 -200 80h-451q-96 0 -174 -60q-74 -53 -100 -153l-312 -1207q-10 -36 -10 -69zM-80 354q0 12 2 19 l275 1065q12 53 69 53h348q37 0 37 -37q0 -6 -2 -8l-287 -1108q-12 -53 -67 -53h-303q-72 -1 -72 69zM61 315h234q14 0 23.5 9.5t13.5 21.5q23 88 46 177t46 182h-254l-6 6zM100 831h318l67 244h-317zM266 1106h260l-4 -12l4 -2q16 68 35 136t35 136h-227q-35 0 -45 -35z " />
<glyph unicode="&#x3a8;" horiz-adv-x="1490" d="M-264 864q0 23 3 41.5t7 36.5q51 211 106.5 431t106.5 431h358l-4 -12l72 -72q6 23 11 42.5t12 41.5h360l-4 -12l82 -80q4 23 10 46.5t12 45.5h361l-4 -12l98 -96l-246 -985q-31 -119 -123 -187h-2q-96 -72 -209 -71h-196q-37 -141 -75 -285.5t-75 -286.5h-346l-96 96 h-14l127 486q-76 18 -134 76l-61 61q-23 14 -45 37q-92 92 -92 227zM-233 864q0 -123 81 -205q82 -80 203 -79h80l-149 -572h292l150 572h217q111 0 197 67q86 66 112 172l238 955h-293l-213 -856q-12 -53 -68 -54h-116l229 910h-293l-229 -910h-62q-72 0 -71 70q0 12 2 18 l202 822h-290l-209 -840q-10 -37 -10 -70z" />
<glyph unicode="&#x3b8;" horiz-adv-x="1126" d="M-416 285q0 23 3 41t7 36l312 1207q31 113 112 170q43 31 91.5 48t101.5 17h364q131 0 222 -90q12 -12 22 -25.5t21 -25.5l55 -55q90 -90 90 -219q0 -18 -2 -38t-8 -40h2q-76 -297 -152.5 -590t-152.5 -590q-31 -119 -123 -186l-2 2q-96 -74 -209 -74h-336 q-127 0 -219 86l-62 61q-23 14 -45 37q-92 93 -92 228zM-385 285q0 -123 82 -205q82 -80 203 -80h336q111 0 196 68q86 66 113 172l305 1179q8 31 8 72q0 121 -82 203q-80 80 -201 80h-364q-96 0 -174 -60q-74 -53 -100 -153l-312 -1207q-10 -36 -10 -69zM-80 354q0 12 2 19 l119 458h362l-127 -493q-12 -53 -67 -53h-217q-72 -1 -72 69zM61 315h148q14 0 23.5 9.5t13.5 21.5l92 359h-174q-25 -98 -50.5 -195t-52.5 -195zM102 1075l95 363q12 53 69 53h262q37 0 37 -37q0 -6 -2 -8l-96 -371h-365zM266 1106h174q8 33 16.5 61.5t16.5 61.5l37 135 h-141q-35 0 -45 -35z" />
<glyph unicode="&#x3c8;" horiz-adv-x="1376" d="M-416 285q0 23 3 41t7 36l244 922h357l-5 -12l37 -37l13 49h358l-4 -12l47 -47q4 16 8 29.5t8 29.5h359l-4 -12l98 -96l-274 -1045q-16 -55 -46 -103t-77 -83l-2 2q-96 -74 -209 -74h-148q-12 -45 -24.5 -96t-22.5 -94h-346l-96 96h-15l31 117q-29 10 -52.5 26.5 t-45.5 36.5l-62 61q-23 14 -45 37q-92 93 -92 228zM-385 285q0 -123 82 -205q82 -80 203 -80h41l-50 -190h293l49 190h166q111 0 197 68q86 66 113 172l266 1013h-293l-242 -915q-16 -53 -67 -53h-66l250 968h-293l-250 -968h-22q-72 0 -72 69q0 12 2 19l232 880h-291 l-238 -899q-10 -36 -10 -69z" />
<glyph unicode="&#x400;" horiz-adv-x="1191" d="M226 2520h319l6 -17l93 -92l172 -483h-308l-96 96h-10zM269 2489l153 -434h256l-153 434h-256zM-362 285q0 23 3 41t7 36l311 1207q31 113 113 170q43 31 91 48t101 17h729l-4 -12l98 -96l-83 -332h-582q-14 0 -26.5 -11.5t-18.5 -23.5q-16 -59 -30.5 -114.5 t-29.5 -112.5h281l-4 -12l98 -97l-86 -334h-399q-23 -88 -47.5 -173t-46.5 -171h495l-4 -12l98 -96l-86 -334h-561q-131 0 -219 88l-57 57q-12 10 -24.5 19.5t-24.5 21.5q-92 93 -92 226zM-332 285q0 -123 82 -205q80 -80 203 -80h541l73 285h-524q-70 0 -70 69q0 12 2 19 l109 413h399l74 285h-403l96 367q16 53 69 53h562l71 283h-688q-96 0 -174 -60q-74 -53 -100 -153l-312 -1207q-10 -36 -10 -69z" />
<glyph unicode="&#x401;" horiz-adv-x="1191" d="M-362 285q0 23 3 41t7 36l239 924q31 113 113 170q33 23 70 39l-11 12h-12l90 303h320l-4 -12l98 -96l-53 -180h65l84 286h322l-4 -12l98 -96l-78 -258l31 -29l-84 -332h-582q-14 0 -26.5 -11t-18.5 -23q-12 -39 -18 -64h280l-4 -12l99 -97l-87 -333h-399 q-16 -57 -30.5 -113.5t-30.5 -112.5h493l-4 -12l98 -96l-86 -334h-561q-131 0 -219 88l-57 57q-12 10 -24.5 19.5t-24.5 21.5q-92 93 -92 226zM-332 285q0 -123 82 -205q80 -80 203 -80h541l73 285h-524q-70 0 -70 69q0 12 2 19l78 295h400l73 284h-403l55 203q16 53 70 53 h561l72 283h-688q-96 0 -175 -59q-74 -53 -100 -154l-240 -924q-10 -36 -10 -69zM88 1538h256l72 242h-256zM600 1536h256l72 242h-258z" />
<glyph unicode="&#x402;" horiz-adv-x="1685" d="M-125 1460l92 344h1163l-4 -12l99 -96l-86 -332h-404q-6 -23 -11 -42t-9 -38h215q131 0 221 -90l20 -25q10 -12 19 -24l59 -58q90 -90 90 -225q-16 -72 -33.5 -143.5t-33.5 -140.5q-10 -39 -20.5 -82t-20.5 -84q-18 -78 -39 -163t-37 -145q-14 -51 -42 -94t-69 -73 q-86 -63 -190 -64h-397l-84 84q-6 -23 -12.5 -42t-10.5 -42h-346l-96 96h-14l360 1395h-268l-97 96h-14zM-84 1491h403l-385 -1491h293h2l250 971h404q35 0 35 -37v-8q-10 -41 -15.5 -62.5t-10.5 -42t-12.5 -48.5t-20.5 -79t-35.5 -136t-57.5 -220q-16 -53 -70 -53h-235 l-74 -285h365q98 0 176 59q76 57 100 154q12 47 26.5 104.5t30 120t30.5 126t30 122.5q33 139 67 285q0 121 -82 203q-80 80 -200 79h-379l61 238h404l74 283h-1098zM465 315h231q10 0 21.5 10.5t17.5 20.5q35 133 59.5 228.5t39.5 148.5q6 20 9 35.5t7 27.5q4 16 7 30.5 t7 27.5h-262q-35 -133 -68.5 -264.5t-68.5 -264.5z" />
<glyph unicode="&#x403;" horiz-adv-x="1138" d="M-514 -31l340 1317q29 104 115 172q86 63 190 64h172l166 295h326l-7 -11l99 -98l-107 -186h82l-4 -13l98 -96l-86 -332h-581q-35 0 -45 -34l-301 -1174h-346l-97 96h-14zM-473 0h293l297 1155q12 53 69 53h562l73 283h-690q-96 0 -172 -57q-78 -59 -102 -156zM346 1538 h256l141 248h-256z" />
<glyph unicode="&#x404;" horiz-adv-x="1193" d="M-416 283q0 16 1 29.5t3 23.5q2 4 2 6v8q0 4 1 7t1 5l306 1180q31 121 125 187q100 76 215 75h421q131 0 224 -90q12 -12 22 -25.5t21 -25.5l55 -55q90 -90 90 -222q0 -35 -10 -75q-4 -20 -13.5 -51t-13.5 -52h-342l-96 97h-14l14 59h-227q-35 0 -45 -35l-48 -184h271 l-4 -12l98 -97l-82 -291h-387q-29 -109 -56.5 -216t-56.5 -214h236q14 0 23.5 9.5t13.5 21.5q6 23 13 50.5t13 49.5h361l-4 -12l98 -96l-63 -234q-16 -53 -42 -94t-69 -73q-86 -63 -188 -64h-451q-129 0 -217 88l-57 57q-12 10 -24.5 19.5t-25.5 21.5q-92 93 -92 224z M-385 283q0 -121 82 -203q80 -80 201 -80h450q96 0 174 59q39 29 62.5 68t38.5 86l55 203h-295l-21 -78q-12 -53 -67 -53h-303q-72 0 -72 69q0 12 2 19l129 499h387l68 242h-393l84 324q12 53 69 53h348q37 0 37 -37q0 -6 -2 -8l-28 -111h290l23 84q10 37 10 70 q0 123 -82 205q-84 80 -203 80h-421q-111 0 -197 -68q-86 -66 -113 -172l-305 -1180q-2 -14 -4 -26q-2 -10 -3 -22.5t-1 -22.5z" />
<glyph unicode="&#x405;" horiz-adv-x="1167" d="M-494 -31l91 346h583q16 0 25.5 9.5t13.5 21.5q23 84 44.5 170t43.5 172q-41 12 -82 25.5t-82 25.5q-78 25 -127 76l-59 59q-23 14 -41 33t-35 41q-29 41 -45 88t-16 101q0 43 8 77q10 43 21.5 87.5t23.5 89.5q10 43 22.5 89t24.5 89q31 113 113 170q43 31 91 48t101 17 h729l-4 -12l99 -96l-84 -332h-582q-35 0 -45 -35l-53 -209l168 -51q104 -33 161 -111q4 -4 7 -8l4 -8l61 -59q8 -8 14.5 -15.5t12.5 -15.5q59 -82 59 -186q0 -18 -2 -37t-8 -39h2q-31 -123 -62.5 -243t-62.5 -243q-29 -106 -111 -167q-86 -63 -190 -64h-721l-96 96h-15z M-453 0h689q98 0 176 59q76 57 100 154l125 485q8 31 8 70q0 94 -55 172q-53 72 -146 100l-245 76q-51 14 -52 68q0 12 3 16l61 238q12 53 70 53h561l71 283h-688q-96 0 -174 -60q-74 -53 -100 -153l-92 -355q-8 -31 -9 -69q0 -96 56 -170q53 -74 143 -103l248 -76 q49 -16 49 -65q0 -14 -2 -18l-94 -367q-12 -53 -70 -53h-559z" />
<glyph unicode="&#x406;" horiz-adv-x="509" d="M-504 -31l475 1835h359l-4 -12l98 -96l-471 -1823h-346l-96 96h-15zM-463 0h293l459 1774h-293z" />
<glyph unicode="&#x407;" horiz-adv-x="509" d="M-504 -31l375 1444h-39l-96 96h-15l89 303h319l-4 -12l43 -43l18 60h322l-4 -13l98 -96l-86 -291h-217l43 -43l-389 -1501h-346l-96 96h-15zM-463 0h293l377 1452h-293zM-238 1540h256l70 242h-256zM139 1544h256l72 242h-258z" />
<glyph unicode="&#x408;" horiz-adv-x="1107" d="M-537 -31l91 346h583q10 0 21.5 10.5t17.5 20.5q45 174 93 358.5t96.5 372t96.5 371.5t93 356h358l-4 -12l99 -96l-412 -1592q-29 -106 -111 -167q-86 -63 -190 -64h-721l-96 96h-15zM-496 0h689q98 0 176 59q76 57 100 154l403 1561h-292l-373 -1436q-16 -53 -70 -53 h-559z" />
<glyph unicode="&#x409;" horiz-adv-x="1943" d="M-506 -29l90 387h133q39 150 76 300.5t78 302.5q41 154 80 305l78 303q14 53 40.5 94t71.5 76q88 66 193 65h799l-5 -12l99 -96l-160 -613h86q82 0 128 -21.5t93 -68.5q12 -12 22.5 -25.5t20.5 -25.5l56 -55q90 -90 90 -219q0 -37 -11 -78l-116 -459q-31 -119 -125 -186 l-2 2q-96 -74 -207 -74h-688l-97 96h-14q12 61 61.5 259t143.5 548q8 27 15 55.5t16 59.5q10 35 19 72.5t20 78.5q16 61 32.5 124t34.5 132l8 33l9 33h-170q-35 0 -46 -35l-374 -1456l-467 2l-97 96h-14zM-467 2l416 -2l370 1438q12 53 70 53h340q-61 -236 -108.5 -412 t-81.5 -311q-47 -174 -82 -304t-57.5 -223.5t-37 -151.5t-20.5 -89h657q109 0 195 68q88 66 115 172l116 458q10 37 11 72q0 121 -82 203q-41 41 -83 60.5t-118 19.5h-250l189 721h-758q-96 0 -174 -60q-76 -57 -101 -153l-317 -1233h-131zM709 285l125 485h272q35 0 35 -37 v-8l-101 -387q-12 -53 -69 -53h-262zM868 315h103q16 0 25.5 9.5t13.5 21.5q18 72 37.5 146.5t39.5 150.5h-131q-23 -90 -44 -167t-44 -161z" />
<glyph unicode="&#x40a;" horiz-adv-x="1875" d="M-504 -31l475 1835h359l-4 -12l98 -96l-148 -594h254l185 702h362l-4 -12l98 -96l-153 -590h129q82 0 129 -22.5t94 -69.5l21 -25q10 -12 18 -24l59 -58q88 -88 88 -217q0 -37 -10 -78l-125 -483q-14 -53 -46 -102.5t-79 -83.5l-2 2q-96 -74 -207 -74l-731 2l-96 96h-14 q4 16 10 38t10 38t7 32.5t8 26.5q-2 -4 0 7.5t4 15.5q4 20 12 52t22.5 90.5t38 151.5t60.5 238h-260q-51 -197 -102.5 -394t-102.5 -392h-346l-96 96h-15zM-463 0h293l205 786h448q-49 -193 -80.5 -314.5t-50 -195t-27 -111.5t-13.5 -60.5t-10 -43.5l-15 -61l-2 -2h700 q109 0 195 68q90 68 114 172l125 483q10 37 11 72q0 121 -80 200q-41 41 -84 61.5t-119 20.5h-293l182 699h-297l-182 -703h-440l172 703h-293zM651 283l133 510h316q35 0 35 -37v-8l-109 -412q-12 -53 -70 -53h-305zM813 313h143q16 0 25.5 9.5t13.5 21.5q20 78 41 159 t43 163h-172q-25 -96 -48 -179.5t-46 -173.5z" />
<glyph unicode="&#x40b;" horiz-adv-x="1685" d="M-125 1460l92 344h1163l-4 -12l99 -96l-86 -332h-404q-6 -25 -12 -44.5t-10 -35.5h217q131 0 221 -90q12 -12 22.5 -25.5t20.5 -25.5l55 -56q90 -90 90 -219q0 -37 -10 -77l-237 -918h-347l-96 96h-14l227 875h-260q-63 -242 -125.5 -485.5t-126.5 -485.5h-346l-96 96 h-14l360 1395h-268l-97 96h-14zM-84 1491h403l-385 -1491h293h2l250 971h404q35 0 35 -37v-8l-242 -926h293l233 899q10 37 10 72q0 121 -82 203q-80 80 -200 79h-379q4 14 5 19.5t6 24t16.5 61.5t33.5 133h404l74 283h-1098z" />
<glyph unicode="&#x40c;" horiz-adv-x="1267" d="M-498 -31l422 1571h359l-4 -12l14 -15l170 302h325l-6 -11l99 -98l-97 -168h217l-4 -12l99 -96l-92 -316h-31q-31 -61 -63.5 -124.5t-63.5 -127.5q55 -84 55 -178q0 -18 -2 -36.5t-8 -39.5h2q-47 -180 -95 -367.5t-96 -367.5h-346l-96 96h-14l178 690h-260 q-51 -197 -102.5 -394t-102.5 -392h-346l-96 96h-15zM-457 0h293l205 786h356q72 0 72 -69q0 -12 -2 -19l-180 -698h293l186 717q8 31 8 69q0 96 -59 175l139 280h29l78 266h-306l-184 -391q-23 -45 -65 -45h-283l119 438h-293zM287 1102h119q20 0 36 26q33 68 65 138.5 t66 142.5h-172l-96 96h-2l74 -73zM340 1536h256l141 248h-256z" />
<glyph unicode="&#x40d;" horiz-adv-x="1284" d="M119 2520h319l6 -17l93 -92l172 -483h-308l-96 96h-10zM162 2489l153 -434h256l-153 434h-256zM-504 -31l475 1835h359l-4 -12l98 -96l-70 -281q20 14 40 26.5t40 26.5q59 41 117.5 79t118.5 79q4 18 9 41t11 45q4 18 10.5 43t14.5 49h358l-4 -12l98 -96l-471 -1823h-346 l-96 96h-14l233 905q-78 -53 -156.5 -102t-156.5 -102q-51 -197 -103.5 -398.5t-103.5 -398.5h-346l-96 96h-15zM-463 0h293l205 786l543 357l-297 -1143h292l459 1774h-293l-43 -166l-534 -357l127 523h-293z" />
<glyph unicode="&#x40e;" horiz-adv-x="1310" d="M-422 -31l90 346h584q31 0 37 25q6 27 12 49h-205q-129 0 -217 88l-57 58q-12 10 -24.5 19t-24.5 21q-92 92 -92 224q0 39 10 80q10 43 22.5 92t24.5 96q27 102 53.5 206.5t48.5 201.5h357q-8 4 -15.5 7t-15.5 7l-88 88q-12 2 -23 10l70 240q39 -18 86 -36.5t94 -32 t91 -23t79 -9.5q86 0 202 32t224 77l-6 -16l98 -97l-69 -239q-10 -4 -27 -13h49l-4 -12l98 -96l-329 -1258q-14 -51 -42 -94t-69 -73q-86 -63 -190 -64h-721l-97 96h-14zM-381 0h688q98 0 176 59q76 57 101 154l321 1227l-297 4l-164 -645h-403q-35 0 -35 37v8l154 600h-293 l-146 -574q-10 -37 -10 -71q0 -121 82 -203q80 -80 201 -80h379l-54 -184q-14 -47 -67 -47h-559zM94 1604q76 -35 170 -59.5t172 -28.5q51 0 94 5t85 14t87.5 25.5t98.5 41.5l51 180q-84 -35 -186.5 -60.5t-190.5 -25.5q-37 0 -80 8t-87 20.5t-86 27.5t-77 32zM158 829h260 q16 59 31.5 119t31.5 123q20 78 40 159t40 159h-24q-72 4 -163 26.5t-173 57.5l-4 -11l98 -96z" />
<glyph unicode="&#x40f;" horiz-adv-x="1284" d="M-504 -31l475 1835h359l-4 -12l98 -96l-356 -1381h260q45 168 87 336t87 338q53 205 106.5 409t106.5 406h358l-4 -12l98 -96l-471 -1823h-409q-12 -47 -26.5 -96t-24.5 -94h-310l-96 96h-14l26 94h-235l-96 96h-15zM-463 0h371l-51 -190h256l51 190h409l459 1774h-293 l-387 -1489h-448l385 1489h-293z" />
<glyph unicode="&#x410;" horiz-adv-x="1300" d="M-487 -29l413 1600q14 53 41 94t72 76q88 66 192 65h869l-4 -12l98 -96l-469 -1823h-346l-96 96h-15l166 678h-266l-197 -774h-348l-96 96h-14zM-446 2h294l197 774h455l-191 -774h293l457 1774h-828q-96 0 -174 -60q-76 -57 -100 -153zM111 1053l100 385q16 53 70 53 h409l-117 -438h-462zM272 1083h277q8 29 15 61t16 60q10 41 21 80t22 80h-240q-14 0 -26.5 -11.5t-18.5 -23.5q-18 -66 -34 -126.5t-32 -119.5z" />
<glyph unicode="&#x411;" horiz-adv-x="1210" d="M-498 -29l475 1835h1104l-4 -12l99 -96l-91 -332h-505q115 -6 202 -90q12 -12 22.5 -25.5t20.5 -25.5l56 -56q90 -90 90 -219q0 -37 -10 -78l-189 -741q-31 -119 -125 -186l-2 2q-96 -74 -207 -74l-825 2l-96 96h-15zM-457 2h4v-2h789q109 0 194 68q88 66 115 172 l189 741q10 37 10 72q0 121 -82 202q-80 80 -201 80h-381l41 158h742l77 283h-1038zM-86 285l197 768h403q35 0 35 -37v-8l-172 -670q-12 -53 -70 -53h-393zM78 315h229q16 0 25.5 9.5t13.5 21.5q35 141 74 287.5t76 292.5h-263q-43 -162 -79.5 -308.5t-75.5 -302.5z" />
<glyph unicode="&#x412;" horiz-adv-x="1202" d="M-498 -31l475 1837l705 -2q160 0 246 -123q2 -4 6 -8l57 -57q18 -20 35 -41q57 -86 57 -180q0 -23 -3 -43.5t-7 -40.5l-86 -334q-10 -43 -31.5 -80t-58.5 -70q14 -45 14 -94q0 -18 -2 -37.5t-8 -40.5h2q-35 -137 -70.5 -275t-70.5 -276q-14 -51 -42 -94t-69 -73 q-86 -63 -190 -64h-848l-96 96h-15zM-457 0h815q98 0 177 59q76 59 100 154l141 551q8 31 8 72q0 53 -18 102q74 61 94 147l86 334q4 20 7 39t3 39q0 88 -53 166q-78 111 -221 111l-680 2zM-90 285l102 399l369 115q6 2 20 2q35 0 58 -29q18 -29 10 -59l-96 -375 q-12 -53 -70 -53h-393zM68 315h235q16 0 25.5 9.5t13.5 21.5q18 76 38.5 151.5t39.5 153.5l-283 -88q-16 -68 -34.5 -127.5t-34.5 -120.5zM96 1008l125 483h404q47 0 34 -43l-63 -254q-10 -37 -49 -49zM272 1092l265 82q8 4 16 12t12 16q4 18 10.5 41t10.5 43q4 18 9 37.5 t9 40.5h-260q-20 -76 -38 -141t-34 -131z" />
<glyph unicode="&#x413;" horiz-adv-x="1138" d="M-514 -31l414 1600q29 104 114 172q86 63 191 63h731l-4 -12l98 -96l-86 -332h-582q-35 0 -45 -35l-374 -1456h-346l-97 96h-14zM-473 0h293l370 1438q12 53 70 53h561l74 283h-690q-96 0 -172 -58q-78 -59 -103 -155z" />
<glyph unicode="&#x414;" horiz-adv-x="1214" d="M-580 -182l136 495h90q41 158 81 311.5t80 313.5q41 160 82 316.5t82 314.5q29 104 115 172q86 63 190 63h730l-5 -12l99 -96l-357 -1383h11l-4 -12l98 -96l-131 -484h-309l-97 97h-14l14 55h-430q-10 -35 -21.5 -76t-19.5 -76h-309l-96 97h-15zM-539 -152h256l41 152 h621l-41 -152h256l119 435h-133l385 1491h-689q-96 0 -172 -58q-78 -59 -102 -155l-330 -1278h-92zM-35 279l297 1159q12 53 70 53h270l-315 -1208v-4h-322zM129 309h131l275 1055h-101q-35 0 -45 -35z" />
<glyph unicode="&#x415;" horiz-adv-x="1191" d="M-362 285q0 23 3 41t7 36l311 1207q31 113 113 170q43 31 91 48t101 17h729l-4 -12l98 -96l-83 -332h-582q-14 0 -26.5 -11.5t-18.5 -23.5q-16 -59 -30.5 -114.5t-29.5 -112.5h281l-4 -12l98 -97l-86 -334h-399q-23 -88 -47.5 -173t-46.5 -171h495l-4 -12l98 -96 l-86 -334h-561q-131 0 -219 88l-57 57q-12 10 -24.5 19.5t-24.5 21.5q-92 93 -92 226zM-332 285q0 -123 82 -205q80 -80 203 -80h541l73 285h-524q-70 0 -70 69q0 12 2 19l109 413h399l74 285h-403l96 367q16 53 69 53h562l71 283h-688q-96 0 -174 -60q-74 -53 -100 -153 l-312 -1207q-10 -36 -10 -69z" />
<glyph unicode="&#x416;" horiz-adv-x="1695" d="M-502 -31l195 756l13 40q7 22 18 36v-2q45 94 147 176q10 98 23.5 202.5t25.5 206.5q12 104 24.5 212t24.5 208h367l-2 -12l98 -96l-70 -596h9q23 86 45 171t45 177q23 90 47 180t47 176h358l-4 -12l99 -96l-154 -586q4 4 12 16q35 90 73 185.5t77 191.5q31 76 61.5 154 t59.5 147h370l-6 -12l98 -96l-329 -834q55 -84 55 -178q0 -18 -2 -36.5t-8 -39.5h2q-47 -180 -95 -367.5t-96 -367.5h-346l-96 96h-14l178 690h-107l-102 -394t-102 -392h-347l-96 96h-14l178 690h-27q-55 0 -88 -61h-2q-2 -2 -2 -4t-2 -4h2q-45 -174 -92 -358.5t-92 -358.5 h-346l-96 96h-15zM-461 0h293l180 698q4 12 8 19q37 70 109 69h195l-203 -786h293l204 786h203q72 0 72 -69q0 -12 -2 -19l-180 -698h293l186 717q8 31 8 69q0 96 -59 175l323 813h-305l-262 -658q-18 -45 -66 -45h-139l182 703h-292l-183 -705l-57 2q-12 0 -32.5 3t-39 8 t-32 13.5t-11.5 20.5l78 658h-305l-96 -813q-102 -80 -150 -175q-18 -35 -28 -69z" />
<glyph unicode="&#x417;" horiz-adv-x="1204" d="M-504 -31l94 344h705q14 0 23.5 9.5t13.5 21.5q23 88 45 181t45 186h-350l-97 96h-14l86 342h455q14 4 29.5 19.5t23.5 29.5l41 162h-604l-96 96h-15l86 348l692 -4q61 0 118 -24.5t104 -65.5q10 -12 20 -23.5t19 -23.5l65 -64q84 -84 84 -215q0 -18 -2 -37.5t-8 -39.5h2 l-86 -332q-12 -47 -32.5 -84t-55.5 -66q14 -43 14 -96q0 -18 -2 -36.5t-8 -39.5h2q-35 -137 -72 -274t-71 -275q-31 -109 -111 -167q-41 -29 -89 -46.5t-99 -17.5h-844l-96 96h-15zM-463 0h811q96 0 174 59q74 53 101 154l143 549q8 31 8 69q0 55 -20 105q70 57 94 147 l86 332q8 31 8 72q0 121 -82 201q-82 82 -201 81l-665 5l-72 -287h692q35 0 35 -37v-8l-63 -252q-25 -59 -82 -72h-430l-72 -280h428q45 6 45 -37q0 -14 -6 -33l-107 -432q-12 -53 -67 -53h-680z" />
<glyph unicode="&#x418;" horiz-adv-x="1284" d="M-504 -31l475 1835h359l-4 -12l98 -96l-70 -281q20 14 40 26.5t40 26.5q59 41 117.5 79t118.5 79q4 18 9 41t11 45q4 18 10.5 43t14.5 49h358l-4 -12l98 -96l-471 -1823h-346l-96 96h-14l233 905q-78 -53 -156.5 -102t-156.5 -102q-51 -197 -103.5 -398.5t-103.5 -398.5 h-346l-96 96h-15zM-463 0h293l205 786l543 357l-297 -1143h292l459 1774h-293l-43 -166l-534 -357l127 523h-293z" />
<glyph unicode="&#x419;" horiz-adv-x="1200" d="M-504 -31l391 1514h291l-12 6l-88 88q-12 2 -23 10l70 240q39 -18 86 -36.5t94 -32t91 -23t79 -9.5q86 0 202 32t224 77l-6 -16l98 -97l-69 -239h65l-4 -13l98 -96l-387 -1501h-346l-96 96h-14l170 660q-78 -53 -156 -102.5t-158 -102.5q-35 -135 -71.5 -276.5 t-71.5 -274.5h-346l-96 96h-15zM-463 0h293l141 541l543 356l-233 -897h292l375 1452h-293l-22 -90l-535 -356l107 446h-293zM94 1604q76 -35 170 -59.5t172 -28.5q51 0 94 5t85 14t87.5 25.5t98.5 41.5l51 180q-84 -35 -186.5 -60.5t-190.5 -25.5q-37 0 -80 8t-87 20.5 t-86 27.5t-77 32zM266 1446l74 -72l-49 -203l78 52q59 39 116.5 77.5t118.5 79.5q0 2 1 4t1 5q-16 -2 -33.5 -1t-35.5 1q-59 4 -129 18t-142 39z" />
<glyph unicode="&#x41a;" horiz-adv-x="1259" d="M-498 -31l475 1835h359l-4 -12l98 -96l-147 -594h32q27 0 37 24q35 90 73 185.5t77 191.5q31 76 61.5 154t59.5 147h456l-4 -12l99 -96l-93 -316h-120q-45 -113 -87.5 -215t-85.5 -215l25 -24q-2 2 -3 2t-3 2l6 -4q23 -23 39 -55.5t27.5 -66.5t16.5 -65.5t5 -54.5 q0 -18 -2 -36.5t-8 -39.5h2q-47 -180 -95 -367.5t-96 -367.5h-346l-96 96h-14l178 690h-260q-51 -197 -102.5 -394t-102.5 -392h-346l-96 96h-15zM-457 0h293l205 786h356q72 0 72 -69q0 -12 -2 -19l-180 -698h293l186 717q8 31 8 69q0 25 -7 63t-21.5 75t-37 68.5 t-53.5 43.5l187 471h119l77 267h-395l-262 -658q-18 -45 -66 -45h-192l172 703h-293z" />
<glyph unicode="&#x41b;" horiz-adv-x="1447" d="M-496 -29l90 387h109q39 150 76 300.5t78 302.5q41 154 80 305l77 303q14 53 41 94t72 76q88 66 192 65h867q-2 -4 -2 -6t-2 -6l98 -96q-16 -61 -29.5 -113.5t-21.5 -85.5t-18.5 -73t-28 -109.5t-45 -178t-71.5 -278.5t-106.5 -410.5t-148.5 -574.5h-346l-96 96h-15 l363 1395h-240q-35 0 -45 -35l-375 -1456l-442 2l-96 96h-15zM-457 2l391 -2l371 1438q12 53 70 53h407l-387 -1491h293q86 332 147.5 570.5t104.5 406.5t70.5 274.5t45 174t28 106.5t18.5 72l17 69q9 37 26 101h-826q-96 0 -174 -60q-76 -57 -100 -153l-317 -1233h-107z " />
<glyph unicode="&#x41c;" horiz-adv-x="1607" d="M-504 -31l481 1866l512 -530q84 51 169 103t178 108q135 82 274 165.5t262 157.5l-6 -20l98 -97l-477 -1849h-346l-96 96h-15l256 983q-72 -41 -141.5 -82t-134.5 -79l-98 96q-2 0 -2 -1t-2 -1l-154 155q-78 -291 -151.5 -584.5t-149.5 -582.5h-346l-96 96h-15zM-463 0 h293l313 1200l269 -276l471 276l-312 -1200h293l459 1774l-838 -508l-489 508z" />
<glyph unicode="&#x41d;" horiz-adv-x="1284" d="M-504 -31l475 1835h359l-4 -12l98 -96l-148 -594h254q23 86 45.5 171t45.5 175t47 180t47 176h358l-4 -12l98 -96l-471 -1823h-346l-96 96h-14l178 690h-260q-51 -197 -102.5 -394t-102.5 -392h-346l-96 96h-15zM-463 0h293l205 786h448l-202 -786h292l459 1774h-293 l-182 -703h-440l172 703h-293z" />
<glyph unicode="&#x41e;" horiz-adv-x="1193" d="M-416 285q0 23 3 41t7 36l312 1207q31 113 112 170q43 31 91.5 48t101.5 17h451q131 0 221 -90q12 -12 22 -25.5t21 -25.5l55 -55q90 -90 90 -219q0 -18 -2 -38t-8 -40h2q-76 -297 -152.5 -590t-152.5 -590q-31 -119 -123 -186l-2 2q-96 -74 -209 -74h-422 q-127 0 -219 86l-62 61q-23 14 -45 37q-92 93 -92 228zM-385 285q0 -123 82 -205q82 -80 203 -80h422q111 0 196 68q86 66 113 172l305 1179q8 31 8 72q0 121 -82 203q-80 80 -200 80h-451q-96 0 -174 -60q-74 -53 -100 -153l-312 -1207q-10 -36 -10 -69zM-80 354q0 12 2 19 l275 1065q12 53 69 53h348q37 0 37 -37q0 -6 -2 -8l-287 -1108q-12 -53 -67 -53h-303q-72 -1 -72 69zM61 315h234q14 0 23.5 9.5t13.5 21.5q66 252 132 507t132 511h-227q-35 0 -45 -35z" />
<glyph unicode="&#x41f;" horiz-adv-x="1284" d="M-504 -31l475 1835h1102l-4 -12l98 -96l-471 -1823h-346l-96 96h-14l360 1393h-262q-96 -369 -192.5 -745.5t-192.5 -743.5h-346l-96 96h-15zM-463 0h293l387 1489h449l-385 -1489h292l459 1774h-1036z" />
<glyph unicode="&#x420;" horiz-adv-x="1241" d="M-500 -31l475 1835h695q133 0 223 -90q12 -12 22.5 -25.5t20.5 -25.5l55 -55q90 -90 90 -219q0 -37 -10 -78l-86 -334q-41 -164 -209 -217l-639 -197q-43 -170 -89 -346t-89 -344h-348l-96 96h-15zM-459 0h295l176 684l656 201q150 45 190 200l86 334q10 37 10 72 q0 121 -82 203q-80 80 -202 80h-670zM94 1008l125 483h406q18 0 26 -14q8 -16 6 -31l-63 -252q-8 -37 -47 -49zM270 1092q68 20 134.5 40.5t132.5 41.5q6 4 14 12t12 16l41 162h-262z" />
<glyph unicode="&#x421;" horiz-adv-x="1191" d="M-362 285q0 23 3 41t7 36l311 1207q31 113 113 170q43 31 91 48t101 17h729l-4 -12l98 -96l-83 -332h-582q-35 0 -45 -35l-262 -1014h493l-4 -12l98 -96l-86 -334h-561q-131 0 -219 88l-57 57q-12 10 -24.5 19.5t-24.5 21.5q-92 93 -92 226zM-332 285q0 -123 82 -205 q80 -80 203 -80h541l73 285h-524q-70 0 -70 69q0 12 2 19l275 1065q12 53 69 53h562l71 283h-688q-96 0 -174 -60q-74 -53 -100 -153l-312 -1207q-10 -36 -10 -69z" />
<glyph unicode="&#x422;" horiz-adv-x="1746" d="M-500 -31l475 1835h1121q131 0 221 -90q12 -12 22.5 -25.5t20.5 -25.5l55 -55q90 -90 90 -219q0 -18 -2 -38t-8 -40h2q-92 -356 -185 -719t-186 -719h-348l-96 96h-14l362 1395h-108q-96 -373 -192.5 -746.5t-192.5 -744.5h-347l-96 96h-14l360 1395h-98 q-96 -373 -192.5 -746.5t-192.5 -744.5h-346l-96 96h-15zM-459 0h293l385 1491h287l-385 -1491h293l385 1491h250q37 0 36 -37q0 -6 -2 -8l-374 -1446h295l366 1419q8 31 8 72q0 121 -82 203q-80 80 -200 80h-1096z" />
<glyph unicode="&#x423;" d="M-422 -31l90 346h584q14 0 23.5 7.5t13.5 17.5q4 12 7 24.5t7 24.5h-207q-129 0 -217 88l-57 58q-12 10 -24.5 19t-24.5 21q-92 92 -92 224q0 39 10 80q29 111 56.5 226.5t55.5 231.5q29 117 56.5 236t56.5 229h360l-4 -12l99 -96l-217 -865h266q20 80 38.5 158t39.5 158 q18 72 38.5 156.5t42 173t42 172.5t38.5 155h363l-4 -12l98 -96l-405 -1590q-29 -106 -111 -167q-86 -63 -190 -64h-721l-97 96h-14zM-381 0h688q98 0 176 59q76 57 101 154l397 1559h-295l-242 -973h-403q-35 0 -35 37v8l230 928h-293l-222 -902q-10 -37 -10 -71 q0 -121 82 -203q80 -80 201 -80h379l-54 -184q-12 -47 -67 -47h-559z" />
<glyph unicode="&#x424;" horiz-adv-x="1380" d="M-338 569q0 23 3 41.5t7 36.5l174 688q31 113 113 170q43 31 91 48.5t102 17.5h204q14 55 30.5 117.5t31.5 115.5h358l-4 -12l98 -96l-34 -131q86 -14 155 -84q12 -12 22.5 -25.5t20.5 -25.5l56 -56q90 -90 90 -219q0 -18 -2 -37.5t-9 -40.5h2q-41 -166 -84 -330.5 t-83 -330.5q-31 -119 -123 -187h-2q-96 -72 -209 -71h-199q-16 -68 -35.5 -143.5t-36.5 -141.5h-346l-96 96h-14l51 199q-72 18 -133 76l-62 61q-23 14 -45 37q-92 92 -92 227zM-307 569q0 -123 82 -204q82 -80 202 -80h80l-73 -285h292l74 285h217q111 0 197 67 q86 66 113 172l167 662q8 31 9 71q0 121 -82 203q-80 80 -201 80h-96l61 234h-293l-61 -234h-229q-96 0 -175 -59q-74 -53 -100 -154l-174 -688q-10 -37 -10 -70zM-2 639q0 12 2 18l137 547q12 53 70 53h102l-178 -688h-61q-72 0 -72 70zM424 569l178 688h121q37 0 37 -36 q0 -6 -2 -9l-150 -589q-12 -53 -67 -54h-117z" />
<glyph unicode="&#x425;" horiz-adv-x="1384" d="M-492 -31l130 500q29 98 112 164q25 20 50.5 39.5t52.5 42.5l136 106t134 107q-23 41 -47.5 84t-46.5 84v-2q-25 41 -49.5 85t-47.5 87q-16 31 -26 71.5t-10 81.5q0 39 10 80q6 29 14 59.5t17 63.5q12 47 23 94t22 88h360l-4 -12l98 -96l-92 -357h-2v-2q-2 -6 -2 -10 q0 -14 6 -22l76 -134q23 18 45 35t45 35q45 35 91 74t93 74q10 10 15 22q10 43 22 94t27 101q12 49 26.5 101t26.5 97h358l-4 -12l99 -96l-129 -496q-12 -47 -41 -90t-68 -74q-92 -74 -184 -146.5t-185 -146.5q45 -82 92.5 -165.5t92.5 -163.5q39 -74 39 -152 q0 -18 -2 -36.5t-9 -39.5h2q-18 -74 -39.5 -156.5t-39.5 -156.5h-346l-97 96h-14l96 377q0 2 2 4t2 6q0 2 -8 19q-18 35 -36.5 66.5t-37.5 64.5q-70 -57 -137 -112.5t-139 -110.5h2q-4 -4 -9 -11.5t-7 -13.5q-23 -90 -50.5 -192.5t-50.5 -192.5h-346l-96 96h-15zM-451 0h293 l97 367q6 20 24 36l338 271l158 -285q10 -16 10 -33q0 -10 -4 -18l-86 -338h293l76 295q8 31 8 70q0 78 -35 139l-195 348l385 305q74 57 99 152l120 465h-292l-97 -371q-6 -23 -24 -37l-332 -262l-162 291q-10 16 -10 35q0 6 4 18l84 326h-293l-71 -283q-10 -37 -11 -72 q0 -78 35 -139l201 -356l-393 -314q-76 -61 -101 -149z" />
<glyph unicode="&#x426;" horiz-adv-x="1284" d="M-504 -31l475 1835h359l-4 -12l98 -96l-356 -1381h260q45 168 87 336t87 338q53 205 106.5 409t106.5 406h358l-4 -12l98 -96l-358 -1387h100l-4 -12l99 -96l-132 -484h-311l-96 97h-14l16 59h-860l-96 96h-15zM-463 0h1000l-43 -156h256l118 435h-223l387 1495h-293 l-387 -1489h-448l385 1489h-293z" />
<glyph unicode="&#x427;" horiz-adv-x="1253" d="M-309 868q0 39 10 80l217 854h358l-4 -12l99 -96l-203 -795h260q29 111 57.5 220.5t57.5 226.5q29 115 58.5 230.5t57.5 225.5h363l-4 -12l98 -96l-469 -1821h-346l-96 96h-15l127 490h-211q-129 0 -217 88l-57 57q-12 10 -24.5 19.5t-24.5 21.5q-92 92 -92 223z M-279 868q0 -121 82 -202q80 -80 201 -80h379l-152 -586h293l457 1772h-295l-231 -904h-404q-35 0 -35 37v8l220 859h-293l-211 -832q-11 -37 -11 -72z" />
<glyph unicode="&#x428;" horiz-adv-x="1738" d="M-504 -31l475 1835h359l-4 -12l98 -96l-356 -1381h88q45 168 87 336t87 338q53 205 106 409t107 406h358l-4 -12l98 -96l-356 -1381h94q45 168 87 336t87 338q53 205 106.5 409t106.5 406h359l-4 -12l98 -96l-471 -1823h-1495l-96 96h-15zM-463 0h1442l459 1774h-293 l-387 -1489h-283l385 1489h-293l-387 -1489h-276l385 1489h-293z" />
<glyph unicode="&#x429;" horiz-adv-x="1738" d="M-504 -31l475 1835h359l-4 -12l98 -96l-356 -1381h88q45 168 87 336t87 338q53 205 106 409t107 406h358l-4 -12l98 -96l-356 -1381h94q45 168 87 336t87 338q53 205 106.5 409t106.5 406h359l-4 -12l98 -96l-356 -1381h8l-4 -12l98 -96l-131 -483h-309l-97 96h-14l14 53 h-1175l-96 96h-15zM-463 0h1313l-41 -150h256l119 435h-131l385 1489h-293l-387 -1489h-283l385 1489h-293l-387 -1489h-276l385 1489h-293z" />
<glyph unicode="&#x42a;" horiz-adv-x="1527" d="M-197 -31l361 1395h-178l-97 96h-14l92 344h674l-4 -12l98 -96l-90 -332h217q82 0 129 -21.5t94 -68.5q10 -10 19.5 -22.5t17.5 -22.5l62 -62q88 -90 88 -219q0 -23 -3 -41t-7 -37l-189 -741q-14 -53 -46 -102.5t-79 -83.5l-2 2q-96 -74 -207 -74l-825 2l-96 96h-15z M-156 0h6l-2 -2h789q109 0 194 68q90 68 115 172l189 741q4 18 7 35.5t3 36.5q0 119 -80 202q-41 41 -84 60.5t-119 19.5h-381l119 441h-608l-76 -283h313zM215 283l197 768h403q35 0 35 -37v-8l-172 -670q-12 -53 -70 -53h-393zM379 313h229q16 0 25.5 9.5t13.5 21.5 q35 141 74 287.5t76 292.5h-262q-43 -162 -80 -308.5t-76 -302.5z" />
<glyph unicode="&#x42b;" horiz-adv-x="1757" d="M-494 -31l476 1835h362l-4 -12l98 -96l-90 -332h217q82 0 129 -21.5t94 -68.5q10 -10 19.5 -22.5t17.5 -22.5l62 -62q78 -82 88 -194l215 831h358l-4 -12l98 -96l-471 -1823h-346l-96 96h-14l12 51q-27 -43 -76 -77l-2 2q-96 -74 -207 -74l-825 2l-96 96h-15zM-453 0h4 v-2h789q109 0 195 68q88 66 114 172l189 741q10 37 10 72q0 119 -80 202q-41 41 -84 60.5t-119 19.5h-381l119 441h-297zM-82 283l197 768h403q35 0 35 -37v-8l-172 -670q-12 -53 -70 -53h-393zM82 313h229q16 0 25.5 9.5t13.5 21.5q35 141 74 287.5t76 292.5h-262 q-43 -162 -80 -308.5t-76 -302.5zM756 0h293l458 1774h-293z" />
<glyph unicode="&#x42c;" horiz-adv-x="1200" d="M-494 -31l476 1835h362l-4 -12l98 -96l-90 -332h217q82 0 129 -21.5t94 -68.5q10 -10 19.5 -22.5t17.5 -22.5l62 -62q88 -90 88 -219q0 -37 -10 -78l-189 -741q-31 -119 -125 -186l-2 2q-96 -74 -207 -74l-825 2l-96 96h-15zM-453 0h4v-2h789q109 0 195 68q88 66 114 172 l189 741q10 37 10 72q0 119 -80 202q-41 41 -84 60.5t-119 19.5h-381l119 441h-297zM-82 283l197 768h403q35 0 35 -37v-8l-172 -670q-12 -53 -70 -53h-393zM82 313h229q16 0 25.5 9.5t13.5 21.5q35 141 74 287.5t76 292.5h-262q-43 -162 -80 -308.5t-76 -302.5z" />
<glyph unicode="&#x42d;" horiz-adv-x="1193" d="M-416 285q0 23 3 41t7 36q2 12 4.5 20.5t6.5 18.5t5 20.5t5 20.5l242 949l49 178q16 53 41.5 95t70.5 75q88 66 193 65h451q131 0 221 -90q12 -12 22 -25.5t21 -25.5l55 -55q90 -90 90 -219q0 -16 -1 -28.5t-3 -23.5q-2 -4 -2 -8t-1 -9t-1 -9l-305 -1180 q-31 -119 -123 -186l-2 2q-96 -74 -209 -74h-422q-127 0 -219 86l-62 61q-23 14 -45 37q-92 93 -92 228zM-385 285q0 -123 82 -205q82 -80 203 -80h422q111 0 196 68q86 66 113 172l305 1179q2 14 4 27q2 10 3 22.5t1 22.5q0 121 -82 203q-80 80 -200 80h-451 q-96 0 -174 -60q-39 -29 -62.5 -67.5t-37.5 -85.5l-50 -179l-241 -948l-21 -80q-10 -36 -10 -69zM-354 434h293h-293zM-113 1382h291h-291zM-80 354q0 12 2 19l17 61l239 948l19 56q18 53 69 53h348q37 0 37 -37q0 -6 -2 -8l-102 -397l-539 2l-67 -244h542l-121 -469 q-12 -53 -67 -53h-303q-72 -1 -72 69zM63 315h232q14 0 23.5 9.5t13.5 21.5q23 84 44 166t44 168h-266l-88 -354q-3 -5 -3 -11zM256 1079h266q16 63 31.5 126t32.5 124q2 8 3 16.5t5 18.5h-225q-35 0 -47 -37l-19 -53h2z" />
<glyph unicode="&#x42e;" horiz-adv-x="1812" d="M-504 -31l475 1835h359l-4 -12l98 -96l-150 -584h95q14 59 28.5 113.5t30.5 111.5t29.5 114.5t29.5 117.5q31 113 113 170q43 31 91 48t102 17h426q131 0 221 -90q12 -12 22.5 -25.5t20.5 -25.5l55 -55q90 -90 90 -219q0 -18 -2 -38t-8 -40h2q-76 -297 -152.5 -590 t-152.5 -590q-31 -119 -123 -186l-2 2q-96 -74 -209 -74h-397q-127 0 -219 86l-64 61q-23 14 -43 37q-92 92 -92 228q0 23 3 41t7 36l84 324h-96q-53 -203 -105.5 -407.5t-105.5 -405.5h-346l-96 96h-15zM-463 0h293l211 813h285l-119 -459q-10 -37 -10 -69q0 -123 82 -205 q82 -80 202 -80h398q111 0 196 68q86 66 113 172l305 1179q8 31 8 72q0 121 -82 203q-80 80 -200 80h-426q-96 0 -175 -60q-74 -53 -100 -153l-123 -480h-284l178 693h-293zM502 354q0 12 2 19l274 1065q12 53 70 53h323q37 0 37 -37q0 -6 -2 -8l-286 -1108q-12 -53 -68 -53 h-279q-71 -1 -71 69zM643 315h209q14 0 23.5 9.5t13.5 21.5q66 252 132 507t132 511h-203q-35 0 -45 -35z" />
<glyph unicode="&#x42f;" horiz-adv-x="1196" d="M-575 -31l219 817q6 20 19 46t31.5 50.5t38 47t38.5 39.5q-23 27 -35 64.5t-12 76.5q0 16 1 31.5t7 32.5q10 29 28.5 82t40.5 112q16 53 32.5 103.5t27.5 80.5l-8 9l-13 -9q4 45 39 98.5t76 86.5q88 68 192 67h854l-4 -12l99 -96l-373 -1446q-18 -66 -35.5 -137.5 t-38.5 -149.5l-11 -44t-11 -46h-344l-97 96h-14l182 705q-133 -43 -258 -80q-25 -8 -30 -33l-183 -688h-348l-96 96h-14zM-535 0h295l179 670q8 37 47 49l450 137l-223 -856h291q25 98 47 187t45 171l365 1416h-814q-98 0 -174 -60q-37 -29 -66.5 -74t-33.5 -79 q-2 0 -10 -29l-21 -72q-12 -43 -25.5 -94t-25.5 -95t-20.5 -73t-8.5 -31q-10 -31 -9 -62.5t10.5 -60t25.5 -50t35 -29.5q-20 -6 -43 -26.5t-44.5 -47.5t-38.5 -56.5t-24 -56.5zM64.5 1124.5q-3.5 26.5 2 54t11.5 50.5l8 33q8 33 19.5 70.5t19.5 70.5t8 35q4 23 22.5 38 t47.5 15h395l-78 -311l-368 -113q-16 -4 -23 -4q-33 0 -47 17.5t-17.5 44zM201 1112q31 10 60.5 18.5t57.5 18.5q41 14 85.5 27.5t89.5 27.5l38 160h-227q-37 0 -45 -33h-2q-2 -18 -10 -53t-19 -70q-10 -31 -17 -57.5t-9 -30.5h2q-2 -2 -2 -4t-2 -4z" />
<glyph unicode="&#x430;" d="M-475 -31l121 473q43 170 215 222q82 25 160.5 48t158.5 48q63 20 129 39.5t131 42.5h-483l-96 96h-15l91 344h620q131 0 221 -90q12 -12 22.5 -25.5t20.5 -25.5l56 -56q90 -90 90 -219q0 -49 -11 -78h2q-57 -225 -117.5 -457.5t-117.5 -457.5h-1088l-96 96h-14zM-434 0 h1034l231 897q8 27 9 72q0 121 -82 202q-80 80 -201 80h-596l-74 -282h623q37 0 37 -41l-25 -94l-653 -199q-154 -47 -193 -201zM-68 285l9 41q6 35 47 49l450 139l-57 -229h-449zM307 315h49q2 4 2 8.5t2 8.5z" />
<glyph unicode="&#x431;" horiz-adv-x="1253" d="M-418 285q0 23 3 41t7 36l275 1086q31 113 113 170q43 31 91 48t101 17h729l-4 -12l98 -96l-84 -332h-227q31 -20 61 -47q12 -12 22.5 -25.5t20.5 -25.5l50 -51l-2 2l8 -6q90 -90 90 -220q0 -18 -2 -37.5t-8 -39.5h2q-41 -166 -84 -331t-84 -331q-31 -119 -123 -186l-2 2 q-96 -74 -209 -74h-418q-66 -16 -123 13.5t-102 74.5l-47 47q-16 10 -30.5 23.5t-29.5 27.5q-92 93 -92 226zM-387 285q0 -123 82 -205q20 -20 42.5 -37.5t48.5 -30t53.5 -16.5t58.5 4h2h422q111 0 196 68q86 66 113 172l168 661q8 31 8 72q0 121 -82 203q-80 80 -201 79 h-383l17 62q12 53 69 53h561l72 283h-688q-96 0 -174 -60q-74 -53 -100 -153l-275 -1086q-10 -36 -10 -69zM-80 354q0 12 2 19l137 547q12 53 70 53h348q37 0 37 -37q0 -6 -2 -8l-150 -590q-12 -53 -67 -53h-303q-72 -1 -72 69zM61 315h234q14 0 23.5 9.5t13.5 21.5 q29 119 62.5 247t66.5 253h-230q-35 0 -45 -35z" />
<glyph unicode="&#x432;" horiz-adv-x="1202" d="M-498 -31l338 1311l705 -2q160 0 246 -123q2 -4 6 -8l57 -57q18 -20 35 -41q57 -86 57 -181q0 -23 -3 -43t-7 -41l-33 -131q-10 -43 -31.5 -79.5t-58.5 -69.5q14 -45 14 -94q0 -18 -2 -38t-8 -40h2q-14 -57 -28.5 -113.5t-28.5 -114.5q-29 -106 -111 -167 q-86 -63 -190 -64h-848l-96 96h-15zM-457 0h815q98 0 177 59q76 59 100 154l57 227q8 31 8 72q0 53 -18 102q74 61 94 148l33 131q4 20 7 38.5t3 39.5q0 88 -53 166q-78 111 -221 110l-680 2zM-90 285l18 75l369 115q6 2 20 2q35 0 58 -28q18 -29 10 -60l-12 -51 q-12 -53 -70 -53h-393zM12 684l72 281h403q43 0 35 -43l-10 -52q-6 -37 -49 -49zM190 770l224 68h-207q-6 -20 -9.5 -36t-7.5 -32zM295 315h8q16 0 27 11z" />
<glyph unicode="&#x433;" horiz-adv-x="1138" d="M-416 285q0 4 1 10t1 10q2 35 11 62q4 12 6 28.5t6 30.5q4 16 7 29.5t7 29.5q18 88 73.5 144.5t139.5 81.5l430 131h-413l-97 96h-14l90 346l592 2q66 0 120 -21.5t105 -64.5q31 -31 49 -57l60 -60q88 -92 80 -211q-4 -25 -6.5 -44t-6.5 -35q-6 -29 -13 -61t-13 -60 q-18 -86 -72.5 -140.5t-138.5 -78.5l-449 -138h152h307l-4 -12l98 -96l-86 -334h-588q-23 0 -42 2t-37 8q-90 16 -156 78l-66 66q-10 8 -20 15t-21 17q-102 97 -92 226zM-385 283q-8 -117 82 -201q31 -29 66.5 -46.5t76.5 -25.5v-2q33 -8 76 -8h567l74 285l-565 2 q-70 8 -70 71q0 10 2 19l-6 -6q8 39 49 51l512 156q76 23 126 73.5t67 128.5l26 121q4 16 7.5 34.5t5.5 41.5q8 117 -82 201q-88 78 -205 77l-567 -2l-74 -284h549l6 4q66 -12 65 -72q0 -10 -2 -18l7 6q-8 -39 -50 -51l-512 -156q-76 -23 -126 -74t-66 -129l-27 -121 q-4 -16 -7 -34t-5 -41z" />
<glyph unicode="&#x434;" d="M-471 -219l90 346h584q31 0 37 25l14 49h-207q-129 0 -217 88l-57 57q-12 10 -24.5 19.5t-24.5 21.5q-92 92 -93 223q0 39 11 80q10 37 22 89t27 106q10 37 19 73l16 62q33 119 127 186q100 76 213 76h831l-4 -12l98 -96l-329 -1258q-14 -51 -42 -94t-69 -74 q-86 -63 -191 -63h-720l-97 96h-14zM-430 -188h688q98 0 176 59q76 59 101 154l321 1226h-790q-109 0 -195 -67q-88 -66 -115 -172l-84 -330q-10 -37 -10 -72q0 -121 82 -202q80 -80 201 -80h379l-54 -185q-14 -47 -67 -47h-559zM-43 647v8l68 258q16 53 69 54h393l-92 -357 h-403q-35 0 -35 37zM106 641h265q12 49 24.5 91t22.5 87q2 4 2 9.5t2 11.5h-225q-14 0 -26.5 -11.5t-18.5 -23.5q-10 -41 -23 -82t-23 -82z" />
<glyph unicode="&#x435;" d="M-393 285q0 23 3 41t7 36l174 689q29 109 111 170q88 66 192 65h451q66 0 120 -21.5t105 -64.5q31 -31 49 -57l60 -60q88 -92 79 -211q-4 -25 -6 -44t-6 -35q-6 -29 -13 -61t-13 -60q-18 -86 -72.5 -140.5t-138.5 -78.5l-453 -138h375l-4 -12l98 -96l-86 -334h-616 q-156 0 -232 76l-65 65q-10 6 -20.5 14.5t-20.5 18.5q-78 78 -78 238zM-362 285q0 -150 67 -217q68 -68 215 -68h596l74 285h-623q-35 0 -35 34v9l13 51l655 199q76 23 126 73.5t67 128.5l26 121q4 16 7 34.5t5 41.5q8 117 -81 201q-88 78 -205 77h-451q-96 0 -174 -59 q-74 -55 -98 -154l-174 -688q-10 -36 -10 -69zM29 700l53 220q12 53 70 53h303q70 -8 69 -72q0 -10 -2 -18l6 6q-8 -39 -49 -51zM201 784q16 4 31.5 9.5t31.5 9.5q35 10 71 21.5t71 21.5h-152q-16 0 -28.5 -10.5t-16.5 -24.5q-4 -11 -8 -27z" />
<glyph unicode="&#x436;" horiz-adv-x="1519" d="M-502 -31l125 475q2 4 2 6.5t2 6.5l8 28q4 14 15 31q49 92 147 172q4 72 9.5 151t9.5 152q4 76 9 152t9 147h365v-12l96 -96l-6 -123q16 59 29.5 118.5t27.5 112.5h361l-5 -12l97 -96q14 29 26 55l25 53h373l-6 -12l98 -96l-268 -604q55 -84 55 -179q0 -18 -2 -36.5 t-8 -38.5h2q-29 -109 -59.5 -225.5t-59.5 -225.5h-346l-97 96h-14l105 406h-25q-33 -123 -67.5 -252t-65.5 -250h-346l-96 96h-15l101 391q-23 -16 -37 -45q-4 -8 -6 -10h2q-27 -104 -56.5 -216t-56.5 -216h-346l-96 96h-15zM-461 0h293l109 414q4 12 8 18q33 70 106 70h123 l-129 -502h293l133 502h123q72 0 72 -70q0 -4 -1 -9t-1 -9l-109 -414h293l115 432q8 31 8 70q0 96 -60 174l261 584h-306l-198 -429q-23 -45 -66 -45h-59l119 474h-293l-119 -476l-59 2q-43 0 -41 45l14 429h-305l-35 -584q-98 -76 -150 -174q-10 -16 -16 -34.5t-10 -35.5z M281 717l4 -4q-4 0 -4 4z" />
<glyph unicode="&#x437;" horiz-adv-x="1204" d="M-504 -31l94 344h705q12 0 22.5 10.5t14.5 20.5q4 12 7 26.5t7 30.5h-348l-96 97h-15l86 342h455q2 0 4 2h-567l-96 96h-15l86 348l692 -4q61 0 118 -24.5t104 -65.5q10 -12 20 -23.5t19 -23.5l65 -64q84 -84 84 -215q0 -18 -2 -37.5t-8 -40.5h2l-16 -61l-17 -61 q-12 -47 -32.5 -84t-55.5 -66q14 -43 14 -96q0 -18 -2 -36.5t-8 -39.5h2q-16 -59 -34.5 -119.5t-34.5 -120.5q-16 -53 -42 -94t-69 -73q-86 -63 -188 -64h-844l-96 96h-15zM-463 0h811q96 0 174 59q39 29 62.5 68t38.5 86l69 240q8 31 8 69q0 55 -20 105q70 57 94 147 l33 123q8 31 8 72q0 121 -82 200q-82 82 -201 82l-665 4l-72 -286h692q23 0 29 -12.5t6 -32.5l-10 -43q-25 -59 -82 -72h-430l-72 -281h428q45 6 45 -36q0 -14 -6 -33l-33 -123q-16 -53 -67 -53h-680z" />
<glyph unicode="&#x438;" horiz-adv-x="1284" d="M-412 285q0 43 9 77q29 113 58.5 228t59.5 231q31 117 63 233.5t60 229.5h357l-5 -12l99 -96l-223 -861h337q31 121 61 239t62 241q31 119 65 245.5t64 243.5h361l-4 -12l98 -96l-340 -1303h-766q-129 0 -217 88l-57 57q-12 10 -24.5 19.5t-24.5 21.5q-93 93 -93 226z M-381 285q0 -123 82 -205q80 -80 201 -80h745l328 1253h-295l-252 -968h-479q-35 0 -35 34v9l240 925h-291l-236 -899q-8 -30 -8 -69z" />
<glyph unicode="&#x439;" horiz-adv-x="1284" d="M-412 285q0 43 9 77q29 113 58.5 228t59.5 231q31 117 63 233.5t60 229.5h357l-5 -12l99 -96l-223 -861h337q31 121 61 239t62 241q31 119 65 245.5t64 243.5h361l-4 -12l98 -96l-340 -1303h-766q-129 0 -217 88l-57 57q-12 10 -24.5 19.5t-24.5 21.5q-93 93 -93 226z M-381 285q0 -123 82 -205q80 -80 201 -80h745l328 1253h-295l-252 -968h-479q-35 0 -35 34v9l240 925h-291l-236 -899q-8 -30 -8 -69zM55 1587l70 240q39 -18 86 -36.5t94 -32t91 -23t79 -9.5q86 0 202 32t224 77l-6 -16l98 -97l-69 -239q-57 -27 -105.5 -45.5t-93.5 -28.5 t-91 -15t-97 -5q-80 4 -182.5 31.5t-188.5 68.5l-88 88q-13 2 -23 10zM94 1604q76 -35 170 -59.5t172 -28.5q51 0 94 5t85 14t87.5 25.5t98.5 41.5l51 180q-84 -35 -186.5 -60.5t-190.5 -25.5q-37 0 -80 8t-87 20.5t-86 27.5t-77 32z" />
<glyph unicode="&#x43a;" horiz-adv-x="1267" d="M-498 -31l375 1317h356l-4 -12l99 -96l-115 -373h115q29 0 37 24l161 455h367l-4 -12l98 -96l-92 -316h-31q-25 -74 -49 -145.5t-49 -147.5q57 -82 57 -180q0 -18 -2 -36.5t-8 -39.5h2q-27 -104 -56.5 -219t-56.5 -219h-346l-96 96h-14l100 393h-260 q-31 -119 -64.5 -244.5t-62.5 -244.5h-346l-96 96h-15zM-457 0h293l127 489h356q72 0 72 -69q0 -12 -2 -19l-102 -401h293l108 420q8 31 8 69q0 96 -59 175l108 323h29l78 266h-305l-154 -434q-14 -45 -65 -45h-283l148 481h-293z" />
<glyph unicode="&#x43b;" horiz-adv-x="1230" d="M-500 -31l92 344h125l21 82l20 82q37 143 74 287.5t72 284.5q14 53 40.5 94t71.5 76q88 66 193 65h711q-2 -4 -2 -6t-3 -6l99 -96q-4 -20 -13.5 -57.5t-19.5 -71.5q-12 -45 -32.5 -127t-55.5 -220.5t-86 -340t-125 -486.5h-346l-96 96h-15l226 875h-84q-35 0 -45 -35 l-238 -936h-473l-96 96h-15zM-459 0h420l234 918q12 53 69 53h252l-250 -971h293q70 272 119 465.5t83 325t54.5 211t32.5 128t18 74t13 49.5h-670q-96 0 -174 -59q-76 -57 -101 -154l-192 -757h-125z" />
<glyph unicode="&#x43c;" horiz-adv-x="1607" d="M-504 -31l346 1346l512 -531q84 51 169 103.5t177 107.5q135 82 274.5 166t262.5 158l-6 -21l98 -96l-342 -1329h-346l-96 96h-15l121 463q-72 -41 -141.5 -82t-134.5 -80l-99 97q-2 0 -2 -1t-2 -1l-151 153q-41 -160 -84 -324.5t-84 -320.5h-346l-96 96h-15zM-463 0h293 l178 680l268 -277l472 277l-177 -680h293l324 1253l-838 -508l-489 508z" />
<glyph unicode="&#x43d;" horiz-adv-x="1351" d="M-504 -31l340 1315h359l-5 -12l99 -96l-86 -359h254q14 55 28.5 112.5t30.5 117.5q16 59 31.5 119.5t30.5 117.5h360l-4 -12l98 -96l-336 -1303h-346l-96 96h-14l104 406h-260q-33 -123 -66.5 -252t-64.5 -250h-346l-96 96h-15zM-463 0h293l131 502h449l-129 -502h292 l324 1253h-293l-121 -467h-440l111 467h-293zM-139 1253h293h-293z" />
<glyph unicode="&#x43e;" horiz-adv-x="1253" d="M-416 285q0 23 3 41t7 36l175 689q31 113 112 170q43 31 91 48t102 17h450q131 0 221 -90q12 -12 22.5 -25.5t20.5 -25.5l56 -55q90 -90 90 -220q0 -18 -2 -37.5t-8 -39.5h2q-41 -166 -84 -331t-84 -331q-31 -119 -123 -186l-2 2q-96 -74 -209 -74h-422q-127 0 -219 86 l-62 61q-23 14 -45 37q-92 93 -92 228zM-385 285q0 -123 82 -205q82 -80 203 -80h422q111 0 196 68q86 66 113 172l168 661q8 31 8 72q0 121 -82 203q-80 80 -201 79h-450q-96 0 -174 -59q-74 -53 -101 -154l-174 -688q-10 -36 -10 -69zM-80 354q0 12 2 19l137 547 q12 53 70 53h348q37 0 37 -37q0 -6 -2 -8l-150 -590q-12 -53 -67 -53h-303q-72 -1 -72 69zM61 315h234q14 0 23.5 9.5t13.5 21.5q29 119 62.5 247t66.5 253h-230q-35 0 -45 -35z" />
<glyph unicode="&#x43f;" horiz-adv-x="1257" d="M-537 -31l342 1317h760q131 0 223 -90q12 -12 22.5 -25.5t20.5 -25.5l56 -55q90 -90 90 -220q0 -37 -10 -77l-238 -920h-346l-96 96h-15l228 877h-328q-63 -242 -125.5 -486.5t-126.5 -486.5h-346l-96 96h-15zM-496 0h293l252 973h469q37 0 37 -37v-8l-242 -928h293 l234 901q10 37 10 72q0 121 -82 203q-84 80 -203 79h-735z" />
<glyph unicode="&#x440;" d="M-547 -219l389 1503h695q133 0 223 -90q12 -12 22.5 -25.5t20.5 -25.5l49 -51l-2 2l8 -7q90 -90 90 -219q0 -37 -10 -77l-133 -502q-41 -164 -209 -217l-641 -197q-10 -45 -21.5 -96t-21.5 -94h-348l-96 96h-15zM-506 -188h295l43 184l655 201q150 45 191 200l133 502 q10 37 10 72q0 121 -82 203q-80 80 -202 79h-670zM-86 319l172 652h406q18 0 26 -15q8 -16 6 -30l-110 -420q-8 -37 -47 -49zM92 403q68 20 134.5 41t129.5 41q6 4 14.5 12.5t12.5 16.5l86 330h-260z" />
<glyph unicode="&#x441;" horiz-adv-x="1191" d="M-362 285q0 23 3 41t7 36l172 687q31 113 112 170q43 31 91.5 48t101.5 17h729l-4 -12l98 -96l-84 -332h-581q-35 0 -45 -35l-125 -494h495l-4 -12l98 -96l-86 -334h-561q-131 0 -219 88l-57 57q-12 10 -24.5 19.5t-24.5 21.5q-92 93 -92 226zM-332 285q0 -123 82 -205 q80 -80 203 -80h541l73 285h-524q-70 0 -70 69q0 12 2 19l136 545q12 53 69 53h561l72 282h-688q-96 0 -174 -59q-74 -53 -101 -154l-172 -686q-10 -36 -10 -69z" />
<glyph unicode="&#x442;" horiz-adv-x="1935" d="M-500 -31l338 1315h1344q131 0 221 -90q12 -12 22.5 -25.5t20.5 -25.5l55 -56q90 -90 90 -219q0 -18 -2 -37.5t-8 -39.5h2q-57 -225 -116.5 -459t-116.5 -459h-346l-97 96h-14l223 875h-215q-59 -242 -123.5 -486.5t-124.5 -484.5h-346l-96 96h-14l223 875h-215 q-59 -242 -124 -486.5t-124 -484.5h-346l-96 96h-15zM-459 0h293l248 971h403l-247 -971h292l248 971h357q37 0 36 -37q0 -6 -2 -8l-235 -926h293l229 899q8 31 8 72q0 121 -82 203q-80 80 -200 79h-1319z" />
<glyph unicode="&#x443;" d="M-471 -219l90 346h584q31 0 37 25q6 27 12 49h-205q-129 0 -217 88l-57 57q-12 10 -24.5 19.5t-24.5 21.5q-92 92 -93 223q0 39 11 80q10 43 22 92t25 97q27 102 53.5 206.5t48.5 200.5h361l-5 -12l99 -96l-137 -537h260q16 59 31.5 118.5t31.5 123.5q27 102 52.5 203.5 t47.5 199.5l365 -4l-4 -12l98 -96l-329 -1258q-14 -51 -42 -94t-69 -74q-86 -63 -191 -63h-720l-97 96h-14zM-430 -188h688q98 0 176 59q76 57 101 154l321 1226l-297 4l-164 -645h-403q-35 0 -35 37v8l154 600h-293l-146 -573q-10 -37 -10 -72q0 -121 82 -202 q80 -80 201 -80h379l-54 -185q-14 -47 -67 -47h-559z" />
<glyph unicode="&#x444;" horiz-adv-x="1193" d="M-412 285q0 23 3 41t8 36q14 57 27.5 115t29.5 117q14 57 28.5 117.5t28.5 115.5q14 53 41 94.5t72 75.5q88 66 192 66h129q14 53 27.5 111.5t26.5 109.5h360l-4 -12l98 -96l-37 -148q39 -23 74 -55q10 -10 19.5 -22.5t17.5 -22.5l62 -62q88 -90 88 -219 q0 -18 -2.5 -37.5t-8.5 -40.5h2q-27 -111 -54.5 -219t-53.5 -219q-31 -119 -123 -186l-2 2q-96 -74 -209 -74h-109q-12 -45 -24 -96t-23 -94h-344l-96 96h-14l32 135q-16 10 -31.5 21.5t-31.5 23.5l-63 64q-12 8 -22.5 16t-20.5 18q-93 93 -93 228zM-381 285q0 -123 82 -205 q82 -80 203 -80h2l-49 -190h293l49 190h127q111 0 196 68q86 66 113 172l108 438q8 31 9 72q0 119 -80 202q-80 80 -203 80h-4l55 221h-293l-55 -221h-154q-96 0 -174 -59q-76 -57 -100 -154l-115 -465q-10 -36 -10 -69zM-76 354q0 12 2 19l78 323q16 53 70 54h24l-118 -465 q-56 8 -56 69zM272 285l119 465h31q37 0 37 -37q0 -6 -2 -8l-90 -367q-12 -53 -68 -53h-27z" />
<glyph unicode="&#x445;" horiz-adv-x="1384" d="M-492 -31l60 228q29 98 113 163l50 40t52 42q68 53 136.5 106.5t133.5 106.5q-23 41 -47 84t-47 84v-2q-25 41 -49.5 85t-46.5 87q-16 31 -26.5 72t-10.5 82q0 39 10 80q2 8 4 19l4 22q4 12 4 16h361l-4 -12l98 -96l-29 -109h-2v-2q-2 -6 -2 -10q0 -14 6 -23l76 -133 q23 18 45.5 34.5t44.5 35.5q45 35 91.5 73.5t93.5 73.5q10 10 14 23q4 16 9 33.5t9 35.5t10.5 39t10.5 37h358l-4 -12l99 -96l-66 -248q-12 -47 -41 -90t-68 -74q-92 -74 -184 -146.5t-184 -146.5q45 -82 92 -166t92 -164q39 -74 39 -151q0 -20 -2 -39t-8 -39l-12 -39h-340 l-97 96h-14l25 99q4 12 4 16q0 2 -9 18q-18 35 -36.5 67t-36.5 64q-70 -57 -137.5 -112t-139.5 -111h2q-4 -4 -9 -11t-7 -13l-15 -57l-16 -56h-346l-96 96h-15zM-451 0h293l27 94q6 20 25 37l337 270l158 -284q10 -16 10 -33q0 -10 -4 -18l-16 -66h293l6 23q8 31 8 69 q0 78 -35 139l-194 349l385 305q74 57 98 151l57 217h-292l-33 -123q-6 -23 -25 -36l-332 -263l-161 291q-10 16 -11 35q0 6 4 19l21 77h-293l-8 -34q-10 -37 -10 -72q0 -78 34 -139l201 -357l-393 -313q-76 -61 -100 -150z" />
<glyph unicode="&#x446;" horiz-adv-x="1284" d="M-504 -31l342 1319h359l-4 -12l98 -96l-223 -865h258q31 121 62.5 240t64.5 242t65.5 246.5t63.5 244.5h358l-4 -12l98 -96l-225 -871h100l-4 -12l99 -96l-132 -484h-311l-96 97h-14l16 59h-860l-96 96h-15zM-463 0h1000l-43 -156h256l118 435h-223l254 978h-293 l-254 -972h-448l252 972h-293z" />
<glyph unicode="&#x447;" horiz-adv-x="1253" d="M-385 582q0 39 10 80q37 147 80 312t78 312h360l-4 -12l99 -96l-146 -566h262q23 88 45.5 179.5t46.5 183.5q20 76 41 157.5t39 153.5h363l-4 -12l98 -96l-336 -1305h-346l-96 96h-15l52 203h-211q-129 0 -217 88l-58 57q-12 10 -24.5 19.5t-24.5 21.5q-92 93 -92 224z M-354 582q0 -121 82 -203q80 -80 200 -80h379l-76 -299h293l324 1255h-295l-174 -673h-404q-35 0 -34 36v9l161 628h-292l-154 -602q-10 -36 -10 -71z" />
<glyph unicode="&#x448;" horiz-adv-x="1497" d="M-504 -31l342 1317h359l-4 -12l71 -70q4 20 9.5 41t11.5 41h358l-4 -12l72 -70q4 20 9 41t11 41h359l-5 -12l99 -96l-338 -1305h-1239l-96 96h-15zM-463 0h1186l326 1255h-293l-254 -970h-152l252 970h-293l-254 -970h-151l252 970h-293z" />
<glyph unicode="&#x449;" horiz-adv-x="1497" d="M-504 -31l342 1315h359l-4 -12l69 -70q4 20 10.5 40t12.5 42h358l-4 -12l70 -70q4 20 10 40t12 42h359l-5 -12l99 -96l-223 -863h63l-4 -12l98 -96l-131 -484h-309l-96 97h-15l15 55h-975l-96 96h-15zM-463 0h1112l-41 -152h256l119 435h-186l252 970h-293l-254 -968 h-152l252 968h-293l-254 -968h-151l252 968h-293z" />
<glyph unicode="&#x44a;" horiz-adv-x="1630" d="M-238 979l86 305h650l-4 -12l98 -96l-43 -172h219q131 0 221 -91q12 -12 22.5 -25.5t20.5 -25.5l55 -55q90 -90 91 -219q0 -37 -11 -78l-98 -379q-16 -55 -47 -103t-78 -83l-2 2q-96 -74 -207 -74l-823 -2l-96 96h-15l236 916h-164l-96 96h-15zM-197 1010h299l-260 -1012 l791 2q109 0 194 68q88 66 115 172l98 378q10 37 11 72q0 121 -82 203q-80 80 -201 80h-379l68 280h-586zM211 285l106 405h404q35 0 35 -37v-8l-82 -307q-16 -53 -70 -53h-393zM371 315h233q10 0 21.5 10.5t17.5 20.5q10 35 20.5 76t20.5 78q4 16 8 31.5t8 31.5h-260 q-18 -68 -35.5 -127.5t-33.5 -120.5z" />
<glyph unicode="&#x44b;" horiz-adv-x="1630" d="M-496 -33l338 1317h359l-4 -12l98 -96l-43 -172h219q131 0 221 -91q12 -12 22.5 -25.5t20.5 -25.5l56 -55q61 -68 79 -143l162 620h359l-5 -12l99 -96l-336 -1303h-346l-96 96h-15l4 21q-18 -20 -49 -45l-2 2q-96 -74 -207 -74l-823 -2l-96 96h-15zM-455 -2l791 2 q109 0 194 68q88 66 115 172l98 378q10 37 11 72q0 121 -82 203q-80 80 -201 80h-379l68 280h-293zM-86 285l106 405h404q35 0 35 -37v-8l-82 -307q-16 -53 -70 -53h-393zM74 315h233q10 0 21.5 10.5t17.5 20.5q10 35 20.5 76t20.5 78q4 16 8 31.5t8 31.5h-260 q-18 -68 -35.5 -127.5t-33.5 -120.5zM733 0h293l324 1253h-293z" />
<glyph unicode="&#x44c;" d="M-494 -31l336 1315h359l-4 -12l98 -96l-43 -172h219q131 0 221 -91q12 -12 22.5 -25.5t20.5 -25.5l49 -51l-2 2l9 -6q90 -90 90 -219q0 -37 -11 -78l-98 -379q-16 -55 -47 -103t-78 -83l-2 2q-96 -74 -207 -74h-821l-96 96h-15zM-453 0h789q109 0 194 68q88 66 115 172 l98 378q10 37 11 72q0 121 -82 203q-80 80 -201 80h-379l68 280h-293zM-86 285l106 405h404q35 0 35 -37v-8l-82 -307q-16 -53 -70 -53h-393zM74 315h233q10 0 21.5 10.5t17.5 20.5q10 35 20.5 76t20.5 78q4 16 8 31.5t8 31.5h-260q-18 -68 -35.5 -127.5t-33.5 -120.5z" />
<glyph unicode="&#x44d;" horiz-adv-x="1193" d="M-416 285q0 23 3 41t7 36q2 12 4.5 20.5t6.5 18.5t5 20.5t5 20.5l113 430l49 179q16 53 41.5 95t70.5 75q88 66 193 65h450q131 0 222 -90q12 -12 22 -25.5t21 -25.5l55 -55q90 -90 90 -220q0 -16 -1 -28.5t-3 -22.5q-2 -4 -2 -8t-1 -9t-1 -9l-176 -662 q-31 -119 -123 -186l-2 2q-96 -74 -209 -74h-422q-127 0 -219 86l-62 61q-23 14 -45 37q-92 93 -92 228zM-385 285q0 -123 82 -205q82 -80 203 -80h422q111 0 196 68q86 66 113 172l176 661q2 14 4 27q2 10 3 22.5t1 22.5q0 121 -82 203q-80 80 -201 79h-450q-96 0 -174 -59 q-39 -29 -62.5 -67.5t-38.5 -86.5l-49 -178l-112 -430l-21 -80q-10 -36 -10 -69zM-354 434h293h-293zM-242 864h291h-291zM-125 547h543l-56 -209q-16 -53 -67 -53h-303q-72 0 -72 69q0 12 2 19l17 61l110 430l19 56q18 53 69 53h348q37 0 37 -37q0 -6 -2 -8l-39 -140 l-538 3zM63 315h232q14 0 23.5 9.5t13.5 21.5q4 20 8 38.5t8 35.5h-258l-24 -94q-3 -5 -3 -11zM197 819h260q4 16 6 27h-223q-31 0 -43 -27z" />
<glyph unicode="&#x44e;" horiz-adv-x="1720" d="M-504 -31l340 1319h359l-5 -12l99 -96l-107 -408h99q4 18 10 40t10 40q14 51 26.5 101.5t24.5 99.5q31 113 113 170q43 31 91 48t101 17h299q131 0 222 -90q12 -12 22 -25.5t21 -25.5l55 -55q90 -90 90 -220q0 -18 -2 -37.5t-8 -39.5h2q-41 -166 -85 -332t-85 -332 q-31 -119 -123 -186l-2 2q-96 -74 -209 -74h-270q-127 0 -219 86l-64 61q-23 14 -43 37q-92 92 -92 228q0 33 6 61h-98q-29 -117 -60.5 -236.5t-60.5 -236.5h-346l-96 96h-15zM-463 0h293l121 473h285l-29 -119q-10 -37 -10 -69q0 -123 82 -205q82 -80 202 -80h271 q111 0 196 68q86 66 113 172l170 663q8 31 8 72q0 121 -82 203q-80 80 -201 79h-299q-96 0 -174 -59q-74 -53 -100 -154l-78 -303h-285l134 516h-293zM502 354q0 12 2 19l139 549q12 53 70 53h196q37 0 37 -37q0 -6 -2 -8l-151 -592q-12 -53 -68 -53h-152q-71 -1 -71 69z M643 315h82q14 0 23.5 9.5t13.5 21.5q31 123 64.5 250t66.5 252h-78q-35 0 -45 -35z" />
<glyph unicode="&#x44f;" horiz-adv-x="1187" d="M-584 -31l103 381q27 90 86 148q-8 25 -10.5 47t-2.5 49q0 43 9 78l24 94q12 47 27 94q12 47 25.5 94t27.5 95q2 4 8 10q4 4 7.5 12t15.5 37q16 29 33.5 58.5t46.5 52.5q88 68 194 67h854q-2 -4 -2 -6t-2 -6l98 -96q-14 -55 -36.5 -80t-34.5 -29q0 -10 -2 -36.5 t-11.5 -81t-28 -140.5t-48 -216t-73.5 -308t-106 -414h-344l-96 96h-14l69 269q-66 -23 -132 -42.5t-130 -37.5q-25 -8 -30 -33l-66 -252h-348l-96 96h-15zM-543 0h291h-291zM-543 0h295l62 233q8 37 47 50l450 137l-106 -420h291q86 332 142 549t90 348t49.5 190.5t20.5 79 t4 11t-2 -11.5t3 11.5t20 77.5h-813q-98 0 -174 -59q-37 -29 -55.5 -71t-44.5 -83l-105 -378q-8 -31 -8 -70q0 -53 19 -105q-68 -55 -93 -147zM-63 698q0 12 2 19q2 10 5 16t8 23.5t15 54.5t29 109q12 53 70 53h395l-66 -230l-368 -112q-12 -4 -19 -4q-71 -1 -71 71zM86 680 q29 8 55.5 15t53.5 18q41 14 85 27.5t89 27.5l20 78h-221q-35 0 -45 -35q-12 -47 -21.5 -79t-15.5 -52zM764 1018q20 121 20 145l-6 4q2 -14 -1 -47.5t-13 -101.5zM784 1176q4 0 4 2h9q-4 -2 -9 -7z" />
<glyph unicode="&#x450;" d="M-84 2001h319l6 -17l93 -92l172 -483h-308l-96 96h-10zM-41 1970l153 -434h256l-153 434h-256zM-393 285q0 23 3 41t7 36l174 689q29 109 111 170q88 66 192 65h451q66 0 120 -21.5t105 -64.5q31 -31 49 -57l60 -60q88 -92 79 -211q-4 -25 -6 -44t-6 -35q-6 -29 -13 -61 t-13 -60q-18 -86 -72.5 -140.5t-138.5 -78.5l-453 -138h375l-4 -12l98 -96l-86 -334h-616q-156 0 -232 76l-65 65q-10 6 -20.5 14.5t-20.5 18.5q-78 78 -78 238zM-362 285q0 -150 67 -217q68 -68 215 -68h596l74 285h-623q-35 0 -35 34v9l13 51l655 199q76 23 126 73.5 t67 128.5l26 121q4 16 7 34.5t5 41.5q8 117 -81 201q-88 78 -205 77h-451q-96 0 -174 -59q-74 -55 -98 -154l-174 -688q-10 -36 -10 -69zM29 700l53 220q12 53 70 53h303q70 -8 69 -72q0 -10 -2 -18l6 6q-8 -39 -49 -51zM201 784q16 4 31.5 9.5t31.5 9.5q35 10 71 21.5 t71 21.5h-152q-16 0 -28.5 -10.5t-16.5 -24.5q-4 -11 -8 -27z" />
<glyph unicode="&#x451;" horiz-adv-x="1232" d="M-393 285q0 23 3 41t7 36l174 689q27 100 111 168q88 68 192 67h451q66 0 120 -21.5t105 -64.5q31 -31 49 -57l60 -60q88 -92 79 -211q-4 -25 -6 -44t-6 -35q-6 -29 -13 -61t-13 -60q-18 -86 -72.5 -140.5t-138.5 -78.5l-453 -138h375l-4 -12l98 -96l-86 -334h-616 q-156 0 -232 76l-65 65q-10 6 -20.5 14.5t-20.5 18.5q-78 78 -78 238zM-362 285q0 -150 67 -217q68 -68 215 -68h596l74 285h-623q-35 0 -35 34v9l13 51l655 199q76 23 126 73.5t67 128.5l26 121q4 16 7 34.5t5 41.5q8 117 -81 201q-88 78 -205 77h-451q-96 0 -174 -59 q-74 -59 -98 -154l-174 -688q-10 -36 -10 -69zM29 700l53 220q12 53 70 53h303q70 -8 69 -72q0 -10 -2 -18l6 6q-8 -39 -49 -51zM43 1507l90 303h320l-4 -12l98 -96l-86 -291h-307l-97 96h-14zM84 1538h256l72 242h-256zM201 784q16 4 31.5 9.5t31.5 9.5q35 10 71 21.5 t71 21.5h-152q-16 0 -28.5 -10.5t-16.5 -24.5q-4 -11 -8 -27zM565 1507l88 303h322l-4 -12l98 -96l-86 -291h-307l-96 96h-15zM606 1538h256l72 242h-258z" />
<glyph unicode="&#x452;" d="M-496 -31l334 1291h-57l-96 96h-15l86 305h187q4 18 10 37.5t10 42.5q4 16 7 32.5t7 28.5h361l-4 -12l98 -96l-8 -33h127l-4 -12l98 -97l-76 -270q111 -8 193 -88l20 -25q10 -12 19 -24l59 -58q90 -90 90 -225q-12 -47 -23.5 -93t-21.5 -91l-43 -172q-18 -74 -37.5 -154 t-39 -157.5t-38 -149.5t-32.5 -131q-29 -106 -111 -168q-86 -63 -190 -63h-410l-96 96h-14l24 94h-303l-96 96h-15zM-455 0h295l250 971h404q35 0 34 -37v-8q-51 -199 -102 -393.5t-102 -393.5q-18 -45 -68 -45h-248l-74 -284h377q98 0 176 59q76 57 101 154 q14 59 32.5 130.5t38 149.5t39 158t37.5 153q43 172 88 357q0 121 -82 203q-80 80 -200 79h-379l35 133h245l68 244h-250l37 142h-293l-37 -142h-188l-68 -244h193zM27 125h229q25 0 37 22q25 96 50.5 196.5t51.5 197.5q16 57 30.5 117.5t31.5 119.5l8 33l8 33h-260 q-45 -180 -92 -359.5t-94 -359.5z" />
<glyph unicode="&#x453;" horiz-adv-x="1138" d="M-514 -31l278 1078q29 104 115 172q86 63 191 63h731l-4 -12l98 -96l-86 -332h-582q-35 0 -45 -35l-239 -934h-346l-97 96h-14zM-473 0h293l235 915q12 53 70 54h561l74 282h-690q-96 0 -172 -57q-78 -59 -103 -156zM340 1505l174 310h326l-6 -11l98 -98l-168 -297h-311 l-97 96h-16zM391 1536h256l141 248h-256z" />
<glyph unicode="&#x454;" horiz-adv-x="1193" d="M-416 283q0 16 1 29.5t3 23.5q2 4 2 6v8q0 4 1 7t1 5l177 662q31 121 125 186q100 76 215 76h421q131 0 224 -90q12 -12 22 -25.5t21 -25.5l55 -55q90 -90 90 -222q0 -35 -10 -75q-4 -18 -10.5 -40t-10.5 -40l-112 -430l-49 -179q-16 -53 -42 -94t-69 -73 q-86 -63 -188 -64h-451q-129 0 -217 88l-57 57q-12 10 -24.5 19.5t-25.5 21.5q-92 93 -92 224zM-385 283q0 -121 82 -203q80 -80 201 -80h450q96 0 174 59q39 29 62.5 68t38.5 86l49 178l112 430l21 80q10 37 10 70q0 123 -82 205q-84 80 -203 79h-421q-111 0 -197 -67 q-86 -66 -113 -172l-176 -662q-2 -14 -4 -26q-2 -10 -3 -22.5t-1 -22.5zM-92 319q0 6 2 9l51 184l539 -2l67 244h-542l43 164q16 53 67 53h303q72 0 72 -70q0 -12 -2 -18l-16 -62l-111 -430l-19 -55q-18 -53 -69 -53h-348q-37 -1 -37 36zM63 313h230q31 0 41 33q2 14 10 37 l-260 2q-4 -16 -10.5 -35t-10.5 -37zM186 784h263l12 45q0 4 1 7.5t1 7.5h-225q-33 0 -43 -35q-4 -8 -5.5 -14.5t-3.5 -10.5zM381 391h291h-291zM492 821h292h-292z" />
<glyph unicode="&#x455;" horiz-adv-x="1200" d="M-494 -31l91 346h583q29 0 39 31l17 55q-41 14 -81 26.5t-81 25.5q-78 25 -127 75l-60 60q-23 14 -41 32.5t-34 41.5q-29 41 -45.5 88t-16.5 100q0 43 8 76q4 12 6.5 28.5t6.5 30.5q4 16 7 30.5t7 31.5q25 102 113 172q43 31 91 48t101 17h729l-4 -12l98 -96l-84 -332 h-581q-18 0 -33 -10l168 -52q104 -33 162 -110q4 -4 6 -8l4 -9l61 -59q8 -8 14.5 -15.5t12.5 -15.5q59 -82 59 -186q0 -18 -2 -36.5t-8 -39.5h2q-14 -49 -27.5 -99t-27.5 -100q-14 -53 -43 -96t-68 -71q-41 -29 -89 -46.5t-101 -17.5h-721l-96 96h-15zM-453 0h689 q98 0 176 59q72 53 100 154l55 199q8 31 8 69q0 94 -55 172q-53 72 -145 101l-246 75q-51 14 -51 68l2 16l-4 5q16 53 69 53h562l71 282h-688q-96 0 -174 -59q-80 -57 -100 -154l-27 -120q-8 -31 -8 -70q0 -96 55 -170q53 -74 144 -102l247 -76q49 -16 49 -66q0 -14 -2 -18 l-24 -80q-16 -53 -70 -53h-559z" />
<glyph unicode="&#x456;" horiz-adv-x="505" d="M-504 -31l340 1315h96l-65 66h-14l84 331h360l-4 -12l98 -96l-82 -320h-98l78 -77l-336 -1303h-346l-96 96h-15zM-463 0h293l324 1253h-293zM-106 1380h292l70 271h-293z" />
<glyph unicode="&#x457;" horiz-adv-x="509" d="M-504 -31l340 1315h359l-5 -12l99 -96l-336 -1303h-346l-96 96h-15zM-463 0h293l324 1253h-293zM-279 1509l89 303h319l-4 -12l43 -43l18 60h322l-4 -13l98 -96l-86 -291h-307l-53 53l-17 -57h-307l-96 96h-15zM-238 1540h256l70 242h-256zM139 1544h256l72 242h-258z " />
<glyph unicode="&#x458;" horiz-adv-x="894" d="M-506 -221l90 346h334q10 0 21.5 10t17.5 21q35 135 72 277t73 284q37 143 76 285.5t74 279.5h82l-68 68h-14l84 331h360l-4 -12l99 -96l-82 -320h-84l80 -79l-328 -1260q-14 -51 -42 -94t-69 -74q-86 -63 -190 -63h-471l-97 96h-14zM-465 -190h438q98 0 177 59 q76 57 100 154l319 1228h-293l-288 -1104q-16 -53 -70 -53h-309zM293 1380h293l69 271h-293z" />
<glyph unicode="&#x459;" horiz-adv-x="2082" d="M-489 -27l92 344h139q25 100 51.5 203t54.5 209q23 82 42.5 162t39.5 158q14 53 41 94t72 76q88 66 193 65h727l-5 -12l99 -96l-41 -170h221q131 0 221 -91q12 -12 22.5 -25t20.5 -26l55 -55q90 -90 91 -219q0 -37 -11 -78l-98 -379q-16 -55 -47 -103t-78 -83l-2 2 q-96 -74 -207 -74l-823 -2l-96 96h-15l226 875h-103q-35 0 -45 -35l-237 -936l-312 4h-178l-96 96h-14zM-449 4h146l-2 -4h293l233 918q12 53 70 53h270l-250 -971l791 2q109 0 194 68q88 66 115 172l98 379q10 37 11 71q0 121 -82 203q-80 80 -201 80h-379l66 278h-688 q-96 0 -175 -59q-76 -57 -100 -154l-192 -753h-142zM680 287l106 405h404q35 0 35 -37v-8l-82 -307q-16 -53 -70 -53h-393zM840 317h233q10 0 21.5 10.5t17.5 20.5q10 35 20.5 76t20.5 78q4 16 8 31.5t8 31.5h-260q-18 -68 -35.5 -127.5t-33.5 -120.5z" />
<glyph unicode="&#x45a;" horiz-adv-x="2050" d="M-504 -31l340 1315h357l-5 -12l99 -96l-41 -175h260l72 283l358 2l-4 -12l98 -96l-43 -172h219q131 0 224 -93l20 -24q10 -12 18 -25l60 -57q88 -88 88 -217q0 -37 -10 -78l-99 -379q-31 -115 -125 -188q-47 -35 -98 -52.5t-110 -17.5l-824 -2l-96 96h-14l151 590h-262 q-43 -168 -88 -344t-88 -342h-346l-96 96h-15zM-463 0h293l178 686h449l-176 -686l790 2q106 0 195 66q88 70 114 174l99 379q10 37 10 71q0 121 -80 201q-82 82 -203 82h-379l68 280l-291 -2l-74 -282h-440l64 282h-293zM649 287l107 405h403q35 0 35 -37v-8l-82 -307 q-16 -53 -70 -53h-393zM809 317h233q10 0 21.5 10.5t17.5 20.5q10 35 20.5 76t20.5 78q4 16 8.5 31.5t8.5 31.5h-260q-18 -68 -36 -127.5t-34 -120.5zM1518 815l4 -4z" />
<glyph unicode="&#x45b;" d="M-496 -31l328 1264h-61l-97 96h-14l86 305h191q6 25 13 50.5t13 52.5q4 16 7 33.5t7 31.5h361l-4 -12l98 -96l-16 -60h125l-4 -12l98 -96l-68 -244q113 -6 195 -88q12 -12 22.5 -25.5t20.5 -25.5l55 -56q90 -90 90 -219q0 -37 -10 -77l-238 -918h-346l-96 96h-14l227 875 h-260q-59 -242 -124.5 -485.5t-125.5 -485.5h-348l-96 96h-15zM-455 0h295l250 971h404q35 0 34 -37v-8l-241 -926h293l233 899q10 37 10 72q0 121 -82 203q-80 80 -200 79h-379l28 107h242l68 244h-246l43 168h-293l-43 -168h-192l-68 -244h197z" />
<glyph unicode="&#x45c;" horiz-adv-x="1267" d="M-498 -31l375 1317h356l-4 -12l99 -96l-115 -373h115q29 0 37 24l161 455h367l-4 -12l98 -96l-92 -316h-31q-25 -74 -49 -145.5t-49 -147.5q57 -82 57 -180q0 -18 -2 -36.5t-8 -39.5h2q-27 -104 -56.5 -219t-56.5 -219h-346l-96 96h-14l100 393h-260 q-31 -119 -64.5 -244.5t-62.5 -244.5h-346l-96 96h-15zM-457 0h293l127 489h356q72 0 72 -69q0 -12 -2 -19l-102 -401h293l108 420q8 31 8 69q0 96 -59 175l108 323h29l78 266h-305l-154 -434q-14 -45 -65 -45h-283l148 481h-293z" />
<glyph unicode="&#x45d;" horiz-adv-x="1284" d="M25 2001h319l6 -17l93 -92l172 -483h-308l-96 96h-10zM68 1970l153 -434h256l-153 434h-256zM-412 285q0 43 9 77q29 113 58.5 228t59.5 231q31 117 63 233.5t60 229.5h357l-5 -12l99 -96l-223 -861h337q31 121 61 239t62 241q31 119 65 245.5t64 243.5h361l-4 -12 l98 -96l-340 -1303h-766q-129 0 -217 88l-57 57q-12 10 -24.5 19.5t-24.5 21.5q-93 93 -93 226zM-381 285q0 -123 82 -205q80 -80 201 -80h745l328 1253h-295l-252 -968h-479q-35 0 -35 34v9l240 925h-291l-236 -899q-8 -30 -8 -69z" />
<glyph unicode="&#x45e;" d="M-471 -219l90 346h584q31 0 37 25q6 27 12 49h-205q-129 0 -217 88l-57 57q-12 10 -24.5 19.5t-24.5 21.5q-92 92 -93 223q0 39 11 80q10 43 22 92t25 97q27 102 53.5 206.5t48.5 200.5h361l-5 -12l99 -96l-137 -537h260q16 59 31.5 118.5t31.5 123.5q27 102 52.5 203.5 t47.5 199.5l365 -4l-4 -12l98 -96l-329 -1258q-14 -51 -42 -94t-69 -74q-86 -63 -191 -63h-720l-97 96h-14zM-430 -188h688q98 0 176 59q76 57 101 154l321 1226l-297 4l-164 -645h-403q-35 0 -35 37v8l154 600h-293l-146 -573q-10 -37 -10 -72q0 -121 82 -202 q80 -80 201 -80h379l-54 -185q-14 -47 -67 -47h-559zM55 1587l70 240q39 -18 86 -36.5t94 -32t91 -23t79 -9.5q86 0 202 32t224 77l-6 -16l98 -97l-69 -239q-57 -27 -105.5 -45.5t-93.5 -28.5t-91 -15t-97 -5q-80 4 -182.5 31.5t-188.5 68.5l-88 88q-13 2 -23 10zM94 1604 q76 -35 170 -59.5t172 -28.5q51 0 94 5t85 14t87.5 25.5t98.5 41.5l51 180q-84 -35 -186.5 -60.5t-190.5 -25.5q-37 0 -80 8t-87 20.5t-86 27.5t-77 32z" />
<glyph unicode="&#x45f;" horiz-adv-x="1284" d="M-504 -31l344 1356h359l-4 -12l98 -96l-227 -902h260q33 129 65.5 260.5t67.5 264.5q31 123 62.5 244.5t60.5 240.5h360l-4 -12l98 -96l-340 -1344l-366 -2q-12 -47 -26.5 -96t-24.5 -94h-310l-96 96h-14l26 94q-72 2 -142 2h-136l-96 96h-15zM-463 0l414 -2l-51 -191 h256l51 191l366 2l328 1294h-293l-256 -1009h-448l254 1009h-293z" />
<glyph unicode="&#x470;" horiz-adv-x="1490" d="M-264 864q0 23 3 41.5t7 36.5q51 211 106.5 431t106.5 431h358l-4 -12l72 -72q6 23 11 42.5t12 41.5h360l-4 -12l82 -80q4 23 10 46.5t12 45.5h361l-4 -12l98 -96l-246 -985q-31 -119 -123 -187h-2q-96 -72 -209 -71h-196q-37 -141 -75 -285.5t-75 -286.5h-346l-96 96 h-14l127 486q-76 18 -134 76l-61 61q-23 14 -45 37q-92 92 -92 227zM-233 864q0 -123 81 -205q82 -80 203 -79h80l-149 -572h292l150 572h217q111 0 197 67q86 66 112 172l238 955h-293l-213 -856q-12 -53 -68 -54h-116l229 910h-293l-229 -910h-62q-72 0 -71 70q0 12 2 18 l202 822h-290l-209 -840q-10 -37 -10 -70z" />
<glyph unicode="&#x471;" horiz-adv-x="1376" d="M-416 285q0 23 3 41t7 36l244 922h357l-5 -12l37 -37l13 49h358l-4 -12l47 -47q4 16 8 29.5t8 29.5h359l-4 -12l98 -96l-274 -1045q-16 -55 -46 -103t-77 -83l-2 2q-96 -74 -209 -74h-148q-12 -45 -24.5 -96t-22.5 -94h-346l-96 96h-15l31 117q-29 10 -52.5 26.5 t-45.5 36.5l-62 61q-23 14 -45 37q-92 93 -92 228zM-385 285q0 -123 82 -205q82 -80 203 -80h41l-50 -190h293l49 190h166q111 0 197 68q86 66 113 172l266 1013h-293l-242 -915q-16 -53 -67 -53h-66l250 968h-293l-250 -968h-22q-72 0 -72 69q0 12 2 19l232 880h-291 l-238 -899q-10 -36 -10 -69z" />
<glyph unicode="&#x490;" horiz-adv-x="1138" d="M-514 -31l340 1317q29 104 115 172q86 63 190 64h401q8 27 16.5 51t18.5 53q16 45 31.5 93t28.5 89h317l-4 -12l98 -96l-168 -619h-581q-35 0 -45 -34l-301 -1174h-346l-97 96h-14zM-473 0h293l297 1155q12 53 69 53h562l155 570h-256l-90 -287h-426q-96 0 -172 -57 q-78 -59 -102 -156z" />
<glyph unicode="&#x491;" horiz-adv-x="1191" d="M-514 -31l231 895q14 49 44 94.5t71 77.5q86 63 191 64h401q10 31 21.5 62.5t21.5 66.5q4 16 11 31.5t11 29.5h318l-4 -12l98 -96l-139 -523h-582q-35 0 -45 -34l-192 -752h-346l-97 96h-14zM-473 0h293l188 733q12 53 70 53h561l127 474h-256l-61 -191h-426 q-96 0 -173 -57q-78 -59 -102 -156z" />
<glyph unicode="&#x4ae;" horiz-adv-x="1310" d="M-219 979q0 23 3 41t7 37q47 186 94 374.5t95 372.5h360l-4 -12l98 -96l-190 -746q51 -27 84 -41q39 16 84 39t84 41q27 8 32 33l203 782h359l-5 -12l99 -96l-232 -901q-41 -154 -209 -217l-188 -74q-41 -154 -83 -317.5t-83 -317.5h-344l-96 96h-15l150 625 q-33 18 -58.5 37.5t-45.5 42.5l-54 53q-145 104 -145 256zM-188 979q0 -164 200 -272l117 -64l-154 -647h291l164 627l203 79q156 61 192 201l224 871h-293l-197 -760q-8 -39 -47 -51l-184 -86l-168 81q-49 25 -49 68q0 12 2 18l186 730h-293l-184 -725q-10 -37 -10 -70z " />
<glyph unicode="&#x4c0;" horiz-adv-x="509" d="M-504 -31l475 1835h359l-4 -12l98 -96l-471 -1823h-346l-96 96h-15zM-463 0h293l459 1774h-293z" />
<glyph unicode="&#x4c1;" horiz-adv-x="1695" d="M370 2126l70 240q39 -18 86 -36.5t94 -32t91 -23t79 -9.5q86 0 202 32t224 77l-6 -16l98 -97l-69 -239q-57 -27 -105.5 -45.5t-93.5 -28.5t-91 -15t-97 -5q-80 4 -182.5 31.5t-188.5 68.5l-88 88q-13 2 -23 10zM409 2143q76 -35 170 -59.5t172 -28.5q51 0 94 5t85 14 t87.5 25.5t98.5 41.5l51 180q-84 -35 -186.5 -60.5t-190.5 -25.5q-37 0 -80 8t-87 20.5t-86 27.5t-77 32zM-502 -31l195 756l13 40q7 22 18 36v-2q45 94 147 176q10 98 23.5 202.5t25.5 206.5q12 104 24.5 212t24.5 208h367l-2 -12l98 -96l-70 -596h9q23 86 45 171t45 177 q23 90 47 180t47 176h358l-4 -12l99 -96l-154 -586q4 4 12 16q35 90 73 185.5t77 191.5q31 76 61.5 154t59.5 147h370l-6 -12l98 -96l-329 -834q55 -84 55 -178q0 -18 -2 -36.5t-8 -39.5h2q-47 -180 -95 -367.5t-96 -367.5h-346l-96 96h-14l178 690h-107l-102 -394 t-102 -392h-347l-96 96h-14l178 690h-27q-55 0 -88 -61h-2q-2 -2 -2 -4t-2 -4h2q-45 -174 -92 -358.5t-92 -358.5h-346l-96 96h-15zM-461 0h293l180 698q4 12 8 19q37 70 109 69h195l-203 -786h293l204 786h203q72 0 72 -69q0 -12 -2 -19l-180 -698h293l186 717q8 31 8 69 q0 96 -59 175l323 813h-305l-262 -658q-18 -45 -66 -45h-139l182 703h-292l-183 -705l-57 2q-12 0 -32.5 3t-39 8t-32 13.5t-11.5 20.5l78 658h-305l-96 -813q-102 -80 -150 -175q-18 -35 -28 -69z" />
<glyph unicode="&#x4c2;" horiz-adv-x="1519" d="M159 1612l70 240q39 -18 86 -36.5t94 -32t91 -23t79 -9.5q86 0 202 32t224 77l-6 -16l98 -97l-69 -239q-57 -27 -105.5 -45.5t-93.5 -28.5t-91 -15t-97 -5q-80 4 -182.5 31.5t-188.5 68.5l-88 88q-13 2 -23 10zM198 1629q76 -35 170 -59.5t172 -28.5q51 0 94 5t85 14 t87.5 25.5t98.5 41.5l51 180q-84 -35 -186.5 -60.5t-190.5 -25.5q-37 0 -80 8t-87 20.5t-86 27.5t-77 32zM-502 -31l125 475q2 4 2 6.5t2 6.5l8 28q4 14 15 31q49 92 147 172q4 72 9.5 151t9.5 152q4 76 9 152t9 147h365v-12l96 -96l-6 -123q16 59 29.5 118.5t27.5 112.5 h361l-5 -12l97 -96q14 29 26 55l25 53h373l-6 -12l98 -96l-268 -604q55 -84 55 -179q0 -18 -2 -36.5t-8 -38.5h2q-29 -109 -59.5 -225.5t-59.5 -225.5h-346l-97 96h-14l105 406h-25q-33 -123 -67.5 -252t-65.5 -250h-346l-96 96h-15l101 391q-23 -16 -37 -45q-4 -8 -6 -10h2 q-27 -104 -56.5 -216t-56.5 -216h-346l-96 96h-15zM-461 0h293l109 414q4 12 8 18q33 70 106 70h123l-129 -502h293l133 502h123q72 0 72 -70q0 -4 -1 -9t-1 -9l-109 -414h293l115 432q8 31 8 70q0 96 -60 174l261 584h-306l-198 -429q-23 -45 -66 -45h-59l119 474h-293 l-119 -476l-59 2q-43 0 -41 45l14 429h-305l-35 -584q-98 -76 -150 -174q-10 -16 -16 -34.5t-10 -35.5zM281 717l4 -4q-4 0 -4 4z" />
<glyph unicode="&#x4d0;" horiz-adv-x="1300" d="M297 2128l70 240q39 -18 86 -36.5t94 -32t91 -23t79 -9.5q86 0 202 32t224 77l-6 -16l98 -97l-69 -239q-57 -27 -105.5 -45.5t-93.5 -28.5t-91 -15t-97 -5q-80 4 -182.5 31.5t-188.5 68.5l-88 88q-13 2 -23 10zM336 2145q76 -35 170 -59.5t172 -28.5q51 0 94 5t85 14 t87.5 25.5t98.5 41.5l51 180q-84 -35 -186.5 -60.5t-190.5 -25.5q-37 0 -80 8t-87 20.5t-86 27.5t-77 32zM-487 -29l413 1600q14 53 41 94t72 76q88 66 192 65h869l-4 -12l98 -96l-469 -1823h-346l-96 96h-15l166 678h-266l-197 -774h-348l-96 96h-14zM-446 2h294l197 774 h455l-191 -774h293l457 1774h-828q-96 0 -174 -60q-76 -57 -100 -153zM111 1053l100 385q16 53 70 53h409l-117 -438h-462zM272 1083h277q8 29 15 61t16 60q10 41 21 80t22 80h-240q-14 0 -26.5 -11.5t-18.5 -23.5q-18 -66 -34 -126.5t-32 -119.5z" />
<glyph unicode="&#x4d1;" d="M-121 1607l70 240q39 -18 86 -36.5t94 -32t91 -23t79 -9.5q86 0 202 32t224 77l-6 -16l98 -97l-69 -239q-57 -27 -105.5 -45.5t-93.5 -28.5t-91 -15t-97 -5q-80 4 -182.5 31.5t-188.5 68.5l-88 88q-13 2 -23 10zM-82 1624q76 -35 170 -59.5t172 -28.5q51 0 94 5t85 14 t87.5 25.5t98.5 41.5l51 180q-84 -35 -186.5 -60.5t-190.5 -25.5q-37 0 -80 8t-87 20.5t-86 27.5t-77 32zM-475 -31l121 473q43 170 215 222q82 25 160.5 48t158.5 48q63 20 129 39.5t131 42.5h-483l-96 96h-15l91 344h620q131 0 221 -90q12 -12 22.5 -25.5t20.5 -25.5 l56 -56q90 -90 90 -219q0 -49 -11 -78h2q-57 -225 -117.5 -457.5t-117.5 -457.5h-1088l-96 96h-14zM-434 0h1034l231 897q8 27 9 72q0 121 -82 202q-80 80 -201 80h-596l-74 -282h623q37 0 37 -41l-25 -94l-653 -199q-154 -47 -193 -201zM-68 285l9 41q6 35 47 49l450 139 l-57 -229h-449zM307 315h49q2 4 2 8.5t2 8.5z" />
<glyph unicode="&#x4d2;" horiz-adv-x="1300" d="M240 2027l90 303h320l-4 -12l98 -96l-86 -291h-307l-97 96h-14zM281 2058h256l72 242h-256zM752 2025l88 303h322l-4 -12l98 -96l-86 -291h-307l-97 96h-14zM793 2056h256l72 242h-258zM-487 -29l413 1600q14 53 41 94t72 76q88 66 192 65h869l-4 -12l98 -96l-469 -1823 h-346l-96 96h-15l166 678h-266l-197 -774h-348l-96 96h-14zM-446 2h294l197 774h455l-191 -774h293l457 1774h-828q-96 0 -174 -60q-76 -57 -100 -153zM111 1053l100 385q16 53 70 53h409l-117 -438h-462zM272 1083h277q8 29 15 61t16 60q10 41 21 80t22 80h-240 q-14 0 -26.5 -11.5t-18.5 -23.5q-18 -66 -34 -126.5t-32 -119.5z" />
<glyph unicode="&#x4d3;" d="M-178 1507l90 303h320l-4 -12l98 -96l-86 -291h-307l-97 96h-14zM-137 1538h256l72 242h-256zM334 1505l88 303h322l-4 -12l98 -96l-86 -291h-307l-97 96h-14zM375 1536h256l72 242h-258zM-475 -31l121 473q43 170 215 222q82 25 160.5 48t158.5 48q63 20 129 39.5 t131 42.5h-483l-96 96h-15l91 344h620q131 0 221 -90q12 -12 22.5 -25.5t20.5 -25.5l56 -56q90 -90 90 -219q0 -49 -11 -78h2q-57 -225 -117.5 -457.5t-117.5 -457.5h-1088l-96 96h-14zM-434 0h1034l231 897q8 27 9 72q0 121 -82 202q-80 80 -201 80h-596l-74 -282h623 q37 0 37 -41l-25 -94l-653 -199q-154 -47 -193 -201zM-68 285l9 41q6 35 47 49l450 139l-57 -229h-449zM307 315h49q2 4 2 8.5t2 8.5z" />
<glyph unicode="&#x4d4;" horiz-adv-x="1937" d="M-475 -31l176 688q43 170 215 222q82 25 161 48t159 48q76 23 157.5 49.5t159.5 48.5q12 47 23.5 94t23.5 97l12 50t15 50h-535l-96 96h-14l90 344h620q61 0 103 -26l43 -29q4 4 14 8l-2 -2q8 6 15 12.5t18 14.5q37 29 92 28h450q129 0 224 -88q31 -31 49 -57l55 -55 q90 -88 84 -213q-2 -25 -4 -44.5t-6 -35.5q-16 -59 -31.5 -125t-32.5 -125q-43 -164 -211 -217l-639 -197q-23 -80 -44 -165t-44 -169h549l-4 -12l98 -96l-86 -334l-1747 -4l-96 96h-14zM-434 0l1694 4l73 285h-622q-35 0 -35 35v10l112 440l656 201q152 47 192 201l64 249 q4 16 6 35t4 41q6 117 -82 199q-86 80 -203 80h-450q-45 0 -72 -21q-20 -16 -36.5 -27.5t-26.5 -21.5l-62 43q-35 20 -86 21h-596l-73 -283h622q37 0 37 -41l-104 -401l-654 -199q-154 -47 -192 -201zM-68 285l64 256q8 37 47 49l451 139l-113 -444h-449zM90 315h264 q10 45 21.5 83t21.5 79q4 16 9.5 34.5t9.5 35.5l-262 -82q-25 -8 -31 -33q-10 -33 -17.5 -60.5t-15.5 -56.5zM872 1096l91 346q16 53 67 53h303q72 -10 72 -72q0 -10 -2 -16l-33 -123q-10 -37 -47 -49zM1051 1182q16 4 29.5 9t29.5 9q53 16 103.5 31.5t99.5 32.5q8 4 15 11 t11 17l21 76h-227q-16 0 -27.5 -10t-15.5 -25q-10 -37 -19.5 -75.5t-19.5 -75.5z" />
<glyph unicode="&#x4d5;" horiz-adv-x="1732" d="M-514 -31l121 473q45 170 229 226l479 86q8 27 13.5 48t9.5 44h-414l-96 96h-14l82 340h1169q131 0 225 -82q31 -31 49 -57l60 -60q88 -92 80 -211q-4 -25 -6.5 -44t-6.5 -35q-6 -29 -13 -61t-13 -60q-18 -86 -75.5 -140.5t-145.5 -82.5l-529 -109q-4 -8 -8 -25h469 l-4 -12l98 -96l-86 -334h-1562l-97 96h-14zM-473 0h1509l74 285h-592l49 180l553 113q76 23 126 73.5t67 128.5l26 121q4 16 7.5 34.5t5.5 41.5q8 117 -82 201q-82 74 -205 73h-1143l-67 -278h553l-68 -248l-510 -90q-154 -47 -192 -201zM-106 285l8 41q6 35 47 49l317 59 l-41 -149h-331zM641 766l53 207h281q70 -8 69 -72q0 -10 -2 -18l7 6q-8 -39 -50 -51zM813 831l70 15h-66q-4 -13 -4 -15z" />
<glyph unicode="&#x4d6;" horiz-adv-x="1191" d="M260 2126l70 240q39 -18 86 -36.5t94 -32t91 -23t79 -9.5q86 0 202 32t224 77l-6 -16l98 -97l-69 -239q-57 -27 -105.5 -45.5t-93.5 -28.5t-91 -15t-97 -5q-80 4 -182.5 31.5t-188.5 68.5l-88 88q-13 2 -23 10zM299 2143q76 -35 170 -59.5t172 -28.5q51 0 94 5t85 14 t87.5 25.5t98.5 41.5l51 180q-84 -35 -186.5 -60.5t-190.5 -25.5q-37 0 -80 8t-87 20.5t-86 27.5t-77 32zM-362 285q0 23 3 41t7 36l311 1207q31 113 113 170q43 31 91 48t101 17h729l-4 -12l98 -96l-83 -332h-582q-14 0 -26.5 -11.5t-18.5 -23.5q-16 -59 -30.5 -114.5 t-29.5 -112.5h281l-4 -12l98 -97l-86 -334h-399q-23 -88 -47.5 -173t-46.5 -171h495l-4 -12l98 -96l-86 -334h-561q-131 0 -219 88l-57 57q-12 10 -24.5 19.5t-24.5 21.5q-92 93 -92 226zM-332 285q0 -123 82 -205q80 -80 203 -80h541l73 285h-524q-70 0 -70 69q0 12 2 19 l109 413h399l74 285h-403l96 367q16 53 69 53h562l71 283h-688q-96 0 -174 -60q-74 -53 -100 -153l-312 -1207q-10 -36 -10 -69z" />
<glyph unicode="&#x4d7;" d="M-49 1607l70 240q39 -18 86 -36.5t94 -32t91 -23t79 -9.5q86 0 202 32t224 77l-6 -16l98 -97l-69 -239q-57 -27 -105.5 -45.5t-93.5 -28.5t-91 -15t-97 -5q-80 4 -182.5 31.5t-188.5 68.5l-88 88q-13 2 -23 10zM-10 1624q76 -35 170 -59.5t172 -28.5q51 0 94 5t85 14 t87.5 25.5t98.5 41.5l51 180q-84 -35 -186.5 -60.5t-190.5 -25.5q-37 0 -80 8t-87 20.5t-86 27.5t-77 32zM-393 285q0 23 3 41t7 36l174 689q29 109 111 170q88 66 192 65h451q66 0 120 -21.5t105 -64.5q31 -31 49 -57l60 -60q88 -92 79 -211q-4 -25 -6 -44t-6 -35 q-6 -29 -13 -61t-13 -60q-18 -86 -72.5 -140.5t-138.5 -78.5l-453 -138h375l-4 -12l98 -96l-86 -334h-616q-156 0 -232 76l-65 65q-10 6 -20.5 14.5t-20.5 18.5q-78 78 -78 238zM-362 285q0 -150 67 -217q68 -68 215 -68h596l74 285h-623q-35 0 -35 34v9l13 51l655 199 q76 23 126 73.5t67 128.5l26 121q4 16 7 34.5t5 41.5q8 117 -81 201q-88 78 -205 77h-451q-96 0 -174 -59q-74 -55 -98 -154l-174 -688q-10 -36 -10 -69zM29 700l53 220q12 53 70 53h303q70 -8 69 -72q0 -10 -2 -18l6 6q-8 -39 -49 -51zM201 784q16 4 31.5 9.5t31.5 9.5 q35 10 71 21.5t71 21.5h-152q-16 0 -28.5 -10.5t-16.5 -24.5q-4 -11 -8 -27z" />
<glyph unicode="&#x4dc;" horiz-adv-x="1695" d="M313 2025l90 303h320l-4 -12l98 -96l-86 -291h-307l-97 96h-14zM354 2056h256l72 242h-256zM825 2023l88 303h322l-4 -12l98 -96l-86 -291h-307l-97 96h-14zM866 2054h256l72 242h-258zM-502 -31l195 756l13 40q7 22 18 36v-2q45 94 147 176q10 98 23.5 202.5t25.5 206.5 q12 104 24.5 212t24.5 208h367l-2 -12l98 -96l-70 -596h9q23 86 45 171t45 177q23 90 47 180t47 176h358l-4 -12l99 -96l-154 -586q4 4 12 16q35 90 73 185.5t77 191.5q31 76 61.5 154t59.5 147h370l-6 -12l98 -96l-329 -834q55 -84 55 -178q0 -18 -2 -36.5t-8 -39.5h2 q-47 -180 -95 -367.5t-96 -367.5h-346l-96 96h-14l178 690h-107l-102 -394t-102 -392h-347l-96 96h-14l178 690h-27q-55 0 -88 -61h-2q-2 -2 -2 -4t-2 -4h2q-45 -174 -92 -358.5t-92 -358.5h-346l-96 96h-15zM-461 0h293l180 698q4 12 8 19q37 70 109 69h195l-203 -786h293 l204 786h203q72 0 72 -69q0 -12 -2 -19l-180 -698h293l186 717q8 31 8 69q0 96 -59 175l323 813h-305l-262 -658q-18 -45 -66 -45h-139l182 703h-292l-183 -705l-57 2q-12 0 -32.5 3t-39 8t-32 13.5t-11.5 20.5l78 658h-305l-96 -813q-102 -80 -150 -175q-18 -35 -28 -69z " />
<glyph unicode="&#x4dd;" horiz-adv-x="1519" d="M102 1511l90 303h320l-4 -12l98 -96l-86 -291h-307l-97 96h-14zM143 1542h256l72 242h-256zM614 1509l88 303h322l-4 -12l98 -96l-86 -291h-307l-97 96h-14zM655 1540h256l72 242h-258zM-502 -31l125 475q2 4 2 6.5t2 6.5l8 28q4 14 15 31q49 92 147 172q4 72 9.5 151 t9.5 152q4 76 9 152t9 147h365v-12l96 -96l-6 -123q16 59 29.5 118.5t27.5 112.5h361l-5 -12l97 -96q14 29 26 55l25 53h373l-6 -12l98 -96l-268 -604q55 -84 55 -179q0 -18 -2 -36.5t-8 -38.5h2q-29 -109 -59.5 -225.5t-59.5 -225.5h-346l-97 96h-14l105 406h-25 q-33 -123 -67.5 -252t-65.5 -250h-346l-96 96h-15l101 391q-23 -16 -37 -45q-4 -8 -6 -10h2q-27 -104 -56.5 -216t-56.5 -216h-346l-96 96h-15zM-461 0h293l109 414q4 12 8 18q33 70 106 70h123l-129 -502h293l133 502h123q72 0 72 -70q0 -4 -1 -9t-1 -9l-109 -414h293 l115 432q8 31 8 70q0 96 -60 174l261 584h-306l-198 -429q-23 -45 -66 -45h-59l119 474h-293l-119 -476l-59 2q-43 0 -41 45l14 429h-305l-35 -584q-98 -76 -150 -174q-10 -16 -16 -34.5t-10 -35.5zM281 717l4 -4q-4 0 -4 4z" />
<glyph unicode="&#x4de;" horiz-adv-x="1204" d="M-459 2025l90 303h320l-4 -12l98 -96l-86 -291h-307l-97 96h-14zM-418 2056h256l72 242h-256zM53 2023l88 303h322l-4 -12l98 -96l-86 -291h-307l-97 96h-14zM94 2054h256l72 242h-258zM-504 -31l94 344h705q14 0 23.5 9.5t13.5 21.5q23 88 45 181t45 186h-350l-97 96 h-14l86 342h455q14 4 29.5 19.5t23.5 29.5l41 162h-604l-96 96h-15l86 348l692 -4q61 0 118 -24.5t104 -65.5q10 -12 20 -23.5t19 -23.5l65 -64q84 -84 84 -215q0 -18 -2 -37.5t-8 -39.5h2l-86 -332q-12 -47 -32.5 -84t-55.5 -66q14 -43 14 -96q0 -18 -2 -36.5t-8 -39.5h2 q-35 -137 -72 -274t-71 -275q-31 -109 -111 -167q-41 -29 -89 -46.5t-99 -17.5h-844l-96 96h-15zM-463 0h811q96 0 174 59q74 53 101 154l143 549q8 31 8 69q0 55 -20 105q70 57 94 147l86 332q8 31 8 72q0 121 -82 201q-82 82 -201 81l-665 5l-72 -287h692q35 0 35 -37v-8 l-63 -252q-25 -59 -82 -72h-430l-72 -280h428q45 6 45 -37q0 -14 -6 -33l-107 -432q-12 -53 -67 -53h-680z" />
<glyph unicode="&#x4df;" horiz-adv-x="1204" d="M-586 1507l90 303h320l-4 -12l98 -96l-86 -291h-307l-97 96h-14zM-545 1538h256l72 242h-256zM-74 1505l88 303h322l-4 -12l98 -96l-86 -291h-307l-97 96h-14zM-33 1536h256l72 242h-258zM-504 -31l94 344h705q12 0 22.5 10.5t14.5 20.5q4 12 7 26.5t7 30.5h-348l-96 97 h-15l86 342h455q2 0 4 2h-567l-96 96h-15l86 348l692 -4q61 0 118 -24.5t104 -65.5q10 -12 20 -23.5t19 -23.5l65 -64q84 -84 84 -215q0 -18 -2 -37.5t-8 -40.5h2l-16 -61l-17 -61q-12 -47 -32.5 -84t-55.5 -66q14 -43 14 -96q0 -18 -2 -36.5t-8 -39.5h2 q-16 -59 -34.5 -119.5t-34.5 -120.5q-16 -53 -42 -94t-69 -73q-86 -63 -188 -64h-844l-96 96h-15zM-463 0h811q96 0 174 59q39 29 62.5 68t38.5 86l69 240q8 31 8 69q0 55 -20 105q70 57 94 147l33 123q8 31 8 72q0 121 -82 200q-82 82 -201 82l-665 4l-72 -286h692 q23 0 29 -12.5t6 -32.5l-10 -43q-25 -59 -82 -72h-430l-72 -281h428q45 6 45 -36q0 -14 -6 -33l-33 -123q-16 -53 -67 -53h-680z" />
<glyph unicode="&#x4e2;" horiz-adv-x="1284" d="M118 2025l78 310l803 -3l-4 -12l98 -96l-76 -297l-788 2l-96 96h-15zM159 2056l735 -2l64 248l-735 2zM-504 -31l475 1835h359l-4 -12l98 -96l-70 -281q20 14 40 26.5t40 26.5q59 41 117.5 79t118.5 79q4 18 9 41t11 45q4 18 10.5 43t14.5 49h358l-4 -12l98 -96 l-471 -1823h-346l-96 96h-14l233 905q-78 -53 -156.5 -102t-156.5 -102q-51 -197 -103.5 -398.5t-103.5 -398.5h-346l-96 96h-15zM-463 0h293l205 786l543 357l-297 -1143h292l459 1774h-293l-43 -166l-534 -357l127 523h-293z" />
<glyph unicode="&#x4e3;" horiz-adv-x="1284" d="M24 1507l78 310l803 -3l-4 -12l98 -96l-76 -297l-788 2l-96 96h-15zM65 1538l735 -2l64 248l-735 2zM-412 285q0 43 9 77q29 113 58.5 228t59.5 231q31 117 63 233.5t60 229.5h357l-5 -12l99 -96l-223 -861h337q31 121 61 239t62 241q31 119 65 245.5t64 243.5h361 l-4 -12l98 -96l-340 -1303h-766q-129 0 -217 88l-57 57q-12 10 -24.5 19.5t-24.5 21.5q-93 93 -93 226zM-381 285q0 -123 82 -205q80 -80 201 -80h745l328 1253h-295l-252 -968h-479q-35 0 -35 34v9l240 925h-291l-236 -899q-8 -30 -8 -69z" />
<glyph unicode="&#x4e4;" horiz-adv-x="1284" d="M96 2025l90 303h320l-4 -12l98 -96l-86 -291h-307l-97 96h-14zM137 2056h256l72 242h-256zM608 2023l88 303h322l-4 -12l98 -96l-86 -291h-307l-97 96h-14zM649 2054h256l72 242h-258zM-504 -31l475 1835h359l-4 -12l98 -96l-70 -281q20 14 40 26.5t40 26.5 q59 41 117.5 79t118.5 79q4 18 9 41t11 45q4 18 10.5 43t14.5 49h358l-4 -12l98 -96l-471 -1823h-346l-96 96h-14l233 905q-78 -53 -156.5 -102t-156.5 -102q-51 -197 -103.5 -398.5t-103.5 -398.5h-346l-96 96h-15zM-463 0h293l205 786l543 357l-297 -1143h292l459 1774 h-293l-43 -166l-534 -357l127 523h-293z" />
<glyph unicode="&#x4e5;" horiz-adv-x="1284" d="M2 1507l90 303h320l-4 -12l98 -96l-86 -291h-307l-97 96h-14zM43 1538h256l72 242h-256zM514 1505l88 303h322l-4 -12l98 -96l-86 -291h-307l-97 96h-14zM555 1536h256l72 242h-258zM-412 285q0 43 9 77q29 113 58.5 228t59.5 231q31 117 63 233.5t60 229.5h357l-5 -12 l99 -96l-223 -861h337q31 121 61 239t62 241q31 119 65 245.5t64 243.5h361l-4 -12l98 -96l-340 -1303h-766q-129 0 -217 88l-57 57q-12 10 -24.5 19.5t-24.5 21.5q-93 93 -93 226zM-381 285q0 -123 82 -205q80 -80 201 -80h745l328 1253h-295l-252 -968h-479q-35 0 -35 34 v9l240 925h-291l-236 -899q-8 -30 -8 -69z" />
<glyph unicode="&#x4e6;" horiz-adv-x="1193" d="M10 2025l90 303h320l-4 -12l98 -96l-86 -291h-307l-97 96h-14zM51 2056h256l72 242h-256zM522 2023l88 303h322l-4 -12l98 -96l-86 -291h-307l-97 96h-14zM563 2054h256l72 242h-258zM-416 285q0 23 3 41t7 36l312 1207q31 113 112 170q43 31 91.5 48t101.5 17h451 q131 0 221 -90q12 -12 22 -25.5t21 -25.5l55 -55q90 -90 90 -219q0 -18 -2 -38t-8 -40h2q-76 -297 -152.5 -590t-152.5 -590q-31 -119 -123 -186l-2 2q-96 -74 -209 -74h-422q-127 0 -219 86l-62 61q-23 14 -45 37q-92 93 -92 228zM-385 285q0 -123 82 -205q82 -80 203 -80 h422q111 0 196 68q86 66 113 172l305 1179q8 31 8 72q0 121 -82 203q-80 80 -200 80h-451q-96 0 -174 -60q-74 -53 -100 -153l-312 -1207q-10 -36 -10 -69zM-80 354q0 12 2 19l275 1065q12 53 69 53h348q37 0 37 -37q0 -6 -2 -8l-287 -1108q-12 -53 -67 -53h-303 q-72 -1 -72 69zM61 315h234q14 0 23.5 9.5t13.5 21.5q66 252 132 507t132 511h-227q-35 0 -45 -35z" />
<glyph unicode="&#x4e7;" horiz-adv-x="1253" d="M-127 1507l90 303h320l-4 -12l98 -96l-86 -291h-307l-97 96h-14zM-86 1538h256l72 242h-256zM385 1505l88 303h322l-4 -12l98 -96l-86 -291h-307l-97 96h-14zM426 1536h256l72 242h-258zM-416 285q0 23 3 41t7 36l175 689q31 113 112 170q43 31 91 48t102 17h450 q131 0 221 -90q12 -12 22.5 -25.5t20.5 -25.5l56 -55q90 -90 90 -220q0 -18 -2 -37.5t-8 -39.5h2q-41 -166 -84 -331t-84 -331q-31 -119 -123 -186l-2 2q-96 -74 -209 -74h-422q-127 0 -219 86l-62 61q-23 14 -45 37q-92 93 -92 228zM-385 285q0 -123 82 -205 q82 -80 203 -80h422q111 0 196 68q86 66 113 172l168 661q8 31 8 72q0 121 -82 203q-80 80 -201 79h-450q-96 0 -174 -59q-74 -53 -101 -154l-174 -688q-10 -36 -10 -69zM-80 354q0 12 2 19l137 547q12 53 70 53h348q37 0 37 -37q0 -6 -2 -8l-150 -590q-12 -53 -67 -53h-303 q-72 -1 -72 69zM61 315h234q14 0 23.5 9.5t13.5 21.5q29 119 62.5 247t66.5 253h-230q-35 0 -45 -35z" />
<glyph unicode="&#x4e8;" horiz-adv-x="1193" d="M-416 285q0 23 3 41t7 36l312 1207q31 113 112 170q43 31 91.5 48t101.5 17h451q131 0 221 -90q12 -12 22 -25.5t21 -25.5l49 -51l-2 2l8 -6q90 -90 90 -219q0 -18 -2 -38t-8 -40h2q-76 -297 -152.5 -590t-152.5 -590q-31 -119 -123 -186l-2 2q-96 -74 -209 -74h-422 q-127 0 -219 86l-62 61q-23 14 -45 37q-92 93 -92 228zM-385 285q0 -123 82 -205q82 -80 203 -80h422q111 0 196 68q86 66 113 172l305 1179q8 31 8 72q0 121 -82 203q-80 80 -200 80h-451q-96 0 -174 -60q-74 -53 -100 -153l-312 -1207q-10 -36 -10 -69zM-80 354q0 12 2 19 l275 1065q12 53 69 53h348q37 0 37 -37q0 -6 -2 -8l-287 -1108q-12 -53 -67 -53h-303q-72 -1 -72 69zM61 315h234q14 0 23.5 9.5t13.5 21.5q23 88 46 177t46 182h-254l-6 6zM100 831h318l67 244h-317zM266 1106h260l-4 -12l4 -2q16 68 35 136t35 136h-227q-35 0 -45 -35z " />
<glyph unicode="&#x4e9;" horiz-adv-x="1126" d="M-416 285q0 23 3 41t7 36l312 1207q31 113 112 170q43 31 91.5 48t101.5 17h364q131 0 222 -90q12 -12 22 -25.5t21 -25.5l55 -55q90 -90 90 -219q0 -18 -2 -38t-8 -40h2q-76 -297 -152.5 -590t-152.5 -590q-31 -119 -123 -186l-2 2q-96 -74 -209 -74h-336 q-127 0 -219 86l-62 61q-23 14 -45 37q-92 93 -92 228zM-385 285q0 -123 82 -205q82 -80 203 -80h336q111 0 196 68q86 66 113 172l305 1179q8 31 8 72q0 121 -82 203q-80 80 -201 80h-364q-96 0 -174 -60q-74 -53 -100 -153l-312 -1207q-10 -36 -10 -69zM-80 354q0 12 2 19 l119 458h362l-127 -493q-12 -53 -67 -53h-217q-72 -1 -72 69zM61 315h148q14 0 23.5 9.5t13.5 21.5l92 359h-174q-25 -98 -50.5 -195t-52.5 -195zM102 1075l95 363q12 53 69 53h262q37 0 37 -37q0 -6 -2 -8l-96 -371h-365zM266 1106h174q8 33 16.5 61.5t16.5 61.5l37 135 h-141q-35 0 -45 -35z" />
<glyph unicode="&#x4ea;" horiz-adv-x="1193" d="M10 2025l90 303h320l-4 -12l98 -96l-86 -291h-307l-97 96h-14zM51 2056h256l72 242h-256zM522 2023l88 303h322l-4 -12l98 -96l-86 -291h-307l-97 96h-14zM563 2054h256l72 242h-258zM-416 285q0 23 3 41t7 36l312 1207q31 113 112 170q43 31 91.5 48t101.5 17h451 q131 0 221 -90q12 -12 22 -25.5t21 -25.5l49 -51l-2 2l8 -6q90 -90 90 -219q0 -18 -2 -38t-8 -40h2q-76 -297 -152.5 -590t-152.5 -590q-31 -119 -123 -186l-2 2q-96 -74 -209 -74h-422q-127 0 -219 86l-62 61q-23 14 -45 37q-92 93 -92 228zM-385 285q0 -123 82 -205 q82 -80 203 -80h422q111 0 196 68q86 66 113 172l305 1179q8 31 8 72q0 121 -82 203q-80 80 -200 80h-451q-96 0 -174 -60q-74 -53 -100 -153l-312 -1207q-10 -36 -10 -69zM-80 354q0 12 2 19l275 1065q12 53 69 53h348q37 0 37 -37q0 -6 -2 -8l-287 -1108q-12 -53 -67 -53 h-303q-72 -1 -72 69zM61 315h234q14 0 23.5 9.5t13.5 21.5q23 88 46 177t46 182h-254l-6 6zM100 831h318l67 244h-317zM266 1106h260l-4 -12l4 -2q16 68 35 136t35 136h-227q-35 0 -45 -35z" />
<glyph unicode="&#x4eb;" horiz-adv-x="1126" d="M-33 2025l90 303h320l-4 -12l98 -96l-86 -291h-307l-97 96h-14zM8 2056h256l72 242h-256zM479 2023l88 303h322l-4 -12l98 -96l-86 -291h-307l-97 96h-14zM520 2054h256l72 242h-258zM-416 285q0 23 3 41t7 36l312 1207q31 113 112 170q43 31 91.5 48t101.5 17h364 q131 0 222 -90q12 -12 22 -25.5t21 -25.5l55 -55q90 -90 90 -219q0 -18 -2 -38t-8 -40h2q-76 -297 -152.5 -590t-152.5 -590q-31 -119 -123 -186l-2 2q-96 -74 -209 -74h-336q-127 0 -219 86l-62 61q-23 14 -45 37q-92 93 -92 228zM-385 285q0 -123 82 -205q82 -80 203 -80 h336q111 0 196 68q86 66 113 172l305 1179q8 31 8 72q0 121 -82 203q-80 80 -201 80h-364q-96 0 -174 -60q-74 -53 -100 -153l-312 -1207q-10 -36 -10 -69zM-80 354q0 12 2 19l119 458h362l-127 -493q-12 -53 -67 -53h-217q-72 -1 -72 69zM61 315h148q14 0 23.5 9.5 t13.5 21.5l92 359h-174q-25 -98 -50.5 -195t-52.5 -195zM102 1075l95 363q12 53 69 53h262q37 0 37 -37q0 -6 -2 -8l-96 -371h-365zM266 1106h174q8 33 16.5 61.5t16.5 61.5l37 135h-141q-35 0 -45 -35z" />
<glyph unicode="&#x4ec;" horiz-adv-x="1193" d="M10 2025l90 303h320l-4 -12l98 -96l-86 -291h-307l-97 96h-14zM51 2056h256l72 242h-256zM522 2023l88 303h322l-4 -12l98 -96l-86 -291h-307l-97 96h-14zM563 2054h256l72 242h-258zM-416 285q0 23 3 41t7 36q2 12 4.5 20.5t6.5 18.5t5 20.5t5 20.5l242 949l49 178 q16 53 41.5 95t70.5 75q88 66 193 65h451q131 0 221 -90q12 -12 22 -25.5t21 -25.5l55 -55q90 -90 90 -219q0 -16 -1 -28.5t-3 -23.5q-2 -4 -2 -8t-1 -9t-1 -9l-305 -1180q-31 -119 -123 -186l-2 2q-96 -74 -209 -74h-422q-127 0 -219 86l-62 61q-23 14 -45 37 q-92 93 -92 228zM-385 285q0 -123 82 -205q82 -80 203 -80h422q111 0 196 68q86 66 113 172l305 1179q2 14 4 27q2 10 3 22.5t1 22.5q0 121 -82 203q-80 80 -200 80h-451q-96 0 -174 -60q-39 -29 -62.5 -67.5t-37.5 -85.5l-50 -179l-241 -948l-21 -80q-10 -36 -10 -69z M-354 434h293h-293zM-113 1382h291h-291zM-80 354q0 12 2 19l17 61l239 948l19 56q18 53 69 53h348q37 0 37 -37q0 -6 -2 -8l-102 -397l-539 2l-67 -244h542l-121 -469q-12 -53 -67 -53h-303q-72 -1 -72 69zM63 315h232q14 0 23.5 9.5t13.5 21.5q23 84 44 166t44 168h-266 l-88 -354q-3 -5 -3 -11zM256 1079h266q16 63 31.5 126t32.5 124q2 8 3 16.5t5 18.5h-225q-35 0 -47 -37l-19 -53h2z" />
<glyph unicode="&#x4ed;" horiz-adv-x="1193" d="M-119 1507l90 303h320l-4 -12l98 -96l-86 -291h-307l-97 96h-14zM-78 1538h256l72 242h-256zM393 1505l88 303h322l-4 -12l98 -96l-86 -291h-307l-97 96h-14zM434 1536h256l72 242h-258zM-416 285q0 23 3 41t7 36q2 12 4.5 20.5t6.5 18.5t5 20.5t5 20.5l113 430l49 179 q16 53 41.5 95t70.5 75q88 66 193 65h450q131 0 222 -90q12 -12 22 -25.5t21 -25.5l55 -55q90 -90 90 -220q0 -16 -1 -28.5t-3 -22.5q-2 -4 -2 -8t-1 -9t-1 -9l-176 -662q-31 -119 -123 -186l-2 2q-96 -74 -209 -74h-422q-127 0 -219 86l-62 61q-23 14 -45 37 q-92 93 -92 228zM-385 285q0 -123 82 -205q82 -80 203 -80h422q111 0 196 68q86 66 113 172l176 661q2 14 4 27q2 10 3 22.5t1 22.5q0 121 -82 203q-80 80 -201 79h-450q-96 0 -174 -59q-39 -29 -62.5 -67.5t-38.5 -86.5l-49 -178l-112 -430l-21 -80q-10 -36 -10 -69z M-354 434h293h-293zM-242 864h291h-291zM-125 547h543l-56 -209q-16 -53 -67 -53h-303q-72 0 -72 69q0 12 2 19l17 61l110 430l19 56q18 53 69 53h348q37 0 37 -37q0 -6 -2 -8l-39 -140l-538 3zM63 315h232q14 0 23.5 9.5t13.5 21.5q4 20 8 38.5t8 35.5h-258l-24 -94 q-3 -5 -3 -11zM197 819h260q4 16 6 27h-223q-31 0 -43 -27z" />
<glyph unicode="&#x4ee;" d="M65 2025l78 310l803 -3l-4 -12l98 -96l-76 -297l-788 2l-96 96h-15zM106 2056l735 -2l64 248l-735 2zM-422 -31l90 346h584q14 0 23.5 7.5t13.5 17.5q4 12 7 24.5t7 24.5h-207q-129 0 -217 88l-57 58q-12 10 -24.5 19t-24.5 21q-92 92 -92 224q0 39 10 80 q29 111 56.5 226.5t55.5 231.5q29 117 56.5 236t56.5 229h360l-4 -12l99 -96l-217 -865h266q20 80 38.5 158t39.5 158q18 72 38.5 156.5t42 173t42 172.5t38.5 155h363l-4 -12l98 -96l-405 -1590q-29 -106 -111 -167q-86 -63 -190 -64h-721l-97 96h-14zM-381 0h688 q98 0 176 59q76 57 101 154l397 1559h-295l-242 -973h-403q-35 0 -35 37v8l230 928h-293l-222 -902q-10 -37 -10 -71q0 -121 82 -203q80 -80 201 -80h379l-54 -184q-12 -47 -67 -47h-559z" />
<glyph unicode="&#x4ef;" d="M-242 1507l78 310l803 -3l-4 -12l98 -96l-76 -297l-788 2l-96 96h-15zM-201 1538l735 -2l64 248l-735 2zM-471 -219l90 346h584q31 0 37 25q6 27 12 49h-205q-129 0 -217 88l-57 57q-12 10 -24.5 19.5t-24.5 21.5q-92 92 -93 223q0 39 11 80q10 43 22 92t25 97 q27 102 53.5 206.5t48.5 200.5h361l-5 -12l99 -96l-137 -537h260q16 59 31.5 118.5t31.5 123.5q27 102 52.5 203.5t47.5 199.5l365 -4l-4 -12l98 -96l-329 -1258q-14 -51 -42 -94t-69 -74q-86 -63 -191 -63h-720l-97 96h-14zM-430 -188h688q98 0 176 59q76 57 101 154 l321 1226l-297 4l-164 -645h-403q-35 0 -35 37v8l154 600h-293l-146 -573q-10 -37 -10 -72q0 -121 82 -202q80 -80 201 -80h379l-54 -185q-14 -47 -67 -47h-559z" />
<glyph unicode="&#x4f0;" d="M45 2025l90 303h320l-4 -12l98 -96l-86 -291h-307l-97 96h-14zM86 2056h256l72 242h-256zM557 2023l88 303h322l-4 -12l98 -96l-86 -291h-307l-97 96h-14zM598 2054h256l72 242h-258zM-422 -31l90 346h584q14 0 23.5 7.5t13.5 17.5q4 12 7 24.5t7 24.5h-207 q-129 0 -217 88l-57 58q-12 10 -24.5 19t-24.5 21q-92 92 -92 224q0 39 10 80q29 111 56.5 226.5t55.5 231.5q29 117 56.5 236t56.5 229h360l-4 -12l99 -96l-217 -865h266q20 80 38.5 158t39.5 158q18 72 38.5 156.5t42 173t42 172.5t38.5 155h363l-4 -12l98 -96l-405 -1590 q-29 -106 -111 -167q-86 -63 -190 -64h-721l-97 96h-14zM-381 0h688q98 0 176 59q76 57 101 154l397 1559h-295l-242 -973h-403q-35 0 -35 37v8l230 928h-293l-222 -902q-10 -37 -10 -71q0 -121 82 -203q80 -80 201 -80h379l-54 -184q-12 -47 -67 -47h-559z" />
<glyph unicode="&#x4f1;" d="M-264 1507l90 303h320l-4 -12l98 -96l-86 -291h-307l-97 96h-14zM-223 1538h256l72 242h-256zM248 1505l88 303h322l-4 -12l98 -96l-86 -291h-307l-97 96h-14zM289 1536h256l72 242h-258zM-471 -219l90 346h584q31 0 37 25q6 27 12 49h-205q-129 0 -217 88l-57 57 q-12 10 -24.5 19.5t-24.5 21.5q-92 92 -93 223q0 39 11 80q10 43 22 92t25 97q27 102 53.5 206.5t48.5 200.5h361l-5 -12l99 -96l-137 -537h260q16 59 31.5 118.5t31.5 123.5q27 102 52.5 203.5t47.5 199.5l365 -4l-4 -12l98 -96l-329 -1258q-14 -51 -42 -94t-69 -74 q-86 -63 -191 -63h-720l-97 96h-14zM-430 -188h688q98 0 176 59q76 57 101 154l321 1226l-297 4l-164 -645h-403q-35 0 -35 37v8l154 600h-293l-146 -573q-10 -37 -10 -72q0 -121 82 -202q80 -80 201 -80h379l-54 -185q-14 -47 -67 -47h-559z" />
<glyph unicode="&#x4f2;" d="M61 2023l174 310h326l-6 -11l12 -14l14 25h326l-6 -11l98 -98l-168 -297h-311l-22 23l-13 -23h-311l-96 96h-17zM112 2054h256l142 248h-256zM459 2054h256l141 248h-256zM-422 -31l90 346h584q14 0 23.5 7.5t13.5 17.5q4 12 7 24.5t7 24.5h-207q-129 0 -217 88l-57 58 q-12 10 -24.5 19t-24.5 21q-92 92 -92 224q0 39 10 80q29 111 56.5 226.5t55.5 231.5q29 117 56.5 236t56.5 229h360l-4 -12l99 -96l-217 -865h266q20 80 38.5 158t39.5 158q18 72 38.5 156.5t42 173t42 172.5t38.5 155h363l-4 -12l98 -96l-405 -1590q-29 -106 -111 -167 q-86 -63 -190 -64h-721l-97 96h-14zM-381 0h688q98 0 176 59q76 57 101 154l397 1559h-295l-242 -973h-403q-35 0 -35 37v8l230 928h-293l-222 -902q-10 -37 -10 -71q0 -121 82 -203q80 -80 201 -80h379l-54 -184q-12 -47 -67 -47h-559z" />
</font>
</defs>
</svg>
